M48
;DRILL file {KiCad 4.0.6} date 02/07/18 21:46:46
;FORMAT={3:3/ absolute / metric / suppress leading zeros}
FMAT,2
METRIC,TZ
T1C0.400
T2C1.000
T3C1.016
T4C3.000
%
G90
G05
M71
T1
X60048Y-67615
X60048Y-73965
X60048Y-81585
X60048Y-89205
X60048Y-96825
X60048Y-117615
X60048Y-123965
X60048Y-131585
X60048Y-139205
X60048Y-146825
X65128Y-96825
X65128Y-146825
X66398Y-63805
X66398Y-71425
X66398Y-75235
X66398Y-79045
X66398Y-82855
X66398Y-86665
X66398Y-113805
X66398Y-121425
X66398Y-125235
X66398Y-129045
X66398Y-132855
X66398Y-136665
X71478Y-54915
X71478Y-63805
X71478Y-67615
X71478Y-71425
X71478Y-75235
X71478Y-79045
X71478Y-82855
X71478Y-86665
X71478Y-91745
X71478Y-104915
X71478Y-113805
X71478Y-117615
X71478Y-121425
X71478Y-125235
X71478Y-129045
X71478Y-132855
X71478Y-136665
X71478Y-141745
X74018Y-54915
X74018Y-104915
X76558Y-96825
X76558Y-146825
X77828Y-63805
X77828Y-113805
X81638Y-93015
X81638Y-143015
X82908Y-63805
X82908Y-67615
X82908Y-71425
X82908Y-75235
X82908Y-79045
X82908Y-82855
X82908Y-113805
X82908Y-117615
X82908Y-121425
X82908Y-125235
X82908Y-129045
X82908Y-132855
X86718Y-53645
X86718Y-86665
X86718Y-103645
X86718Y-136665
X87988Y-62535
X87988Y-112535
X89258Y-95555
X89258Y-145555
X91798Y-75235
X91798Y-79045
X91798Y-125235
X91798Y-129045
X94338Y-53645
X94338Y-61265
X94338Y-103645
X94338Y-111265
X95608Y-86665
X95608Y-136665
X96878Y-96825
X96878Y-146825
X101958Y-80315
X101958Y-130315
X105768Y-65075
X105768Y-73965
X105768Y-95555
X105768Y-115075
X105768Y-123965
X105768Y-145555
X110048Y-67615
X110048Y-73965
X110048Y-81585
X110048Y-89205
X110048Y-96825
X110048Y-117615
X110048Y-123965
X110048Y-131585
X110048Y-139205
X110048Y-146825
X115128Y-96825
X115128Y-146825
X116398Y-63805
X116398Y-71425
X116398Y-75235
X116398Y-79045
X116398Y-82855
X116398Y-86665
X116398Y-113805
X116398Y-121425
X116398Y-125235
X116398Y-129045
X116398Y-132855
X116398Y-136665
X121478Y-54915
X121478Y-63805
X121478Y-67615
X121478Y-71425
X121478Y-75235
X121478Y-79045
X121478Y-82855
X121478Y-86665
X121478Y-91745
X121478Y-104915
X121478Y-113805
X121478Y-117615
X121478Y-121425
X121478Y-125235
X121478Y-129045
X121478Y-132855
X121478Y-136665
X121478Y-141745
X124018Y-54915
X124018Y-104915
X126558Y-96825
X126558Y-146825
X127828Y-63805
X127828Y-113805
X131638Y-93015
X131638Y-143015
X132908Y-63805
X132908Y-67615
X132908Y-71425
X132908Y-75235
X132908Y-79045
X132908Y-82855
X132908Y-113805
X132908Y-117615
X132908Y-121425
X132908Y-125235
X132908Y-129045
X132908Y-132855
X136718Y-53645
X136718Y-86665
X136718Y-103645
X136718Y-136665
X137988Y-62535
X137988Y-112535
X139258Y-95555
X139258Y-145555
X141798Y-75235
X141798Y-79045
X141798Y-125235
X141798Y-129045
X144338Y-53645
X144338Y-61265
X144338Y-103645
X144338Y-111265
X145608Y-86665
X145608Y-136665
X146878Y-96825
X146878Y-146825
X151958Y-80315
X151958Y-130315
X155768Y-65075
X155768Y-73965
X155768Y-95555
X155768Y-115075
X155768Y-123965
X155768Y-145555
T2
X60048Y-56185
X60048Y-58725
X60048Y-106185
X60048Y-108725
X63858Y-67075
X63858Y-89935
X63858Y-117075
X63858Y-139935
X65128Y-55645
X65128Y-58185
X65128Y-60725
X65128Y-105645
X65128Y-108185
X65128Y-110725
X66398Y-67075
X66398Y-89935
X66398Y-117075
X66398Y-139935
X67668Y-55645
X67668Y-58185
X67668Y-60725
X67668Y-105645
X67668Y-108185
X67668Y-110725
X77828Y-55645
X77828Y-58185
X77828Y-60725
X77828Y-105645
X77828Y-108185
X77828Y-110725
X82908Y-55645
X82908Y-58185
X82908Y-60725
X82908Y-105645
X82908Y-108185
X82908Y-110725
X86718Y-67075
X86718Y-89935
X86718Y-117075
X86718Y-139935
X89258Y-67075
X89258Y-89935
X89258Y-117075
X89258Y-139935
X98148Y-56185
X98148Y-91745
X98148Y-106185
X98148Y-141745
X99418Y-61265
X99418Y-66345
X99418Y-71425
X99418Y-76505
X99418Y-81585
X99418Y-86665
X99418Y-111265
X99418Y-116345
X99418Y-121425
X99418Y-126505
X99418Y-131585
X99418Y-136665
X100688Y-56185
X100688Y-91745
X100688Y-106185
X100688Y-141745
X103228Y-56185
X103228Y-91745
X103228Y-106185
X103228Y-141745
X110048Y-56185
X110048Y-58725
X110048Y-106185
X110048Y-108725
X113858Y-67075
X113858Y-89935
X113858Y-117075
X113858Y-139935
X115128Y-55645
X115128Y-58185
X115128Y-60725
X115128Y-105645
X115128Y-108185
X115128Y-110725
X116398Y-67075
X116398Y-89935
X116398Y-117075
X116398Y-139935
X117668Y-55645
X117668Y-58185
X117668Y-60725
X117668Y-105645
X117668Y-108185
X117668Y-110725
X127828Y-55645
X127828Y-58185
X127828Y-60725
X127828Y-105645
X127828Y-108185
X127828Y-110725
X132908Y-55645
X132908Y-58185
X132908Y-60725
X132908Y-105645
X132908Y-108185
X132908Y-110725
X136718Y-67075
X136718Y-89935
X136718Y-117075
X136718Y-139935
X139258Y-67075
X139258Y-89935
X139258Y-117075
X139258Y-139935
X148148Y-56185
X148148Y-91745
X148148Y-106185
X148148Y-141745
X149418Y-61265
X149418Y-66345
X149418Y-71425
X149418Y-76505
X149418Y-81585
X149418Y-86665
X149418Y-111265
X149418Y-116345
X149418Y-121425
X149418Y-126505
X149418Y-131585
X149418Y-136665
X150688Y-56185
X150688Y-91745
X150688Y-106185
X150688Y-141745
X153228Y-56185
X153228Y-91745
X153228Y-106185
X153228Y-141745
T3
X59794Y-50565
X59794Y-100565
X62334Y-50565
X62334Y-100565
X64874Y-50565
X64874Y-100565
X67414Y-50565
X67414Y-100565
X68938Y-98825
X68938Y-148825
X69954Y-50565
X69954Y-100565
X71478Y-98825
X71478Y-148825
X72494Y-50565
X72494Y-100565
X74018Y-98825
X74018Y-148825
X75034Y-50565
X75034Y-100565
X76558Y-98825
X76558Y-148825
X77574Y-50565
X77574Y-100565
X79098Y-98825
X79098Y-148825
X80114Y-50565
X80114Y-100565
X81638Y-98825
X81638Y-148825
X82654Y-50565
X82654Y-100565
X84178Y-98825
X84178Y-148825
X86718Y-50565
X86718Y-98825
X86718Y-100565
X86718Y-148825
X89258Y-50565
X89258Y-100565
X91798Y-50565
X91798Y-98825
X91798Y-100565
X91798Y-148825
X94338Y-50565
X94338Y-98825
X94338Y-100565
X94338Y-148825
X96878Y-50565
X96878Y-98825
X96878Y-100565
X96878Y-148825
X99418Y-50565
X99418Y-98825
X99418Y-100565
X99418Y-148825
X101958Y-50565
X101958Y-98825
X101958Y-100565
X101958Y-148825
X104498Y-50565
X104498Y-98825
X104498Y-100565
X104498Y-148825
X109794Y-50565
X109794Y-100565
X112334Y-50565
X112334Y-100565
X114874Y-50565
X114874Y-100565
X117414Y-50565
X117414Y-100565
X118938Y-98825
X118938Y-148825
X119954Y-50565
X119954Y-100565
X121478Y-98825
X121478Y-148825
X122494Y-50565
X122494Y-100565
X124018Y-98825
X124018Y-148825
X125034Y-50565
X125034Y-100565
X126558Y-98825
X126558Y-148825
X127574Y-50565
X127574Y-100565
X129098Y-98825
X129098Y-148825
X130114Y-50565
X130114Y-100565
X131638Y-98825
X131638Y-148825
X132654Y-50565
X132654Y-100565
X134178Y-98825
X134178Y-148825
X136718Y-50565
X136718Y-98825
X136718Y-100565
X136718Y-148825
X139258Y-50565
X139258Y-100565
X141798Y-50565
X141798Y-98825
X141798Y-100565
X141798Y-148825
X144338Y-50565
X144338Y-98825
X144338Y-100565
X144338Y-148825
X146878Y-50565
X146878Y-98825
X146878Y-100565
X146878Y-148825
X149418Y-50565
X149418Y-98825
X149418Y-100565
X149418Y-148825
X151958Y-50565
X151958Y-98825
X151958Y-100565
X151958Y-148825
X154498Y-50565
X154498Y-98825
X154498Y-100565
X154498Y-148825
T4
X61318Y-70885
X61318Y-86125
X61318Y-120885
X61318Y-136125
X91798Y-70885
X91798Y-86125
X91798Y-120885
X91798Y-136125
X111318Y-70885
X111318Y-86125
X111318Y-120885
X111318Y-136125
X141798Y-70885
X141798Y-86125
X141798Y-120885
X141798Y-136125
T0
M30
