G04 #@! TF.FileFunction,Legend,Bot*
%FSLAX46Y46*%
G04 Gerber Fmt 4.6, Leading zero omitted, Abs format (unit mm)*
G04 Created by KiCad (PCBNEW 4.0.6) date 02/07/18 21:53:05*
%MOMM*%
%LPD*%
G01*
G04 APERTURE LIST*
%ADD10C,0.100000*%
%ADD11C,0.300000*%
G04 APERTURE END LIST*
D10*
D11*
X112793714Y-127422143D02*
X113008000Y-127493571D01*
X113365143Y-127493571D01*
X113508000Y-127422143D01*
X113579429Y-127350714D01*
X113650857Y-127207857D01*
X113650857Y-127065000D01*
X113579429Y-126922143D01*
X113508000Y-126850714D01*
X113365143Y-126779286D01*
X113079429Y-126707857D01*
X112936571Y-126636429D01*
X112865143Y-126565000D01*
X112793714Y-126422143D01*
X112793714Y-126279286D01*
X112865143Y-126136429D01*
X112936571Y-126065000D01*
X113079429Y-125993571D01*
X113436571Y-125993571D01*
X113650857Y-126065000D01*
X114865142Y-127422143D02*
X114722285Y-127493571D01*
X114436571Y-127493571D01*
X114293714Y-127422143D01*
X114222285Y-127279286D01*
X114222285Y-126707857D01*
X114293714Y-126565000D01*
X114436571Y-126493571D01*
X114722285Y-126493571D01*
X114865142Y-126565000D01*
X114936571Y-126707857D01*
X114936571Y-126850714D01*
X114222285Y-126993571D01*
X115579428Y-127493571D02*
X115579428Y-126493571D01*
X115579428Y-126779286D02*
X115650856Y-126636429D01*
X115722285Y-126565000D01*
X115865142Y-126493571D01*
X116007999Y-126493571D01*
X116365142Y-126493571D02*
X116722285Y-127493571D01*
X117079427Y-126493571D01*
X117865142Y-127493571D02*
X117722284Y-127422143D01*
X117650856Y-127350714D01*
X117579427Y-127207857D01*
X117579427Y-126779286D01*
X117650856Y-126636429D01*
X117722284Y-126565000D01*
X117865142Y-126493571D01*
X118079427Y-126493571D01*
X118222284Y-126565000D01*
X118293713Y-126636429D01*
X118365142Y-126779286D01*
X118365142Y-127207857D01*
X118293713Y-127350714D01*
X118222284Y-127422143D01*
X118079427Y-127493571D01*
X117865142Y-127493571D01*
X119007999Y-126922143D02*
X120150856Y-126922143D01*
X121293713Y-125993571D02*
X121293713Y-127065000D01*
X121222285Y-127279286D01*
X121079428Y-127422143D01*
X120865142Y-127493571D01*
X120722285Y-127493571D01*
X122222285Y-127493571D02*
X122079427Y-127422143D01*
X122007999Y-127350714D01*
X121936570Y-127207857D01*
X121936570Y-126779286D01*
X122007999Y-126636429D01*
X122079427Y-126565000D01*
X122222285Y-126493571D01*
X122436570Y-126493571D01*
X122579427Y-126565000D01*
X122650856Y-126636429D01*
X122722285Y-126779286D01*
X122722285Y-127207857D01*
X122650856Y-127350714D01*
X122579427Y-127422143D01*
X122436570Y-127493571D01*
X122222285Y-127493571D01*
X123222285Y-126493571D02*
X123579428Y-127493571D01*
X123936570Y-126493571D02*
X123579428Y-127493571D01*
X123436570Y-127850714D01*
X123365142Y-127922143D01*
X123222285Y-127993571D01*
X124436570Y-127422143D02*
X124579427Y-127493571D01*
X124865142Y-127493571D01*
X125007999Y-127422143D01*
X125079427Y-127279286D01*
X125079427Y-127207857D01*
X125007999Y-127065000D01*
X124865142Y-126993571D01*
X124650856Y-126993571D01*
X124507999Y-126922143D01*
X124436570Y-126779286D01*
X124436570Y-126707857D01*
X124507999Y-126565000D01*
X124650856Y-126493571D01*
X124865142Y-126493571D01*
X125007999Y-126565000D01*
X125507999Y-126493571D02*
X126079428Y-126493571D01*
X125722285Y-125993571D02*
X125722285Y-127279286D01*
X125793713Y-127422143D01*
X125936571Y-127493571D01*
X126079428Y-127493571D01*
X126579428Y-127493571D02*
X126579428Y-126493571D01*
X126579428Y-125993571D02*
X126507999Y-126065000D01*
X126579428Y-126136429D01*
X126650856Y-126065000D01*
X126579428Y-125993571D01*
X126579428Y-126136429D01*
X127936571Y-127422143D02*
X127793714Y-127493571D01*
X127508000Y-127493571D01*
X127365142Y-127422143D01*
X127293714Y-127350714D01*
X127222285Y-127207857D01*
X127222285Y-126779286D01*
X127293714Y-126636429D01*
X127365142Y-126565000D01*
X127508000Y-126493571D01*
X127793714Y-126493571D01*
X127936571Y-126565000D01*
X128579428Y-127493571D02*
X128579428Y-125993571D01*
X128722285Y-126922143D02*
X129150856Y-127493571D01*
X129150856Y-126493571D02*
X128579428Y-127065000D01*
X130865142Y-127065000D02*
X131579428Y-127065000D01*
X130722285Y-127493571D02*
X131222285Y-125993571D01*
X131722285Y-127493571D01*
X132222285Y-127493571D02*
X132222285Y-126493571D01*
X132222285Y-126779286D02*
X132293713Y-126636429D01*
X132365142Y-126565000D01*
X132507999Y-126493571D01*
X132650856Y-126493571D01*
X133793713Y-127493571D02*
X133793713Y-125993571D01*
X133793713Y-127422143D02*
X133650856Y-127493571D01*
X133365142Y-127493571D01*
X133222284Y-127422143D01*
X133150856Y-127350714D01*
X133079427Y-127207857D01*
X133079427Y-126779286D01*
X133150856Y-126636429D01*
X133222284Y-126565000D01*
X133365142Y-126493571D01*
X133650856Y-126493571D01*
X133793713Y-126565000D01*
X135150856Y-126493571D02*
X135150856Y-127493571D01*
X134507999Y-126493571D02*
X134507999Y-127279286D01*
X134579427Y-127422143D01*
X134722285Y-127493571D01*
X134936570Y-127493571D01*
X135079427Y-127422143D01*
X135150856Y-127350714D01*
X135865142Y-127493571D02*
X135865142Y-126493571D01*
X135865142Y-125993571D02*
X135793713Y-126065000D01*
X135865142Y-126136429D01*
X135936570Y-126065000D01*
X135865142Y-125993571D01*
X135865142Y-126136429D01*
X136579428Y-126493571D02*
X136579428Y-127493571D01*
X136579428Y-126636429D02*
X136650856Y-126565000D01*
X136793714Y-126493571D01*
X137007999Y-126493571D01*
X137150856Y-126565000D01*
X137222285Y-126707857D01*
X137222285Y-127493571D01*
X138150857Y-127493571D02*
X138007999Y-127422143D01*
X137936571Y-127350714D01*
X137865142Y-127207857D01*
X137865142Y-126779286D01*
X137936571Y-126636429D01*
X138007999Y-126565000D01*
X138150857Y-126493571D01*
X138365142Y-126493571D01*
X138507999Y-126565000D01*
X138579428Y-126636429D01*
X138650857Y-126779286D01*
X138650857Y-127207857D01*
X138579428Y-127350714D01*
X138507999Y-127422143D01*
X138365142Y-127493571D01*
X138150857Y-127493571D01*
X140365142Y-127422143D02*
X140507999Y-127493571D01*
X140793714Y-127493571D01*
X140936571Y-127422143D01*
X141007999Y-127279286D01*
X141007999Y-127207857D01*
X140936571Y-127065000D01*
X140793714Y-126993571D01*
X140579428Y-126993571D01*
X140436571Y-126922143D01*
X140365142Y-126779286D01*
X140365142Y-126707857D01*
X140436571Y-126565000D01*
X140579428Y-126493571D01*
X140793714Y-126493571D01*
X140936571Y-126565000D01*
X141650857Y-127493571D02*
X141650857Y-125993571D01*
X142293714Y-127493571D02*
X142293714Y-126707857D01*
X142222285Y-126565000D01*
X142079428Y-126493571D01*
X141865143Y-126493571D01*
X141722285Y-126565000D01*
X141650857Y-126636429D01*
X143008000Y-127493571D02*
X143008000Y-126493571D01*
X143008000Y-125993571D02*
X142936571Y-126065000D01*
X143008000Y-126136429D01*
X143079428Y-126065000D01*
X143008000Y-125993571D01*
X143008000Y-126136429D01*
X144293714Y-127422143D02*
X144150857Y-127493571D01*
X143865143Y-127493571D01*
X143722286Y-127422143D01*
X143650857Y-127279286D01*
X143650857Y-126707857D01*
X143722286Y-126565000D01*
X143865143Y-126493571D01*
X144150857Y-126493571D01*
X144293714Y-126565000D01*
X144365143Y-126707857D01*
X144365143Y-126850714D01*
X143650857Y-126993571D01*
X145222286Y-127493571D02*
X145079428Y-127422143D01*
X145008000Y-127279286D01*
X145008000Y-125993571D01*
X146436571Y-127493571D02*
X146436571Y-125993571D01*
X146436571Y-127422143D02*
X146293714Y-127493571D01*
X146008000Y-127493571D01*
X145865142Y-127422143D01*
X145793714Y-127350714D01*
X145722285Y-127207857D01*
X145722285Y-126779286D01*
X145793714Y-126636429D01*
X145865142Y-126565000D01*
X146008000Y-126493571D01*
X146293714Y-126493571D01*
X146436571Y-126565000D01*
X112650857Y-128543571D02*
X113150857Y-130043571D01*
X113650857Y-128543571D01*
X114722285Y-129972143D02*
X114579428Y-130043571D01*
X114293714Y-130043571D01*
X114150857Y-129972143D01*
X114079428Y-129829286D01*
X114079428Y-129257857D01*
X114150857Y-129115000D01*
X114293714Y-129043571D01*
X114579428Y-129043571D01*
X114722285Y-129115000D01*
X114793714Y-129257857D01*
X114793714Y-129400714D01*
X114079428Y-129543571D01*
X115436571Y-130043571D02*
X115436571Y-129043571D01*
X115436571Y-129329286D02*
X115507999Y-129186429D01*
X115579428Y-129115000D01*
X115722285Y-129043571D01*
X115865142Y-129043571D01*
X116293713Y-129972143D02*
X116436570Y-130043571D01*
X116722285Y-130043571D01*
X116865142Y-129972143D01*
X116936570Y-129829286D01*
X116936570Y-129757857D01*
X116865142Y-129615000D01*
X116722285Y-129543571D01*
X116507999Y-129543571D01*
X116365142Y-129472143D01*
X116293713Y-129329286D01*
X116293713Y-129257857D01*
X116365142Y-129115000D01*
X116507999Y-129043571D01*
X116722285Y-129043571D01*
X116865142Y-129115000D01*
X117579428Y-130043571D02*
X117579428Y-129043571D01*
X117579428Y-128543571D02*
X117507999Y-128615000D01*
X117579428Y-128686429D01*
X117650856Y-128615000D01*
X117579428Y-128543571D01*
X117579428Y-128686429D01*
X118508000Y-130043571D02*
X118365142Y-129972143D01*
X118293714Y-129900714D01*
X118222285Y-129757857D01*
X118222285Y-129329286D01*
X118293714Y-129186429D01*
X118365142Y-129115000D01*
X118508000Y-129043571D01*
X118722285Y-129043571D01*
X118865142Y-129115000D01*
X118936571Y-129186429D01*
X119008000Y-129329286D01*
X119008000Y-129757857D01*
X118936571Y-129900714D01*
X118865142Y-129972143D01*
X118722285Y-130043571D01*
X118508000Y-130043571D01*
X119650857Y-129043571D02*
X119650857Y-130043571D01*
X119650857Y-129186429D02*
X119722285Y-129115000D01*
X119865143Y-129043571D01*
X120079428Y-129043571D01*
X120222285Y-129115000D01*
X120293714Y-129257857D01*
X120293714Y-130043571D01*
X122936571Y-130043571D02*
X122079428Y-130043571D01*
X122508000Y-130043571D02*
X122508000Y-128543571D01*
X122365143Y-128757857D01*
X122222285Y-128900714D01*
X122079428Y-128972143D01*
X123579428Y-129900714D02*
X123650856Y-129972143D01*
X123579428Y-130043571D01*
X123507999Y-129972143D01*
X123579428Y-129900714D01*
X123579428Y-130043571D01*
X124579428Y-128543571D02*
X124722285Y-128543571D01*
X124865142Y-128615000D01*
X124936571Y-128686429D01*
X125008000Y-128829286D01*
X125079428Y-129115000D01*
X125079428Y-129472143D01*
X125008000Y-129757857D01*
X124936571Y-129900714D01*
X124865142Y-129972143D01*
X124722285Y-130043571D01*
X124579428Y-130043571D01*
X124436571Y-129972143D01*
X124365142Y-129900714D01*
X124293714Y-129757857D01*
X124222285Y-129472143D01*
X124222285Y-129115000D01*
X124293714Y-128829286D01*
X124365142Y-128686429D01*
X124436571Y-128615000D01*
X124579428Y-128543571D01*
X127793713Y-129329286D02*
X127722285Y-129257857D01*
X127579428Y-129186429D01*
X127436570Y-129186429D01*
X127293713Y-129257857D01*
X127222285Y-129329286D01*
X127150856Y-129472143D01*
X127150856Y-129615000D01*
X127222285Y-129757857D01*
X127293713Y-129829286D01*
X127436570Y-129900714D01*
X127579428Y-129900714D01*
X127722285Y-129829286D01*
X127793713Y-129757857D01*
X127793713Y-129186429D02*
X127793713Y-129757857D01*
X127865142Y-129829286D01*
X127936570Y-129829286D01*
X128079428Y-129757857D01*
X128150856Y-129615000D01*
X128150856Y-129257857D01*
X128007999Y-129043571D01*
X127793713Y-128900714D01*
X127507999Y-128829286D01*
X127222285Y-128900714D01*
X127007999Y-129043571D01*
X126865142Y-129257857D01*
X126793713Y-129543571D01*
X126865142Y-129829286D01*
X127007999Y-130043571D01*
X127222285Y-130186429D01*
X127507999Y-130257857D01*
X127793713Y-130186429D01*
X128007999Y-130043571D01*
X129865141Y-128686429D02*
X129936570Y-128615000D01*
X130079427Y-128543571D01*
X130436570Y-128543571D01*
X130579427Y-128615000D01*
X130650856Y-128686429D01*
X130722284Y-128829286D01*
X130722284Y-128972143D01*
X130650856Y-129186429D01*
X129793713Y-130043571D01*
X130722284Y-130043571D01*
X131650855Y-128543571D02*
X131793712Y-128543571D01*
X131936569Y-128615000D01*
X132007998Y-128686429D01*
X132079427Y-128829286D01*
X132150855Y-129115000D01*
X132150855Y-129472143D01*
X132079427Y-129757857D01*
X132007998Y-129900714D01*
X131936569Y-129972143D01*
X131793712Y-130043571D01*
X131650855Y-130043571D01*
X131507998Y-129972143D01*
X131436569Y-129900714D01*
X131365141Y-129757857D01*
X131293712Y-129472143D01*
X131293712Y-129115000D01*
X131365141Y-128829286D01*
X131436569Y-128686429D01*
X131507998Y-128615000D01*
X131650855Y-128543571D01*
X133579426Y-130043571D02*
X132722283Y-130043571D01*
X133150855Y-130043571D02*
X133150855Y-128543571D01*
X133007998Y-128757857D01*
X132865140Y-128900714D01*
X132722283Y-128972143D01*
X134436569Y-129186429D02*
X134293711Y-129115000D01*
X134222283Y-129043571D01*
X134150854Y-128900714D01*
X134150854Y-128829286D01*
X134222283Y-128686429D01*
X134293711Y-128615000D01*
X134436569Y-128543571D01*
X134722283Y-128543571D01*
X134865140Y-128615000D01*
X134936569Y-128686429D01*
X135007997Y-128829286D01*
X135007997Y-128900714D01*
X134936569Y-129043571D01*
X134865140Y-129115000D01*
X134722283Y-129186429D01*
X134436569Y-129186429D01*
X134293711Y-129257857D01*
X134222283Y-129329286D01*
X134150854Y-129472143D01*
X134150854Y-129757857D01*
X134222283Y-129900714D01*
X134293711Y-129972143D01*
X134436569Y-130043571D01*
X134722283Y-130043571D01*
X134865140Y-129972143D01*
X134936569Y-129900714D01*
X135007997Y-129757857D01*
X135007997Y-129472143D01*
X134936569Y-129329286D01*
X134865140Y-129257857D01*
X134722283Y-129186429D01*
X113293714Y-133165000D02*
X113222286Y-133093571D01*
X113079429Y-132879286D01*
X113008000Y-132736429D01*
X112936571Y-132522143D01*
X112865143Y-132165000D01*
X112865143Y-131879286D01*
X112936571Y-131522143D01*
X113008000Y-131307857D01*
X113079429Y-131165000D01*
X113222286Y-130950714D01*
X113293714Y-130879286D01*
X114508000Y-132522143D02*
X114365143Y-132593571D01*
X114079429Y-132593571D01*
X113936571Y-132522143D01*
X113865143Y-132450714D01*
X113793714Y-132307857D01*
X113793714Y-131879286D01*
X113865143Y-131736429D01*
X113936571Y-131665000D01*
X114079429Y-131593571D01*
X114365143Y-131593571D01*
X114508000Y-131665000D01*
X115008000Y-133165000D02*
X115079428Y-133093571D01*
X115222285Y-132879286D01*
X115293714Y-132736429D01*
X115365143Y-132522143D01*
X115436571Y-132165000D01*
X115436571Y-131879286D01*
X115365143Y-131522143D01*
X115293714Y-131307857D01*
X115222285Y-131165000D01*
X115079428Y-130950714D01*
X115008000Y-130879286D01*
X117293714Y-132593571D02*
X117293714Y-131093571D01*
X117293714Y-131807857D02*
X118150857Y-131807857D01*
X118150857Y-132593571D02*
X118150857Y-131093571D01*
X118865143Y-132593571D02*
X118865143Y-131593571D01*
X118865143Y-131093571D02*
X118793714Y-131165000D01*
X118865143Y-131236429D01*
X118936571Y-131165000D01*
X118865143Y-131093571D01*
X118865143Y-131236429D01*
X119579429Y-132593571D02*
X119579429Y-131593571D01*
X119579429Y-131879286D02*
X119650857Y-131736429D01*
X119722286Y-131665000D01*
X119865143Y-131593571D01*
X120008000Y-131593571D01*
X120722286Y-132593571D02*
X120579428Y-132522143D01*
X120508000Y-132450714D01*
X120436571Y-132307857D01*
X120436571Y-131879286D01*
X120508000Y-131736429D01*
X120579428Y-131665000D01*
X120722286Y-131593571D01*
X120936571Y-131593571D01*
X121079428Y-131665000D01*
X121150857Y-131736429D01*
X121222286Y-131879286D01*
X121222286Y-132307857D01*
X121150857Y-132450714D01*
X121079428Y-132522143D01*
X120936571Y-132593571D01*
X120722286Y-132593571D01*
X121793714Y-132522143D02*
X121936571Y-132593571D01*
X122222286Y-132593571D01*
X122365143Y-132522143D01*
X122436571Y-132379286D01*
X122436571Y-132307857D01*
X122365143Y-132165000D01*
X122222286Y-132093571D01*
X122008000Y-132093571D01*
X121865143Y-132022143D01*
X121793714Y-131879286D01*
X121793714Y-131807857D01*
X121865143Y-131665000D01*
X122008000Y-131593571D01*
X122222286Y-131593571D01*
X122365143Y-131665000D01*
X123079429Y-132593571D02*
X123079429Y-131093571D01*
X123722286Y-132593571D02*
X123722286Y-131807857D01*
X123650857Y-131665000D01*
X123508000Y-131593571D01*
X123293715Y-131593571D01*
X123150857Y-131665000D01*
X123079429Y-131736429D01*
X124436572Y-132593571D02*
X124436572Y-131593571D01*
X124436572Y-131093571D02*
X124365143Y-131165000D01*
X124436572Y-131236429D01*
X124508000Y-131165000D01*
X124436572Y-131093571D01*
X124436572Y-131236429D01*
X126293715Y-132593571D02*
X126293715Y-131093571D01*
X126865144Y-131593571D02*
X127150858Y-132593571D01*
X127436572Y-131879286D01*
X127722287Y-132593571D01*
X128008001Y-131593571D01*
X129222287Y-132593571D02*
X129222287Y-131807857D01*
X129150858Y-131665000D01*
X129008001Y-131593571D01*
X128722287Y-131593571D01*
X128579430Y-131665000D01*
X129222287Y-132522143D02*
X129079430Y-132593571D01*
X128722287Y-132593571D01*
X128579430Y-132522143D01*
X128508001Y-132379286D01*
X128508001Y-132236429D01*
X128579430Y-132093571D01*
X128722287Y-132022143D01*
X129079430Y-132022143D01*
X129222287Y-131950714D01*
X129722287Y-131593571D02*
X130293716Y-131593571D01*
X129936573Y-131093571D02*
X129936573Y-132379286D01*
X130008001Y-132522143D01*
X130150859Y-132593571D01*
X130293716Y-132593571D01*
X131436573Y-132593571D02*
X131436573Y-131807857D01*
X131365144Y-131665000D01*
X131222287Y-131593571D01*
X130936573Y-131593571D01*
X130793716Y-131665000D01*
X131436573Y-132522143D02*
X131293716Y-132593571D01*
X130936573Y-132593571D01*
X130793716Y-132522143D01*
X130722287Y-132379286D01*
X130722287Y-132236429D01*
X130793716Y-132093571D01*
X130936573Y-132022143D01*
X131293716Y-132022143D01*
X131436573Y-131950714D01*
X62793714Y-127422143D02*
X63008000Y-127493571D01*
X63365143Y-127493571D01*
X63508000Y-127422143D01*
X63579429Y-127350714D01*
X63650857Y-127207857D01*
X63650857Y-127065000D01*
X63579429Y-126922143D01*
X63508000Y-126850714D01*
X63365143Y-126779286D01*
X63079429Y-126707857D01*
X62936571Y-126636429D01*
X62865143Y-126565000D01*
X62793714Y-126422143D01*
X62793714Y-126279286D01*
X62865143Y-126136429D01*
X62936571Y-126065000D01*
X63079429Y-125993571D01*
X63436571Y-125993571D01*
X63650857Y-126065000D01*
X64865142Y-127422143D02*
X64722285Y-127493571D01*
X64436571Y-127493571D01*
X64293714Y-127422143D01*
X64222285Y-127279286D01*
X64222285Y-126707857D01*
X64293714Y-126565000D01*
X64436571Y-126493571D01*
X64722285Y-126493571D01*
X64865142Y-126565000D01*
X64936571Y-126707857D01*
X64936571Y-126850714D01*
X64222285Y-126993571D01*
X65579428Y-127493571D02*
X65579428Y-126493571D01*
X65579428Y-126779286D02*
X65650856Y-126636429D01*
X65722285Y-126565000D01*
X65865142Y-126493571D01*
X66007999Y-126493571D01*
X66365142Y-126493571D02*
X66722285Y-127493571D01*
X67079427Y-126493571D01*
X67865142Y-127493571D02*
X67722284Y-127422143D01*
X67650856Y-127350714D01*
X67579427Y-127207857D01*
X67579427Y-126779286D01*
X67650856Y-126636429D01*
X67722284Y-126565000D01*
X67865142Y-126493571D01*
X68079427Y-126493571D01*
X68222284Y-126565000D01*
X68293713Y-126636429D01*
X68365142Y-126779286D01*
X68365142Y-127207857D01*
X68293713Y-127350714D01*
X68222284Y-127422143D01*
X68079427Y-127493571D01*
X67865142Y-127493571D01*
X69007999Y-126922143D02*
X70150856Y-126922143D01*
X71293713Y-125993571D02*
X71293713Y-127065000D01*
X71222285Y-127279286D01*
X71079428Y-127422143D01*
X70865142Y-127493571D01*
X70722285Y-127493571D01*
X72222285Y-127493571D02*
X72079427Y-127422143D01*
X72007999Y-127350714D01*
X71936570Y-127207857D01*
X71936570Y-126779286D01*
X72007999Y-126636429D01*
X72079427Y-126565000D01*
X72222285Y-126493571D01*
X72436570Y-126493571D01*
X72579427Y-126565000D01*
X72650856Y-126636429D01*
X72722285Y-126779286D01*
X72722285Y-127207857D01*
X72650856Y-127350714D01*
X72579427Y-127422143D01*
X72436570Y-127493571D01*
X72222285Y-127493571D01*
X73222285Y-126493571D02*
X73579428Y-127493571D01*
X73936570Y-126493571D02*
X73579428Y-127493571D01*
X73436570Y-127850714D01*
X73365142Y-127922143D01*
X73222285Y-127993571D01*
X74436570Y-127422143D02*
X74579427Y-127493571D01*
X74865142Y-127493571D01*
X75007999Y-127422143D01*
X75079427Y-127279286D01*
X75079427Y-127207857D01*
X75007999Y-127065000D01*
X74865142Y-126993571D01*
X74650856Y-126993571D01*
X74507999Y-126922143D01*
X74436570Y-126779286D01*
X74436570Y-126707857D01*
X74507999Y-126565000D01*
X74650856Y-126493571D01*
X74865142Y-126493571D01*
X75007999Y-126565000D01*
X75507999Y-126493571D02*
X76079428Y-126493571D01*
X75722285Y-125993571D02*
X75722285Y-127279286D01*
X75793713Y-127422143D01*
X75936571Y-127493571D01*
X76079428Y-127493571D01*
X76579428Y-127493571D02*
X76579428Y-126493571D01*
X76579428Y-125993571D02*
X76507999Y-126065000D01*
X76579428Y-126136429D01*
X76650856Y-126065000D01*
X76579428Y-125993571D01*
X76579428Y-126136429D01*
X77936571Y-127422143D02*
X77793714Y-127493571D01*
X77508000Y-127493571D01*
X77365142Y-127422143D01*
X77293714Y-127350714D01*
X77222285Y-127207857D01*
X77222285Y-126779286D01*
X77293714Y-126636429D01*
X77365142Y-126565000D01*
X77508000Y-126493571D01*
X77793714Y-126493571D01*
X77936571Y-126565000D01*
X78579428Y-127493571D02*
X78579428Y-125993571D01*
X78722285Y-126922143D02*
X79150856Y-127493571D01*
X79150856Y-126493571D02*
X78579428Y-127065000D01*
X80865142Y-127065000D02*
X81579428Y-127065000D01*
X80722285Y-127493571D02*
X81222285Y-125993571D01*
X81722285Y-127493571D01*
X82222285Y-127493571D02*
X82222285Y-126493571D01*
X82222285Y-126779286D02*
X82293713Y-126636429D01*
X82365142Y-126565000D01*
X82507999Y-126493571D01*
X82650856Y-126493571D01*
X83793713Y-127493571D02*
X83793713Y-125993571D01*
X83793713Y-127422143D02*
X83650856Y-127493571D01*
X83365142Y-127493571D01*
X83222284Y-127422143D01*
X83150856Y-127350714D01*
X83079427Y-127207857D01*
X83079427Y-126779286D01*
X83150856Y-126636429D01*
X83222284Y-126565000D01*
X83365142Y-126493571D01*
X83650856Y-126493571D01*
X83793713Y-126565000D01*
X85150856Y-126493571D02*
X85150856Y-127493571D01*
X84507999Y-126493571D02*
X84507999Y-127279286D01*
X84579427Y-127422143D01*
X84722285Y-127493571D01*
X84936570Y-127493571D01*
X85079427Y-127422143D01*
X85150856Y-127350714D01*
X85865142Y-127493571D02*
X85865142Y-126493571D01*
X85865142Y-125993571D02*
X85793713Y-126065000D01*
X85865142Y-126136429D01*
X85936570Y-126065000D01*
X85865142Y-125993571D01*
X85865142Y-126136429D01*
X86579428Y-126493571D02*
X86579428Y-127493571D01*
X86579428Y-126636429D02*
X86650856Y-126565000D01*
X86793714Y-126493571D01*
X87007999Y-126493571D01*
X87150856Y-126565000D01*
X87222285Y-126707857D01*
X87222285Y-127493571D01*
X88150857Y-127493571D02*
X88007999Y-127422143D01*
X87936571Y-127350714D01*
X87865142Y-127207857D01*
X87865142Y-126779286D01*
X87936571Y-126636429D01*
X88007999Y-126565000D01*
X88150857Y-126493571D01*
X88365142Y-126493571D01*
X88507999Y-126565000D01*
X88579428Y-126636429D01*
X88650857Y-126779286D01*
X88650857Y-127207857D01*
X88579428Y-127350714D01*
X88507999Y-127422143D01*
X88365142Y-127493571D01*
X88150857Y-127493571D01*
X90365142Y-127422143D02*
X90507999Y-127493571D01*
X90793714Y-127493571D01*
X90936571Y-127422143D01*
X91007999Y-127279286D01*
X91007999Y-127207857D01*
X90936571Y-127065000D01*
X90793714Y-126993571D01*
X90579428Y-126993571D01*
X90436571Y-126922143D01*
X90365142Y-126779286D01*
X90365142Y-126707857D01*
X90436571Y-126565000D01*
X90579428Y-126493571D01*
X90793714Y-126493571D01*
X90936571Y-126565000D01*
X91650857Y-127493571D02*
X91650857Y-125993571D01*
X92293714Y-127493571D02*
X92293714Y-126707857D01*
X92222285Y-126565000D01*
X92079428Y-126493571D01*
X91865143Y-126493571D01*
X91722285Y-126565000D01*
X91650857Y-126636429D01*
X93008000Y-127493571D02*
X93008000Y-126493571D01*
X93008000Y-125993571D02*
X92936571Y-126065000D01*
X93008000Y-126136429D01*
X93079428Y-126065000D01*
X93008000Y-125993571D01*
X93008000Y-126136429D01*
X94293714Y-127422143D02*
X94150857Y-127493571D01*
X93865143Y-127493571D01*
X93722286Y-127422143D01*
X93650857Y-127279286D01*
X93650857Y-126707857D01*
X93722286Y-126565000D01*
X93865143Y-126493571D01*
X94150857Y-126493571D01*
X94293714Y-126565000D01*
X94365143Y-126707857D01*
X94365143Y-126850714D01*
X93650857Y-126993571D01*
X95222286Y-127493571D02*
X95079428Y-127422143D01*
X95008000Y-127279286D01*
X95008000Y-125993571D01*
X96436571Y-127493571D02*
X96436571Y-125993571D01*
X96436571Y-127422143D02*
X96293714Y-127493571D01*
X96008000Y-127493571D01*
X95865142Y-127422143D01*
X95793714Y-127350714D01*
X95722285Y-127207857D01*
X95722285Y-126779286D01*
X95793714Y-126636429D01*
X95865142Y-126565000D01*
X96008000Y-126493571D01*
X96293714Y-126493571D01*
X96436571Y-126565000D01*
X62650857Y-128543571D02*
X63150857Y-130043571D01*
X63650857Y-128543571D01*
X64722285Y-129972143D02*
X64579428Y-130043571D01*
X64293714Y-130043571D01*
X64150857Y-129972143D01*
X64079428Y-129829286D01*
X64079428Y-129257857D01*
X64150857Y-129115000D01*
X64293714Y-129043571D01*
X64579428Y-129043571D01*
X64722285Y-129115000D01*
X64793714Y-129257857D01*
X64793714Y-129400714D01*
X64079428Y-129543571D01*
X65436571Y-130043571D02*
X65436571Y-129043571D01*
X65436571Y-129329286D02*
X65507999Y-129186429D01*
X65579428Y-129115000D01*
X65722285Y-129043571D01*
X65865142Y-129043571D01*
X66293713Y-129972143D02*
X66436570Y-130043571D01*
X66722285Y-130043571D01*
X66865142Y-129972143D01*
X66936570Y-129829286D01*
X66936570Y-129757857D01*
X66865142Y-129615000D01*
X66722285Y-129543571D01*
X66507999Y-129543571D01*
X66365142Y-129472143D01*
X66293713Y-129329286D01*
X66293713Y-129257857D01*
X66365142Y-129115000D01*
X66507999Y-129043571D01*
X66722285Y-129043571D01*
X66865142Y-129115000D01*
X67579428Y-130043571D02*
X67579428Y-129043571D01*
X67579428Y-128543571D02*
X67507999Y-128615000D01*
X67579428Y-128686429D01*
X67650856Y-128615000D01*
X67579428Y-128543571D01*
X67579428Y-128686429D01*
X68508000Y-130043571D02*
X68365142Y-129972143D01*
X68293714Y-129900714D01*
X68222285Y-129757857D01*
X68222285Y-129329286D01*
X68293714Y-129186429D01*
X68365142Y-129115000D01*
X68508000Y-129043571D01*
X68722285Y-129043571D01*
X68865142Y-129115000D01*
X68936571Y-129186429D01*
X69008000Y-129329286D01*
X69008000Y-129757857D01*
X68936571Y-129900714D01*
X68865142Y-129972143D01*
X68722285Y-130043571D01*
X68508000Y-130043571D01*
X69650857Y-129043571D02*
X69650857Y-130043571D01*
X69650857Y-129186429D02*
X69722285Y-129115000D01*
X69865143Y-129043571D01*
X70079428Y-129043571D01*
X70222285Y-129115000D01*
X70293714Y-129257857D01*
X70293714Y-130043571D01*
X72936571Y-130043571D02*
X72079428Y-130043571D01*
X72508000Y-130043571D02*
X72508000Y-128543571D01*
X72365143Y-128757857D01*
X72222285Y-128900714D01*
X72079428Y-128972143D01*
X73579428Y-129900714D02*
X73650856Y-129972143D01*
X73579428Y-130043571D01*
X73507999Y-129972143D01*
X73579428Y-129900714D01*
X73579428Y-130043571D01*
X74579428Y-128543571D02*
X74722285Y-128543571D01*
X74865142Y-128615000D01*
X74936571Y-128686429D01*
X75008000Y-128829286D01*
X75079428Y-129115000D01*
X75079428Y-129472143D01*
X75008000Y-129757857D01*
X74936571Y-129900714D01*
X74865142Y-129972143D01*
X74722285Y-130043571D01*
X74579428Y-130043571D01*
X74436571Y-129972143D01*
X74365142Y-129900714D01*
X74293714Y-129757857D01*
X74222285Y-129472143D01*
X74222285Y-129115000D01*
X74293714Y-128829286D01*
X74365142Y-128686429D01*
X74436571Y-128615000D01*
X74579428Y-128543571D01*
X77793713Y-129329286D02*
X77722285Y-129257857D01*
X77579428Y-129186429D01*
X77436570Y-129186429D01*
X77293713Y-129257857D01*
X77222285Y-129329286D01*
X77150856Y-129472143D01*
X77150856Y-129615000D01*
X77222285Y-129757857D01*
X77293713Y-129829286D01*
X77436570Y-129900714D01*
X77579428Y-129900714D01*
X77722285Y-129829286D01*
X77793713Y-129757857D01*
X77793713Y-129186429D02*
X77793713Y-129757857D01*
X77865142Y-129829286D01*
X77936570Y-129829286D01*
X78079428Y-129757857D01*
X78150856Y-129615000D01*
X78150856Y-129257857D01*
X78007999Y-129043571D01*
X77793713Y-128900714D01*
X77507999Y-128829286D01*
X77222285Y-128900714D01*
X77007999Y-129043571D01*
X76865142Y-129257857D01*
X76793713Y-129543571D01*
X76865142Y-129829286D01*
X77007999Y-130043571D01*
X77222285Y-130186429D01*
X77507999Y-130257857D01*
X77793713Y-130186429D01*
X78007999Y-130043571D01*
X79865141Y-128686429D02*
X79936570Y-128615000D01*
X80079427Y-128543571D01*
X80436570Y-128543571D01*
X80579427Y-128615000D01*
X80650856Y-128686429D01*
X80722284Y-128829286D01*
X80722284Y-128972143D01*
X80650856Y-129186429D01*
X79793713Y-130043571D01*
X80722284Y-130043571D01*
X81650855Y-128543571D02*
X81793712Y-128543571D01*
X81936569Y-128615000D01*
X82007998Y-128686429D01*
X82079427Y-128829286D01*
X82150855Y-129115000D01*
X82150855Y-129472143D01*
X82079427Y-129757857D01*
X82007998Y-129900714D01*
X81936569Y-129972143D01*
X81793712Y-130043571D01*
X81650855Y-130043571D01*
X81507998Y-129972143D01*
X81436569Y-129900714D01*
X81365141Y-129757857D01*
X81293712Y-129472143D01*
X81293712Y-129115000D01*
X81365141Y-128829286D01*
X81436569Y-128686429D01*
X81507998Y-128615000D01*
X81650855Y-128543571D01*
X83579426Y-130043571D02*
X82722283Y-130043571D01*
X83150855Y-130043571D02*
X83150855Y-128543571D01*
X83007998Y-128757857D01*
X82865140Y-128900714D01*
X82722283Y-128972143D01*
X84436569Y-129186429D02*
X84293711Y-129115000D01*
X84222283Y-129043571D01*
X84150854Y-128900714D01*
X84150854Y-128829286D01*
X84222283Y-128686429D01*
X84293711Y-128615000D01*
X84436569Y-128543571D01*
X84722283Y-128543571D01*
X84865140Y-128615000D01*
X84936569Y-128686429D01*
X85007997Y-128829286D01*
X85007997Y-128900714D01*
X84936569Y-129043571D01*
X84865140Y-129115000D01*
X84722283Y-129186429D01*
X84436569Y-129186429D01*
X84293711Y-129257857D01*
X84222283Y-129329286D01*
X84150854Y-129472143D01*
X84150854Y-129757857D01*
X84222283Y-129900714D01*
X84293711Y-129972143D01*
X84436569Y-130043571D01*
X84722283Y-130043571D01*
X84865140Y-129972143D01*
X84936569Y-129900714D01*
X85007997Y-129757857D01*
X85007997Y-129472143D01*
X84936569Y-129329286D01*
X84865140Y-129257857D01*
X84722283Y-129186429D01*
X63293714Y-133165000D02*
X63222286Y-133093571D01*
X63079429Y-132879286D01*
X63008000Y-132736429D01*
X62936571Y-132522143D01*
X62865143Y-132165000D01*
X62865143Y-131879286D01*
X62936571Y-131522143D01*
X63008000Y-131307857D01*
X63079429Y-131165000D01*
X63222286Y-130950714D01*
X63293714Y-130879286D01*
X64508000Y-132522143D02*
X64365143Y-132593571D01*
X64079429Y-132593571D01*
X63936571Y-132522143D01*
X63865143Y-132450714D01*
X63793714Y-132307857D01*
X63793714Y-131879286D01*
X63865143Y-131736429D01*
X63936571Y-131665000D01*
X64079429Y-131593571D01*
X64365143Y-131593571D01*
X64508000Y-131665000D01*
X65008000Y-133165000D02*
X65079428Y-133093571D01*
X65222285Y-132879286D01*
X65293714Y-132736429D01*
X65365143Y-132522143D01*
X65436571Y-132165000D01*
X65436571Y-131879286D01*
X65365143Y-131522143D01*
X65293714Y-131307857D01*
X65222285Y-131165000D01*
X65079428Y-130950714D01*
X65008000Y-130879286D01*
X67293714Y-132593571D02*
X67293714Y-131093571D01*
X67293714Y-131807857D02*
X68150857Y-131807857D01*
X68150857Y-132593571D02*
X68150857Y-131093571D01*
X68865143Y-132593571D02*
X68865143Y-131593571D01*
X68865143Y-131093571D02*
X68793714Y-131165000D01*
X68865143Y-131236429D01*
X68936571Y-131165000D01*
X68865143Y-131093571D01*
X68865143Y-131236429D01*
X69579429Y-132593571D02*
X69579429Y-131593571D01*
X69579429Y-131879286D02*
X69650857Y-131736429D01*
X69722286Y-131665000D01*
X69865143Y-131593571D01*
X70008000Y-131593571D01*
X70722286Y-132593571D02*
X70579428Y-132522143D01*
X70508000Y-132450714D01*
X70436571Y-132307857D01*
X70436571Y-131879286D01*
X70508000Y-131736429D01*
X70579428Y-131665000D01*
X70722286Y-131593571D01*
X70936571Y-131593571D01*
X71079428Y-131665000D01*
X71150857Y-131736429D01*
X71222286Y-131879286D01*
X71222286Y-132307857D01*
X71150857Y-132450714D01*
X71079428Y-132522143D01*
X70936571Y-132593571D01*
X70722286Y-132593571D01*
X71793714Y-132522143D02*
X71936571Y-132593571D01*
X72222286Y-132593571D01*
X72365143Y-132522143D01*
X72436571Y-132379286D01*
X72436571Y-132307857D01*
X72365143Y-132165000D01*
X72222286Y-132093571D01*
X72008000Y-132093571D01*
X71865143Y-132022143D01*
X71793714Y-131879286D01*
X71793714Y-131807857D01*
X71865143Y-131665000D01*
X72008000Y-131593571D01*
X72222286Y-131593571D01*
X72365143Y-131665000D01*
X73079429Y-132593571D02*
X73079429Y-131093571D01*
X73722286Y-132593571D02*
X73722286Y-131807857D01*
X73650857Y-131665000D01*
X73508000Y-131593571D01*
X73293715Y-131593571D01*
X73150857Y-131665000D01*
X73079429Y-131736429D01*
X74436572Y-132593571D02*
X74436572Y-131593571D01*
X74436572Y-131093571D02*
X74365143Y-131165000D01*
X74436572Y-131236429D01*
X74508000Y-131165000D01*
X74436572Y-131093571D01*
X74436572Y-131236429D01*
X76293715Y-132593571D02*
X76293715Y-131093571D01*
X76865144Y-131593571D02*
X77150858Y-132593571D01*
X77436572Y-131879286D01*
X77722287Y-132593571D01*
X78008001Y-131593571D01*
X79222287Y-132593571D02*
X79222287Y-131807857D01*
X79150858Y-131665000D01*
X79008001Y-131593571D01*
X78722287Y-131593571D01*
X78579430Y-131665000D01*
X79222287Y-132522143D02*
X79079430Y-132593571D01*
X78722287Y-132593571D01*
X78579430Y-132522143D01*
X78508001Y-132379286D01*
X78508001Y-132236429D01*
X78579430Y-132093571D01*
X78722287Y-132022143D01*
X79079430Y-132022143D01*
X79222287Y-131950714D01*
X79722287Y-131593571D02*
X80293716Y-131593571D01*
X79936573Y-131093571D02*
X79936573Y-132379286D01*
X80008001Y-132522143D01*
X80150859Y-132593571D01*
X80293716Y-132593571D01*
X81436573Y-132593571D02*
X81436573Y-131807857D01*
X81365144Y-131665000D01*
X81222287Y-131593571D01*
X80936573Y-131593571D01*
X80793716Y-131665000D01*
X81436573Y-132522143D02*
X81293716Y-132593571D01*
X80936573Y-132593571D01*
X80793716Y-132522143D01*
X80722287Y-132379286D01*
X80722287Y-132236429D01*
X80793716Y-132093571D01*
X80936573Y-132022143D01*
X81293716Y-132022143D01*
X81436573Y-131950714D01*
X62793714Y-77422143D02*
X63008000Y-77493571D01*
X63365143Y-77493571D01*
X63508000Y-77422143D01*
X63579429Y-77350714D01*
X63650857Y-77207857D01*
X63650857Y-77065000D01*
X63579429Y-76922143D01*
X63508000Y-76850714D01*
X63365143Y-76779286D01*
X63079429Y-76707857D01*
X62936571Y-76636429D01*
X62865143Y-76565000D01*
X62793714Y-76422143D01*
X62793714Y-76279286D01*
X62865143Y-76136429D01*
X62936571Y-76065000D01*
X63079429Y-75993571D01*
X63436571Y-75993571D01*
X63650857Y-76065000D01*
X64865142Y-77422143D02*
X64722285Y-77493571D01*
X64436571Y-77493571D01*
X64293714Y-77422143D01*
X64222285Y-77279286D01*
X64222285Y-76707857D01*
X64293714Y-76565000D01*
X64436571Y-76493571D01*
X64722285Y-76493571D01*
X64865142Y-76565000D01*
X64936571Y-76707857D01*
X64936571Y-76850714D01*
X64222285Y-76993571D01*
X65579428Y-77493571D02*
X65579428Y-76493571D01*
X65579428Y-76779286D02*
X65650856Y-76636429D01*
X65722285Y-76565000D01*
X65865142Y-76493571D01*
X66007999Y-76493571D01*
X66365142Y-76493571D02*
X66722285Y-77493571D01*
X67079427Y-76493571D01*
X67865142Y-77493571D02*
X67722284Y-77422143D01*
X67650856Y-77350714D01*
X67579427Y-77207857D01*
X67579427Y-76779286D01*
X67650856Y-76636429D01*
X67722284Y-76565000D01*
X67865142Y-76493571D01*
X68079427Y-76493571D01*
X68222284Y-76565000D01*
X68293713Y-76636429D01*
X68365142Y-76779286D01*
X68365142Y-77207857D01*
X68293713Y-77350714D01*
X68222284Y-77422143D01*
X68079427Y-77493571D01*
X67865142Y-77493571D01*
X69007999Y-76922143D02*
X70150856Y-76922143D01*
X71293713Y-75993571D02*
X71293713Y-77065000D01*
X71222285Y-77279286D01*
X71079428Y-77422143D01*
X70865142Y-77493571D01*
X70722285Y-77493571D01*
X72222285Y-77493571D02*
X72079427Y-77422143D01*
X72007999Y-77350714D01*
X71936570Y-77207857D01*
X71936570Y-76779286D01*
X72007999Y-76636429D01*
X72079427Y-76565000D01*
X72222285Y-76493571D01*
X72436570Y-76493571D01*
X72579427Y-76565000D01*
X72650856Y-76636429D01*
X72722285Y-76779286D01*
X72722285Y-77207857D01*
X72650856Y-77350714D01*
X72579427Y-77422143D01*
X72436570Y-77493571D01*
X72222285Y-77493571D01*
X73222285Y-76493571D02*
X73579428Y-77493571D01*
X73936570Y-76493571D02*
X73579428Y-77493571D01*
X73436570Y-77850714D01*
X73365142Y-77922143D01*
X73222285Y-77993571D01*
X74436570Y-77422143D02*
X74579427Y-77493571D01*
X74865142Y-77493571D01*
X75007999Y-77422143D01*
X75079427Y-77279286D01*
X75079427Y-77207857D01*
X75007999Y-77065000D01*
X74865142Y-76993571D01*
X74650856Y-76993571D01*
X74507999Y-76922143D01*
X74436570Y-76779286D01*
X74436570Y-76707857D01*
X74507999Y-76565000D01*
X74650856Y-76493571D01*
X74865142Y-76493571D01*
X75007999Y-76565000D01*
X75507999Y-76493571D02*
X76079428Y-76493571D01*
X75722285Y-75993571D02*
X75722285Y-77279286D01*
X75793713Y-77422143D01*
X75936571Y-77493571D01*
X76079428Y-77493571D01*
X76579428Y-77493571D02*
X76579428Y-76493571D01*
X76579428Y-75993571D02*
X76507999Y-76065000D01*
X76579428Y-76136429D01*
X76650856Y-76065000D01*
X76579428Y-75993571D01*
X76579428Y-76136429D01*
X77936571Y-77422143D02*
X77793714Y-77493571D01*
X77508000Y-77493571D01*
X77365142Y-77422143D01*
X77293714Y-77350714D01*
X77222285Y-77207857D01*
X77222285Y-76779286D01*
X77293714Y-76636429D01*
X77365142Y-76565000D01*
X77508000Y-76493571D01*
X77793714Y-76493571D01*
X77936571Y-76565000D01*
X78579428Y-77493571D02*
X78579428Y-75993571D01*
X78722285Y-76922143D02*
X79150856Y-77493571D01*
X79150856Y-76493571D02*
X78579428Y-77065000D01*
X80865142Y-77065000D02*
X81579428Y-77065000D01*
X80722285Y-77493571D02*
X81222285Y-75993571D01*
X81722285Y-77493571D01*
X82222285Y-77493571D02*
X82222285Y-76493571D01*
X82222285Y-76779286D02*
X82293713Y-76636429D01*
X82365142Y-76565000D01*
X82507999Y-76493571D01*
X82650856Y-76493571D01*
X83793713Y-77493571D02*
X83793713Y-75993571D01*
X83793713Y-77422143D02*
X83650856Y-77493571D01*
X83365142Y-77493571D01*
X83222284Y-77422143D01*
X83150856Y-77350714D01*
X83079427Y-77207857D01*
X83079427Y-76779286D01*
X83150856Y-76636429D01*
X83222284Y-76565000D01*
X83365142Y-76493571D01*
X83650856Y-76493571D01*
X83793713Y-76565000D01*
X85150856Y-76493571D02*
X85150856Y-77493571D01*
X84507999Y-76493571D02*
X84507999Y-77279286D01*
X84579427Y-77422143D01*
X84722285Y-77493571D01*
X84936570Y-77493571D01*
X85079427Y-77422143D01*
X85150856Y-77350714D01*
X85865142Y-77493571D02*
X85865142Y-76493571D01*
X85865142Y-75993571D02*
X85793713Y-76065000D01*
X85865142Y-76136429D01*
X85936570Y-76065000D01*
X85865142Y-75993571D01*
X85865142Y-76136429D01*
X86579428Y-76493571D02*
X86579428Y-77493571D01*
X86579428Y-76636429D02*
X86650856Y-76565000D01*
X86793714Y-76493571D01*
X87007999Y-76493571D01*
X87150856Y-76565000D01*
X87222285Y-76707857D01*
X87222285Y-77493571D01*
X88150857Y-77493571D02*
X88007999Y-77422143D01*
X87936571Y-77350714D01*
X87865142Y-77207857D01*
X87865142Y-76779286D01*
X87936571Y-76636429D01*
X88007999Y-76565000D01*
X88150857Y-76493571D01*
X88365142Y-76493571D01*
X88507999Y-76565000D01*
X88579428Y-76636429D01*
X88650857Y-76779286D01*
X88650857Y-77207857D01*
X88579428Y-77350714D01*
X88507999Y-77422143D01*
X88365142Y-77493571D01*
X88150857Y-77493571D01*
X90365142Y-77422143D02*
X90507999Y-77493571D01*
X90793714Y-77493571D01*
X90936571Y-77422143D01*
X91007999Y-77279286D01*
X91007999Y-77207857D01*
X90936571Y-77065000D01*
X90793714Y-76993571D01*
X90579428Y-76993571D01*
X90436571Y-76922143D01*
X90365142Y-76779286D01*
X90365142Y-76707857D01*
X90436571Y-76565000D01*
X90579428Y-76493571D01*
X90793714Y-76493571D01*
X90936571Y-76565000D01*
X91650857Y-77493571D02*
X91650857Y-75993571D01*
X92293714Y-77493571D02*
X92293714Y-76707857D01*
X92222285Y-76565000D01*
X92079428Y-76493571D01*
X91865143Y-76493571D01*
X91722285Y-76565000D01*
X91650857Y-76636429D01*
X93008000Y-77493571D02*
X93008000Y-76493571D01*
X93008000Y-75993571D02*
X92936571Y-76065000D01*
X93008000Y-76136429D01*
X93079428Y-76065000D01*
X93008000Y-75993571D01*
X93008000Y-76136429D01*
X94293714Y-77422143D02*
X94150857Y-77493571D01*
X93865143Y-77493571D01*
X93722286Y-77422143D01*
X93650857Y-77279286D01*
X93650857Y-76707857D01*
X93722286Y-76565000D01*
X93865143Y-76493571D01*
X94150857Y-76493571D01*
X94293714Y-76565000D01*
X94365143Y-76707857D01*
X94365143Y-76850714D01*
X93650857Y-76993571D01*
X95222286Y-77493571D02*
X95079428Y-77422143D01*
X95008000Y-77279286D01*
X95008000Y-75993571D01*
X96436571Y-77493571D02*
X96436571Y-75993571D01*
X96436571Y-77422143D02*
X96293714Y-77493571D01*
X96008000Y-77493571D01*
X95865142Y-77422143D01*
X95793714Y-77350714D01*
X95722285Y-77207857D01*
X95722285Y-76779286D01*
X95793714Y-76636429D01*
X95865142Y-76565000D01*
X96008000Y-76493571D01*
X96293714Y-76493571D01*
X96436571Y-76565000D01*
X62650857Y-78543571D02*
X63150857Y-80043571D01*
X63650857Y-78543571D01*
X64722285Y-79972143D02*
X64579428Y-80043571D01*
X64293714Y-80043571D01*
X64150857Y-79972143D01*
X64079428Y-79829286D01*
X64079428Y-79257857D01*
X64150857Y-79115000D01*
X64293714Y-79043571D01*
X64579428Y-79043571D01*
X64722285Y-79115000D01*
X64793714Y-79257857D01*
X64793714Y-79400714D01*
X64079428Y-79543571D01*
X65436571Y-80043571D02*
X65436571Y-79043571D01*
X65436571Y-79329286D02*
X65507999Y-79186429D01*
X65579428Y-79115000D01*
X65722285Y-79043571D01*
X65865142Y-79043571D01*
X66293713Y-79972143D02*
X66436570Y-80043571D01*
X66722285Y-80043571D01*
X66865142Y-79972143D01*
X66936570Y-79829286D01*
X66936570Y-79757857D01*
X66865142Y-79615000D01*
X66722285Y-79543571D01*
X66507999Y-79543571D01*
X66365142Y-79472143D01*
X66293713Y-79329286D01*
X66293713Y-79257857D01*
X66365142Y-79115000D01*
X66507999Y-79043571D01*
X66722285Y-79043571D01*
X66865142Y-79115000D01*
X67579428Y-80043571D02*
X67579428Y-79043571D01*
X67579428Y-78543571D02*
X67507999Y-78615000D01*
X67579428Y-78686429D01*
X67650856Y-78615000D01*
X67579428Y-78543571D01*
X67579428Y-78686429D01*
X68508000Y-80043571D02*
X68365142Y-79972143D01*
X68293714Y-79900714D01*
X68222285Y-79757857D01*
X68222285Y-79329286D01*
X68293714Y-79186429D01*
X68365142Y-79115000D01*
X68508000Y-79043571D01*
X68722285Y-79043571D01*
X68865142Y-79115000D01*
X68936571Y-79186429D01*
X69008000Y-79329286D01*
X69008000Y-79757857D01*
X68936571Y-79900714D01*
X68865142Y-79972143D01*
X68722285Y-80043571D01*
X68508000Y-80043571D01*
X69650857Y-79043571D02*
X69650857Y-80043571D01*
X69650857Y-79186429D02*
X69722285Y-79115000D01*
X69865143Y-79043571D01*
X70079428Y-79043571D01*
X70222285Y-79115000D01*
X70293714Y-79257857D01*
X70293714Y-80043571D01*
X72936571Y-80043571D02*
X72079428Y-80043571D01*
X72508000Y-80043571D02*
X72508000Y-78543571D01*
X72365143Y-78757857D01*
X72222285Y-78900714D01*
X72079428Y-78972143D01*
X73579428Y-79900714D02*
X73650856Y-79972143D01*
X73579428Y-80043571D01*
X73507999Y-79972143D01*
X73579428Y-79900714D01*
X73579428Y-80043571D01*
X74579428Y-78543571D02*
X74722285Y-78543571D01*
X74865142Y-78615000D01*
X74936571Y-78686429D01*
X75008000Y-78829286D01*
X75079428Y-79115000D01*
X75079428Y-79472143D01*
X75008000Y-79757857D01*
X74936571Y-79900714D01*
X74865142Y-79972143D01*
X74722285Y-80043571D01*
X74579428Y-80043571D01*
X74436571Y-79972143D01*
X74365142Y-79900714D01*
X74293714Y-79757857D01*
X74222285Y-79472143D01*
X74222285Y-79115000D01*
X74293714Y-78829286D01*
X74365142Y-78686429D01*
X74436571Y-78615000D01*
X74579428Y-78543571D01*
X77793713Y-79329286D02*
X77722285Y-79257857D01*
X77579428Y-79186429D01*
X77436570Y-79186429D01*
X77293713Y-79257857D01*
X77222285Y-79329286D01*
X77150856Y-79472143D01*
X77150856Y-79615000D01*
X77222285Y-79757857D01*
X77293713Y-79829286D01*
X77436570Y-79900714D01*
X77579428Y-79900714D01*
X77722285Y-79829286D01*
X77793713Y-79757857D01*
X77793713Y-79186429D02*
X77793713Y-79757857D01*
X77865142Y-79829286D01*
X77936570Y-79829286D01*
X78079428Y-79757857D01*
X78150856Y-79615000D01*
X78150856Y-79257857D01*
X78007999Y-79043571D01*
X77793713Y-78900714D01*
X77507999Y-78829286D01*
X77222285Y-78900714D01*
X77007999Y-79043571D01*
X76865142Y-79257857D01*
X76793713Y-79543571D01*
X76865142Y-79829286D01*
X77007999Y-80043571D01*
X77222285Y-80186429D01*
X77507999Y-80257857D01*
X77793713Y-80186429D01*
X78007999Y-80043571D01*
X79865141Y-78686429D02*
X79936570Y-78615000D01*
X80079427Y-78543571D01*
X80436570Y-78543571D01*
X80579427Y-78615000D01*
X80650856Y-78686429D01*
X80722284Y-78829286D01*
X80722284Y-78972143D01*
X80650856Y-79186429D01*
X79793713Y-80043571D01*
X80722284Y-80043571D01*
X81650855Y-78543571D02*
X81793712Y-78543571D01*
X81936569Y-78615000D01*
X82007998Y-78686429D01*
X82079427Y-78829286D01*
X82150855Y-79115000D01*
X82150855Y-79472143D01*
X82079427Y-79757857D01*
X82007998Y-79900714D01*
X81936569Y-79972143D01*
X81793712Y-80043571D01*
X81650855Y-80043571D01*
X81507998Y-79972143D01*
X81436569Y-79900714D01*
X81365141Y-79757857D01*
X81293712Y-79472143D01*
X81293712Y-79115000D01*
X81365141Y-78829286D01*
X81436569Y-78686429D01*
X81507998Y-78615000D01*
X81650855Y-78543571D01*
X83579426Y-80043571D02*
X82722283Y-80043571D01*
X83150855Y-80043571D02*
X83150855Y-78543571D01*
X83007998Y-78757857D01*
X82865140Y-78900714D01*
X82722283Y-78972143D01*
X84436569Y-79186429D02*
X84293711Y-79115000D01*
X84222283Y-79043571D01*
X84150854Y-78900714D01*
X84150854Y-78829286D01*
X84222283Y-78686429D01*
X84293711Y-78615000D01*
X84436569Y-78543571D01*
X84722283Y-78543571D01*
X84865140Y-78615000D01*
X84936569Y-78686429D01*
X85007997Y-78829286D01*
X85007997Y-78900714D01*
X84936569Y-79043571D01*
X84865140Y-79115000D01*
X84722283Y-79186429D01*
X84436569Y-79186429D01*
X84293711Y-79257857D01*
X84222283Y-79329286D01*
X84150854Y-79472143D01*
X84150854Y-79757857D01*
X84222283Y-79900714D01*
X84293711Y-79972143D01*
X84436569Y-80043571D01*
X84722283Y-80043571D01*
X84865140Y-79972143D01*
X84936569Y-79900714D01*
X85007997Y-79757857D01*
X85007997Y-79472143D01*
X84936569Y-79329286D01*
X84865140Y-79257857D01*
X84722283Y-79186429D01*
X63293714Y-83165000D02*
X63222286Y-83093571D01*
X63079429Y-82879286D01*
X63008000Y-82736429D01*
X62936571Y-82522143D01*
X62865143Y-82165000D01*
X62865143Y-81879286D01*
X62936571Y-81522143D01*
X63008000Y-81307857D01*
X63079429Y-81165000D01*
X63222286Y-80950714D01*
X63293714Y-80879286D01*
X64508000Y-82522143D02*
X64365143Y-82593571D01*
X64079429Y-82593571D01*
X63936571Y-82522143D01*
X63865143Y-82450714D01*
X63793714Y-82307857D01*
X63793714Y-81879286D01*
X63865143Y-81736429D01*
X63936571Y-81665000D01*
X64079429Y-81593571D01*
X64365143Y-81593571D01*
X64508000Y-81665000D01*
X65008000Y-83165000D02*
X65079428Y-83093571D01*
X65222285Y-82879286D01*
X65293714Y-82736429D01*
X65365143Y-82522143D01*
X65436571Y-82165000D01*
X65436571Y-81879286D01*
X65365143Y-81522143D01*
X65293714Y-81307857D01*
X65222285Y-81165000D01*
X65079428Y-80950714D01*
X65008000Y-80879286D01*
X67293714Y-82593571D02*
X67293714Y-81093571D01*
X67293714Y-81807857D02*
X68150857Y-81807857D01*
X68150857Y-82593571D02*
X68150857Y-81093571D01*
X68865143Y-82593571D02*
X68865143Y-81593571D01*
X68865143Y-81093571D02*
X68793714Y-81165000D01*
X68865143Y-81236429D01*
X68936571Y-81165000D01*
X68865143Y-81093571D01*
X68865143Y-81236429D01*
X69579429Y-82593571D02*
X69579429Y-81593571D01*
X69579429Y-81879286D02*
X69650857Y-81736429D01*
X69722286Y-81665000D01*
X69865143Y-81593571D01*
X70008000Y-81593571D01*
X70722286Y-82593571D02*
X70579428Y-82522143D01*
X70508000Y-82450714D01*
X70436571Y-82307857D01*
X70436571Y-81879286D01*
X70508000Y-81736429D01*
X70579428Y-81665000D01*
X70722286Y-81593571D01*
X70936571Y-81593571D01*
X71079428Y-81665000D01*
X71150857Y-81736429D01*
X71222286Y-81879286D01*
X71222286Y-82307857D01*
X71150857Y-82450714D01*
X71079428Y-82522143D01*
X70936571Y-82593571D01*
X70722286Y-82593571D01*
X71793714Y-82522143D02*
X71936571Y-82593571D01*
X72222286Y-82593571D01*
X72365143Y-82522143D01*
X72436571Y-82379286D01*
X72436571Y-82307857D01*
X72365143Y-82165000D01*
X72222286Y-82093571D01*
X72008000Y-82093571D01*
X71865143Y-82022143D01*
X71793714Y-81879286D01*
X71793714Y-81807857D01*
X71865143Y-81665000D01*
X72008000Y-81593571D01*
X72222286Y-81593571D01*
X72365143Y-81665000D01*
X73079429Y-82593571D02*
X73079429Y-81093571D01*
X73722286Y-82593571D02*
X73722286Y-81807857D01*
X73650857Y-81665000D01*
X73508000Y-81593571D01*
X73293715Y-81593571D01*
X73150857Y-81665000D01*
X73079429Y-81736429D01*
X74436572Y-82593571D02*
X74436572Y-81593571D01*
X74436572Y-81093571D02*
X74365143Y-81165000D01*
X74436572Y-81236429D01*
X74508000Y-81165000D01*
X74436572Y-81093571D01*
X74436572Y-81236429D01*
X76293715Y-82593571D02*
X76293715Y-81093571D01*
X76865144Y-81593571D02*
X77150858Y-82593571D01*
X77436572Y-81879286D01*
X77722287Y-82593571D01*
X78008001Y-81593571D01*
X79222287Y-82593571D02*
X79222287Y-81807857D01*
X79150858Y-81665000D01*
X79008001Y-81593571D01*
X78722287Y-81593571D01*
X78579430Y-81665000D01*
X79222287Y-82522143D02*
X79079430Y-82593571D01*
X78722287Y-82593571D01*
X78579430Y-82522143D01*
X78508001Y-82379286D01*
X78508001Y-82236429D01*
X78579430Y-82093571D01*
X78722287Y-82022143D01*
X79079430Y-82022143D01*
X79222287Y-81950714D01*
X79722287Y-81593571D02*
X80293716Y-81593571D01*
X79936573Y-81093571D02*
X79936573Y-82379286D01*
X80008001Y-82522143D01*
X80150859Y-82593571D01*
X80293716Y-82593571D01*
X81436573Y-82593571D02*
X81436573Y-81807857D01*
X81365144Y-81665000D01*
X81222287Y-81593571D01*
X80936573Y-81593571D01*
X80793716Y-81665000D01*
X81436573Y-82522143D02*
X81293716Y-82593571D01*
X80936573Y-82593571D01*
X80793716Y-82522143D01*
X80722287Y-82379286D01*
X80722287Y-82236429D01*
X80793716Y-82093571D01*
X80936573Y-82022143D01*
X81293716Y-82022143D01*
X81436573Y-81950714D01*
X112793714Y-77422143D02*
X113008000Y-77493571D01*
X113365143Y-77493571D01*
X113508000Y-77422143D01*
X113579429Y-77350714D01*
X113650857Y-77207857D01*
X113650857Y-77065000D01*
X113579429Y-76922143D01*
X113508000Y-76850714D01*
X113365143Y-76779286D01*
X113079429Y-76707857D01*
X112936571Y-76636429D01*
X112865143Y-76565000D01*
X112793714Y-76422143D01*
X112793714Y-76279286D01*
X112865143Y-76136429D01*
X112936571Y-76065000D01*
X113079429Y-75993571D01*
X113436571Y-75993571D01*
X113650857Y-76065000D01*
X114865142Y-77422143D02*
X114722285Y-77493571D01*
X114436571Y-77493571D01*
X114293714Y-77422143D01*
X114222285Y-77279286D01*
X114222285Y-76707857D01*
X114293714Y-76565000D01*
X114436571Y-76493571D01*
X114722285Y-76493571D01*
X114865142Y-76565000D01*
X114936571Y-76707857D01*
X114936571Y-76850714D01*
X114222285Y-76993571D01*
X115579428Y-77493571D02*
X115579428Y-76493571D01*
X115579428Y-76779286D02*
X115650856Y-76636429D01*
X115722285Y-76565000D01*
X115865142Y-76493571D01*
X116007999Y-76493571D01*
X116365142Y-76493571D02*
X116722285Y-77493571D01*
X117079427Y-76493571D01*
X117865142Y-77493571D02*
X117722284Y-77422143D01*
X117650856Y-77350714D01*
X117579427Y-77207857D01*
X117579427Y-76779286D01*
X117650856Y-76636429D01*
X117722284Y-76565000D01*
X117865142Y-76493571D01*
X118079427Y-76493571D01*
X118222284Y-76565000D01*
X118293713Y-76636429D01*
X118365142Y-76779286D01*
X118365142Y-77207857D01*
X118293713Y-77350714D01*
X118222284Y-77422143D01*
X118079427Y-77493571D01*
X117865142Y-77493571D01*
X119007999Y-76922143D02*
X120150856Y-76922143D01*
X121293713Y-75993571D02*
X121293713Y-77065000D01*
X121222285Y-77279286D01*
X121079428Y-77422143D01*
X120865142Y-77493571D01*
X120722285Y-77493571D01*
X122222285Y-77493571D02*
X122079427Y-77422143D01*
X122007999Y-77350714D01*
X121936570Y-77207857D01*
X121936570Y-76779286D01*
X122007999Y-76636429D01*
X122079427Y-76565000D01*
X122222285Y-76493571D01*
X122436570Y-76493571D01*
X122579427Y-76565000D01*
X122650856Y-76636429D01*
X122722285Y-76779286D01*
X122722285Y-77207857D01*
X122650856Y-77350714D01*
X122579427Y-77422143D01*
X122436570Y-77493571D01*
X122222285Y-77493571D01*
X123222285Y-76493571D02*
X123579428Y-77493571D01*
X123936570Y-76493571D02*
X123579428Y-77493571D01*
X123436570Y-77850714D01*
X123365142Y-77922143D01*
X123222285Y-77993571D01*
X124436570Y-77422143D02*
X124579427Y-77493571D01*
X124865142Y-77493571D01*
X125007999Y-77422143D01*
X125079427Y-77279286D01*
X125079427Y-77207857D01*
X125007999Y-77065000D01*
X124865142Y-76993571D01*
X124650856Y-76993571D01*
X124507999Y-76922143D01*
X124436570Y-76779286D01*
X124436570Y-76707857D01*
X124507999Y-76565000D01*
X124650856Y-76493571D01*
X124865142Y-76493571D01*
X125007999Y-76565000D01*
X125507999Y-76493571D02*
X126079428Y-76493571D01*
X125722285Y-75993571D02*
X125722285Y-77279286D01*
X125793713Y-77422143D01*
X125936571Y-77493571D01*
X126079428Y-77493571D01*
X126579428Y-77493571D02*
X126579428Y-76493571D01*
X126579428Y-75993571D02*
X126507999Y-76065000D01*
X126579428Y-76136429D01*
X126650856Y-76065000D01*
X126579428Y-75993571D01*
X126579428Y-76136429D01*
X127936571Y-77422143D02*
X127793714Y-77493571D01*
X127508000Y-77493571D01*
X127365142Y-77422143D01*
X127293714Y-77350714D01*
X127222285Y-77207857D01*
X127222285Y-76779286D01*
X127293714Y-76636429D01*
X127365142Y-76565000D01*
X127508000Y-76493571D01*
X127793714Y-76493571D01*
X127936571Y-76565000D01*
X128579428Y-77493571D02*
X128579428Y-75993571D01*
X128722285Y-76922143D02*
X129150856Y-77493571D01*
X129150856Y-76493571D02*
X128579428Y-77065000D01*
X130865142Y-77065000D02*
X131579428Y-77065000D01*
X130722285Y-77493571D02*
X131222285Y-75993571D01*
X131722285Y-77493571D01*
X132222285Y-77493571D02*
X132222285Y-76493571D01*
X132222285Y-76779286D02*
X132293713Y-76636429D01*
X132365142Y-76565000D01*
X132507999Y-76493571D01*
X132650856Y-76493571D01*
X133793713Y-77493571D02*
X133793713Y-75993571D01*
X133793713Y-77422143D02*
X133650856Y-77493571D01*
X133365142Y-77493571D01*
X133222284Y-77422143D01*
X133150856Y-77350714D01*
X133079427Y-77207857D01*
X133079427Y-76779286D01*
X133150856Y-76636429D01*
X133222284Y-76565000D01*
X133365142Y-76493571D01*
X133650856Y-76493571D01*
X133793713Y-76565000D01*
X135150856Y-76493571D02*
X135150856Y-77493571D01*
X134507999Y-76493571D02*
X134507999Y-77279286D01*
X134579427Y-77422143D01*
X134722285Y-77493571D01*
X134936570Y-77493571D01*
X135079427Y-77422143D01*
X135150856Y-77350714D01*
X135865142Y-77493571D02*
X135865142Y-76493571D01*
X135865142Y-75993571D02*
X135793713Y-76065000D01*
X135865142Y-76136429D01*
X135936570Y-76065000D01*
X135865142Y-75993571D01*
X135865142Y-76136429D01*
X136579428Y-76493571D02*
X136579428Y-77493571D01*
X136579428Y-76636429D02*
X136650856Y-76565000D01*
X136793714Y-76493571D01*
X137007999Y-76493571D01*
X137150856Y-76565000D01*
X137222285Y-76707857D01*
X137222285Y-77493571D01*
X138150857Y-77493571D02*
X138007999Y-77422143D01*
X137936571Y-77350714D01*
X137865142Y-77207857D01*
X137865142Y-76779286D01*
X137936571Y-76636429D01*
X138007999Y-76565000D01*
X138150857Y-76493571D01*
X138365142Y-76493571D01*
X138507999Y-76565000D01*
X138579428Y-76636429D01*
X138650857Y-76779286D01*
X138650857Y-77207857D01*
X138579428Y-77350714D01*
X138507999Y-77422143D01*
X138365142Y-77493571D01*
X138150857Y-77493571D01*
X140365142Y-77422143D02*
X140507999Y-77493571D01*
X140793714Y-77493571D01*
X140936571Y-77422143D01*
X141007999Y-77279286D01*
X141007999Y-77207857D01*
X140936571Y-77065000D01*
X140793714Y-76993571D01*
X140579428Y-76993571D01*
X140436571Y-76922143D01*
X140365142Y-76779286D01*
X140365142Y-76707857D01*
X140436571Y-76565000D01*
X140579428Y-76493571D01*
X140793714Y-76493571D01*
X140936571Y-76565000D01*
X141650857Y-77493571D02*
X141650857Y-75993571D01*
X142293714Y-77493571D02*
X142293714Y-76707857D01*
X142222285Y-76565000D01*
X142079428Y-76493571D01*
X141865143Y-76493571D01*
X141722285Y-76565000D01*
X141650857Y-76636429D01*
X143008000Y-77493571D02*
X143008000Y-76493571D01*
X143008000Y-75993571D02*
X142936571Y-76065000D01*
X143008000Y-76136429D01*
X143079428Y-76065000D01*
X143008000Y-75993571D01*
X143008000Y-76136429D01*
X144293714Y-77422143D02*
X144150857Y-77493571D01*
X143865143Y-77493571D01*
X143722286Y-77422143D01*
X143650857Y-77279286D01*
X143650857Y-76707857D01*
X143722286Y-76565000D01*
X143865143Y-76493571D01*
X144150857Y-76493571D01*
X144293714Y-76565000D01*
X144365143Y-76707857D01*
X144365143Y-76850714D01*
X143650857Y-76993571D01*
X145222286Y-77493571D02*
X145079428Y-77422143D01*
X145008000Y-77279286D01*
X145008000Y-75993571D01*
X146436571Y-77493571D02*
X146436571Y-75993571D01*
X146436571Y-77422143D02*
X146293714Y-77493571D01*
X146008000Y-77493571D01*
X145865142Y-77422143D01*
X145793714Y-77350714D01*
X145722285Y-77207857D01*
X145722285Y-76779286D01*
X145793714Y-76636429D01*
X145865142Y-76565000D01*
X146008000Y-76493571D01*
X146293714Y-76493571D01*
X146436571Y-76565000D01*
X112650857Y-78543571D02*
X113150857Y-80043571D01*
X113650857Y-78543571D01*
X114722285Y-79972143D02*
X114579428Y-80043571D01*
X114293714Y-80043571D01*
X114150857Y-79972143D01*
X114079428Y-79829286D01*
X114079428Y-79257857D01*
X114150857Y-79115000D01*
X114293714Y-79043571D01*
X114579428Y-79043571D01*
X114722285Y-79115000D01*
X114793714Y-79257857D01*
X114793714Y-79400714D01*
X114079428Y-79543571D01*
X115436571Y-80043571D02*
X115436571Y-79043571D01*
X115436571Y-79329286D02*
X115507999Y-79186429D01*
X115579428Y-79115000D01*
X115722285Y-79043571D01*
X115865142Y-79043571D01*
X116293713Y-79972143D02*
X116436570Y-80043571D01*
X116722285Y-80043571D01*
X116865142Y-79972143D01*
X116936570Y-79829286D01*
X116936570Y-79757857D01*
X116865142Y-79615000D01*
X116722285Y-79543571D01*
X116507999Y-79543571D01*
X116365142Y-79472143D01*
X116293713Y-79329286D01*
X116293713Y-79257857D01*
X116365142Y-79115000D01*
X116507999Y-79043571D01*
X116722285Y-79043571D01*
X116865142Y-79115000D01*
X117579428Y-80043571D02*
X117579428Y-79043571D01*
X117579428Y-78543571D02*
X117507999Y-78615000D01*
X117579428Y-78686429D01*
X117650856Y-78615000D01*
X117579428Y-78543571D01*
X117579428Y-78686429D01*
X118508000Y-80043571D02*
X118365142Y-79972143D01*
X118293714Y-79900714D01*
X118222285Y-79757857D01*
X118222285Y-79329286D01*
X118293714Y-79186429D01*
X118365142Y-79115000D01*
X118508000Y-79043571D01*
X118722285Y-79043571D01*
X118865142Y-79115000D01*
X118936571Y-79186429D01*
X119008000Y-79329286D01*
X119008000Y-79757857D01*
X118936571Y-79900714D01*
X118865142Y-79972143D01*
X118722285Y-80043571D01*
X118508000Y-80043571D01*
X119650857Y-79043571D02*
X119650857Y-80043571D01*
X119650857Y-79186429D02*
X119722285Y-79115000D01*
X119865143Y-79043571D01*
X120079428Y-79043571D01*
X120222285Y-79115000D01*
X120293714Y-79257857D01*
X120293714Y-80043571D01*
X122936571Y-80043571D02*
X122079428Y-80043571D01*
X122508000Y-80043571D02*
X122508000Y-78543571D01*
X122365143Y-78757857D01*
X122222285Y-78900714D01*
X122079428Y-78972143D01*
X123579428Y-79900714D02*
X123650856Y-79972143D01*
X123579428Y-80043571D01*
X123507999Y-79972143D01*
X123579428Y-79900714D01*
X123579428Y-80043571D01*
X124579428Y-78543571D02*
X124722285Y-78543571D01*
X124865142Y-78615000D01*
X124936571Y-78686429D01*
X125008000Y-78829286D01*
X125079428Y-79115000D01*
X125079428Y-79472143D01*
X125008000Y-79757857D01*
X124936571Y-79900714D01*
X124865142Y-79972143D01*
X124722285Y-80043571D01*
X124579428Y-80043571D01*
X124436571Y-79972143D01*
X124365142Y-79900714D01*
X124293714Y-79757857D01*
X124222285Y-79472143D01*
X124222285Y-79115000D01*
X124293714Y-78829286D01*
X124365142Y-78686429D01*
X124436571Y-78615000D01*
X124579428Y-78543571D01*
X127793713Y-79329286D02*
X127722285Y-79257857D01*
X127579428Y-79186429D01*
X127436570Y-79186429D01*
X127293713Y-79257857D01*
X127222285Y-79329286D01*
X127150856Y-79472143D01*
X127150856Y-79615000D01*
X127222285Y-79757857D01*
X127293713Y-79829286D01*
X127436570Y-79900714D01*
X127579428Y-79900714D01*
X127722285Y-79829286D01*
X127793713Y-79757857D01*
X127793713Y-79186429D02*
X127793713Y-79757857D01*
X127865142Y-79829286D01*
X127936570Y-79829286D01*
X128079428Y-79757857D01*
X128150856Y-79615000D01*
X128150856Y-79257857D01*
X128007999Y-79043571D01*
X127793713Y-78900714D01*
X127507999Y-78829286D01*
X127222285Y-78900714D01*
X127007999Y-79043571D01*
X126865142Y-79257857D01*
X126793713Y-79543571D01*
X126865142Y-79829286D01*
X127007999Y-80043571D01*
X127222285Y-80186429D01*
X127507999Y-80257857D01*
X127793713Y-80186429D01*
X128007999Y-80043571D01*
X129865141Y-78686429D02*
X129936570Y-78615000D01*
X130079427Y-78543571D01*
X130436570Y-78543571D01*
X130579427Y-78615000D01*
X130650856Y-78686429D01*
X130722284Y-78829286D01*
X130722284Y-78972143D01*
X130650856Y-79186429D01*
X129793713Y-80043571D01*
X130722284Y-80043571D01*
X131650855Y-78543571D02*
X131793712Y-78543571D01*
X131936569Y-78615000D01*
X132007998Y-78686429D01*
X132079427Y-78829286D01*
X132150855Y-79115000D01*
X132150855Y-79472143D01*
X132079427Y-79757857D01*
X132007998Y-79900714D01*
X131936569Y-79972143D01*
X131793712Y-80043571D01*
X131650855Y-80043571D01*
X131507998Y-79972143D01*
X131436569Y-79900714D01*
X131365141Y-79757857D01*
X131293712Y-79472143D01*
X131293712Y-79115000D01*
X131365141Y-78829286D01*
X131436569Y-78686429D01*
X131507998Y-78615000D01*
X131650855Y-78543571D01*
X133579426Y-80043571D02*
X132722283Y-80043571D01*
X133150855Y-80043571D02*
X133150855Y-78543571D01*
X133007998Y-78757857D01*
X132865140Y-78900714D01*
X132722283Y-78972143D01*
X134436569Y-79186429D02*
X134293711Y-79115000D01*
X134222283Y-79043571D01*
X134150854Y-78900714D01*
X134150854Y-78829286D01*
X134222283Y-78686429D01*
X134293711Y-78615000D01*
X134436569Y-78543571D01*
X134722283Y-78543571D01*
X134865140Y-78615000D01*
X134936569Y-78686429D01*
X135007997Y-78829286D01*
X135007997Y-78900714D01*
X134936569Y-79043571D01*
X134865140Y-79115000D01*
X134722283Y-79186429D01*
X134436569Y-79186429D01*
X134293711Y-79257857D01*
X134222283Y-79329286D01*
X134150854Y-79472143D01*
X134150854Y-79757857D01*
X134222283Y-79900714D01*
X134293711Y-79972143D01*
X134436569Y-80043571D01*
X134722283Y-80043571D01*
X134865140Y-79972143D01*
X134936569Y-79900714D01*
X135007997Y-79757857D01*
X135007997Y-79472143D01*
X134936569Y-79329286D01*
X134865140Y-79257857D01*
X134722283Y-79186429D01*
X113293714Y-83165000D02*
X113222286Y-83093571D01*
X113079429Y-82879286D01*
X113008000Y-82736429D01*
X112936571Y-82522143D01*
X112865143Y-82165000D01*
X112865143Y-81879286D01*
X112936571Y-81522143D01*
X113008000Y-81307857D01*
X113079429Y-81165000D01*
X113222286Y-80950714D01*
X113293714Y-80879286D01*
X114508000Y-82522143D02*
X114365143Y-82593571D01*
X114079429Y-82593571D01*
X113936571Y-82522143D01*
X113865143Y-82450714D01*
X113793714Y-82307857D01*
X113793714Y-81879286D01*
X113865143Y-81736429D01*
X113936571Y-81665000D01*
X114079429Y-81593571D01*
X114365143Y-81593571D01*
X114508000Y-81665000D01*
X115008000Y-83165000D02*
X115079428Y-83093571D01*
X115222285Y-82879286D01*
X115293714Y-82736429D01*
X115365143Y-82522143D01*
X115436571Y-82165000D01*
X115436571Y-81879286D01*
X115365143Y-81522143D01*
X115293714Y-81307857D01*
X115222285Y-81165000D01*
X115079428Y-80950714D01*
X115008000Y-80879286D01*
X117293714Y-82593571D02*
X117293714Y-81093571D01*
X117293714Y-81807857D02*
X118150857Y-81807857D01*
X118150857Y-82593571D02*
X118150857Y-81093571D01*
X118865143Y-82593571D02*
X118865143Y-81593571D01*
X118865143Y-81093571D02*
X118793714Y-81165000D01*
X118865143Y-81236429D01*
X118936571Y-81165000D01*
X118865143Y-81093571D01*
X118865143Y-81236429D01*
X119579429Y-82593571D02*
X119579429Y-81593571D01*
X119579429Y-81879286D02*
X119650857Y-81736429D01*
X119722286Y-81665000D01*
X119865143Y-81593571D01*
X120008000Y-81593571D01*
X120722286Y-82593571D02*
X120579428Y-82522143D01*
X120508000Y-82450714D01*
X120436571Y-82307857D01*
X120436571Y-81879286D01*
X120508000Y-81736429D01*
X120579428Y-81665000D01*
X120722286Y-81593571D01*
X120936571Y-81593571D01*
X121079428Y-81665000D01*
X121150857Y-81736429D01*
X121222286Y-81879286D01*
X121222286Y-82307857D01*
X121150857Y-82450714D01*
X121079428Y-82522143D01*
X120936571Y-82593571D01*
X120722286Y-82593571D01*
X121793714Y-82522143D02*
X121936571Y-82593571D01*
X122222286Y-82593571D01*
X122365143Y-82522143D01*
X122436571Y-82379286D01*
X122436571Y-82307857D01*
X122365143Y-82165000D01*
X122222286Y-82093571D01*
X122008000Y-82093571D01*
X121865143Y-82022143D01*
X121793714Y-81879286D01*
X121793714Y-81807857D01*
X121865143Y-81665000D01*
X122008000Y-81593571D01*
X122222286Y-81593571D01*
X122365143Y-81665000D01*
X123079429Y-82593571D02*
X123079429Y-81093571D01*
X123722286Y-82593571D02*
X123722286Y-81807857D01*
X123650857Y-81665000D01*
X123508000Y-81593571D01*
X123293715Y-81593571D01*
X123150857Y-81665000D01*
X123079429Y-81736429D01*
X124436572Y-82593571D02*
X124436572Y-81593571D01*
X124436572Y-81093571D02*
X124365143Y-81165000D01*
X124436572Y-81236429D01*
X124508000Y-81165000D01*
X124436572Y-81093571D01*
X124436572Y-81236429D01*
X126293715Y-82593571D02*
X126293715Y-81093571D01*
X126865144Y-81593571D02*
X127150858Y-82593571D01*
X127436572Y-81879286D01*
X127722287Y-82593571D01*
X128008001Y-81593571D01*
X129222287Y-82593571D02*
X129222287Y-81807857D01*
X129150858Y-81665000D01*
X129008001Y-81593571D01*
X128722287Y-81593571D01*
X128579430Y-81665000D01*
X129222287Y-82522143D02*
X129079430Y-82593571D01*
X128722287Y-82593571D01*
X128579430Y-82522143D01*
X128508001Y-82379286D01*
X128508001Y-82236429D01*
X128579430Y-82093571D01*
X128722287Y-82022143D01*
X129079430Y-82022143D01*
X129222287Y-81950714D01*
X129722287Y-81593571D02*
X130293716Y-81593571D01*
X129936573Y-81093571D02*
X129936573Y-82379286D01*
X130008001Y-82522143D01*
X130150859Y-82593571D01*
X130293716Y-82593571D01*
X131436573Y-82593571D02*
X131436573Y-81807857D01*
X131365144Y-81665000D01*
X131222287Y-81593571D01*
X130936573Y-81593571D01*
X130793716Y-81665000D01*
X131436573Y-82522143D02*
X131293716Y-82593571D01*
X130936573Y-82593571D01*
X130793716Y-82522143D01*
X130722287Y-82379286D01*
X130722287Y-82236429D01*
X130793716Y-82093571D01*
X130936573Y-82022143D01*
X131293716Y-82022143D01*
X131436573Y-81950714D01*
M02*
