G04 #@! TF.FileFunction,Soldermask,Top*
%FSLAX46Y46*%
G04 Gerber Fmt 4.6, Leading zero omitted, Abs format (unit mm)*
G04 Created by KiCad (PCBNEW 4.0.6) date 02/07/18 21:53:05*
%MOMM*%
%LPD*%
G01*
G04 APERTURE LIST*
%ADD10C,0.100000*%
%ADD11C,2.000000*%
%ADD12C,3.000000*%
%ADD13O,1.727200X2.032000*%
%ADD14R,2.000000X2.000000*%
G04 APERTURE END LIST*
D10*
D11*
X99418000Y-136665000D03*
X99418000Y-131585000D03*
X99418000Y-126505000D03*
X63858000Y-117075000D03*
X66398000Y-139935000D03*
X63858000Y-139935000D03*
X66398000Y-117075000D03*
X86718000Y-139935000D03*
X89258000Y-139935000D03*
X86718000Y-117075000D03*
X89258000Y-117075000D03*
D12*
X61318000Y-120885000D03*
X61318000Y-136125000D03*
X91798000Y-136125000D03*
X91798000Y-120885000D03*
D13*
X68938000Y-148825000D03*
X71478000Y-148825000D03*
X74018000Y-148825000D03*
X76558000Y-148825000D03*
X79098000Y-148825000D03*
X81638000Y-148825000D03*
X84178000Y-148825000D03*
X86718000Y-148825000D03*
X91798000Y-148825000D03*
X94338000Y-148825000D03*
X96878000Y-148825000D03*
X99418000Y-148825000D03*
X101958000Y-148825000D03*
X104498000Y-148825000D03*
X59794000Y-100565000D03*
X62334000Y-100565000D03*
X64874000Y-100565000D03*
X67414000Y-100565000D03*
X69954000Y-100565000D03*
X72494000Y-100565000D03*
X75034000Y-100565000D03*
X77574000Y-100565000D03*
X80114000Y-100565000D03*
X82654000Y-100565000D03*
X86718000Y-100565000D03*
X89258000Y-100565000D03*
X91798000Y-100565000D03*
X94338000Y-100565000D03*
X96878000Y-100565000D03*
X99418000Y-100565000D03*
X101958000Y-100565000D03*
X104498000Y-100565000D03*
D14*
X98148000Y-106185000D03*
D11*
X100688000Y-106185000D03*
X103228000Y-106185000D03*
D14*
X98148000Y-141745000D03*
D11*
X100688000Y-141745000D03*
X103228000Y-141745000D03*
X99418000Y-121425000D03*
X99418000Y-116345000D03*
X99418000Y-111265000D03*
X77828000Y-110725000D03*
X77828000Y-108185000D03*
X77828000Y-105645000D03*
X82908000Y-110725000D03*
X82908000Y-108185000D03*
X82908000Y-105645000D03*
X67668000Y-110725000D03*
X65128000Y-110725000D03*
X67668000Y-108185000D03*
X65128000Y-108185000D03*
X67668000Y-105645000D03*
X65128000Y-105645000D03*
X60048000Y-106185000D03*
X60048000Y-108725000D03*
X149418000Y-136665000D03*
X149418000Y-131585000D03*
X149418000Y-126505000D03*
X113858000Y-117075000D03*
X116398000Y-139935000D03*
X113858000Y-139935000D03*
X116398000Y-117075000D03*
X136718000Y-139935000D03*
X139258000Y-139935000D03*
X136718000Y-117075000D03*
X139258000Y-117075000D03*
D12*
X111318000Y-120885000D03*
X111318000Y-136125000D03*
X141798000Y-136125000D03*
X141798000Y-120885000D03*
D13*
X118938000Y-148825000D03*
X121478000Y-148825000D03*
X124018000Y-148825000D03*
X126558000Y-148825000D03*
X129098000Y-148825000D03*
X131638000Y-148825000D03*
X134178000Y-148825000D03*
X136718000Y-148825000D03*
X141798000Y-148825000D03*
X144338000Y-148825000D03*
X146878000Y-148825000D03*
X149418000Y-148825000D03*
X151958000Y-148825000D03*
X154498000Y-148825000D03*
X109794000Y-100565000D03*
X112334000Y-100565000D03*
X114874000Y-100565000D03*
X117414000Y-100565000D03*
X119954000Y-100565000D03*
X122494000Y-100565000D03*
X125034000Y-100565000D03*
X127574000Y-100565000D03*
X130114000Y-100565000D03*
X132654000Y-100565000D03*
X136718000Y-100565000D03*
X139258000Y-100565000D03*
X141798000Y-100565000D03*
X144338000Y-100565000D03*
X146878000Y-100565000D03*
X149418000Y-100565000D03*
X151958000Y-100565000D03*
X154498000Y-100565000D03*
D14*
X148148000Y-106185000D03*
D11*
X150688000Y-106185000D03*
X153228000Y-106185000D03*
D14*
X148148000Y-141745000D03*
D11*
X150688000Y-141745000D03*
X153228000Y-141745000D03*
X149418000Y-121425000D03*
X149418000Y-116345000D03*
X149418000Y-111265000D03*
X127828000Y-110725000D03*
X127828000Y-108185000D03*
X127828000Y-105645000D03*
X132908000Y-110725000D03*
X132908000Y-108185000D03*
X132908000Y-105645000D03*
X117668000Y-110725000D03*
X115128000Y-110725000D03*
X117668000Y-108185000D03*
X115128000Y-108185000D03*
X117668000Y-105645000D03*
X115128000Y-105645000D03*
X110048000Y-106185000D03*
X110048000Y-108725000D03*
X99418000Y-86665000D03*
X99418000Y-81585000D03*
X99418000Y-76505000D03*
X63858000Y-67075000D03*
X66398000Y-89935000D03*
X63858000Y-89935000D03*
X66398000Y-67075000D03*
X86718000Y-89935000D03*
X89258000Y-89935000D03*
X86718000Y-67075000D03*
X89258000Y-67075000D03*
D12*
X61318000Y-70885000D03*
X61318000Y-86125000D03*
X91798000Y-86125000D03*
X91798000Y-70885000D03*
D13*
X68938000Y-98825000D03*
X71478000Y-98825000D03*
X74018000Y-98825000D03*
X76558000Y-98825000D03*
X79098000Y-98825000D03*
X81638000Y-98825000D03*
X84178000Y-98825000D03*
X86718000Y-98825000D03*
X91798000Y-98825000D03*
X94338000Y-98825000D03*
X96878000Y-98825000D03*
X99418000Y-98825000D03*
X101958000Y-98825000D03*
X104498000Y-98825000D03*
X59794000Y-50565000D03*
X62334000Y-50565000D03*
X64874000Y-50565000D03*
X67414000Y-50565000D03*
X69954000Y-50565000D03*
X72494000Y-50565000D03*
X75034000Y-50565000D03*
X77574000Y-50565000D03*
X80114000Y-50565000D03*
X82654000Y-50565000D03*
X86718000Y-50565000D03*
X89258000Y-50565000D03*
X91798000Y-50565000D03*
X94338000Y-50565000D03*
X96878000Y-50565000D03*
X99418000Y-50565000D03*
X101958000Y-50565000D03*
X104498000Y-50565000D03*
D14*
X98148000Y-56185000D03*
D11*
X100688000Y-56185000D03*
X103228000Y-56185000D03*
D14*
X98148000Y-91745000D03*
D11*
X100688000Y-91745000D03*
X103228000Y-91745000D03*
X99418000Y-71425000D03*
X99418000Y-66345000D03*
X99418000Y-61265000D03*
X77828000Y-60725000D03*
X77828000Y-58185000D03*
X77828000Y-55645000D03*
X82908000Y-60725000D03*
X82908000Y-58185000D03*
X82908000Y-55645000D03*
X67668000Y-60725000D03*
X65128000Y-60725000D03*
X67668000Y-58185000D03*
X65128000Y-58185000D03*
X67668000Y-55645000D03*
X65128000Y-55645000D03*
X60048000Y-56185000D03*
X60048000Y-58725000D03*
X149418000Y-86665000D03*
X149418000Y-81585000D03*
X149418000Y-76505000D03*
X113858000Y-67075000D03*
X116398000Y-89935000D03*
X113858000Y-89935000D03*
X116398000Y-67075000D03*
X136718000Y-89935000D03*
X139258000Y-89935000D03*
X136718000Y-67075000D03*
X139258000Y-67075000D03*
D12*
X111318000Y-70885000D03*
X111318000Y-86125000D03*
X141798000Y-86125000D03*
X141798000Y-70885000D03*
D13*
X118938000Y-98825000D03*
X121478000Y-98825000D03*
X124018000Y-98825000D03*
X126558000Y-98825000D03*
X129098000Y-98825000D03*
X131638000Y-98825000D03*
X134178000Y-98825000D03*
X136718000Y-98825000D03*
X141798000Y-98825000D03*
X144338000Y-98825000D03*
X146878000Y-98825000D03*
X149418000Y-98825000D03*
X151958000Y-98825000D03*
X154498000Y-98825000D03*
X109794000Y-50565000D03*
X112334000Y-50565000D03*
X114874000Y-50565000D03*
X117414000Y-50565000D03*
X119954000Y-50565000D03*
X122494000Y-50565000D03*
X125034000Y-50565000D03*
X127574000Y-50565000D03*
X130114000Y-50565000D03*
X132654000Y-50565000D03*
X136718000Y-50565000D03*
X139258000Y-50565000D03*
X141798000Y-50565000D03*
X144338000Y-50565000D03*
X146878000Y-50565000D03*
X149418000Y-50565000D03*
X151958000Y-50565000D03*
X154498000Y-50565000D03*
D14*
X148148000Y-56185000D03*
D11*
X150688000Y-56185000D03*
X153228000Y-56185000D03*
D14*
X148148000Y-91745000D03*
D11*
X150688000Y-91745000D03*
X153228000Y-91745000D03*
X149418000Y-71425000D03*
X149418000Y-66345000D03*
X149418000Y-61265000D03*
X127828000Y-60725000D03*
X127828000Y-58185000D03*
X127828000Y-55645000D03*
X132908000Y-60725000D03*
X132908000Y-58185000D03*
X132908000Y-55645000D03*
X117668000Y-60725000D03*
X115128000Y-60725000D03*
X117668000Y-58185000D03*
X115128000Y-58185000D03*
X117668000Y-55645000D03*
X115128000Y-55645000D03*
X110048000Y-56185000D03*
X110048000Y-58725000D03*
M02*
