G04 #@! TF.FileFunction,Legend,Top*
%FSLAX46Y46*%
G04 Gerber Fmt 4.6, Leading zero omitted, Abs format (unit mm)*
G04 Created by KiCad (PCBNEW 4.0.6) date 02/07/18 21:53:05*
%MOMM*%
%LPD*%
G01*
G04 APERTURE LIST*
%ADD10C,0.100000*%
%ADD11C,0.300000*%
%ADD12C,0.150000*%
%ADD13C,0.120000*%
G04 APERTURE END LIST*
D10*
D11*
X109722286Y-161626905D02*
X111388953Y-166626905D01*
X113055620Y-161626905D01*
X114722286Y-164722143D02*
X118531810Y-164722143D01*
X123769905Y-166150714D02*
X123531810Y-166388810D01*
X122817524Y-166626905D01*
X122341334Y-166626905D01*
X121627048Y-166388810D01*
X121150857Y-165912619D01*
X120912762Y-165436429D01*
X120674667Y-164484048D01*
X120674667Y-163769762D01*
X120912762Y-162817381D01*
X121150857Y-162341190D01*
X121627048Y-161865000D01*
X122341334Y-161626905D01*
X122817524Y-161626905D01*
X123531810Y-161865000D01*
X123769905Y-162103095D01*
X125912762Y-161626905D02*
X125912762Y-165674524D01*
X126150857Y-166150714D01*
X126388953Y-166388810D01*
X126865143Y-166626905D01*
X127817524Y-166626905D01*
X128293715Y-166388810D01*
X128531810Y-166150714D01*
X128769905Y-165674524D01*
X128769905Y-161626905D01*
X130436571Y-161626905D02*
X133293714Y-161626905D01*
X131865143Y-166626905D02*
X131865143Y-161626905D01*
D12*
X107508000Y-150365000D02*
X107508000Y-170365000D01*
X114508000Y-157365000D02*
X107508000Y-150365000D01*
X107508000Y-150365000D02*
X114508000Y-157365000D01*
X100508000Y-157365000D02*
X107508000Y-150365000D01*
D11*
X163722286Y-101626905D02*
X165388953Y-106626905D01*
X167055620Y-101626905D01*
X168722286Y-104722143D02*
X172531810Y-104722143D01*
X177769905Y-106150714D02*
X177531810Y-106388810D01*
X176817524Y-106626905D01*
X176341334Y-106626905D01*
X175627048Y-106388810D01*
X175150857Y-105912619D01*
X174912762Y-105436429D01*
X174674667Y-104484048D01*
X174674667Y-103769762D01*
X174912762Y-102817381D01*
X175150857Y-102341190D01*
X175627048Y-101865000D01*
X176341334Y-101626905D01*
X176817524Y-101626905D01*
X177531810Y-101865000D01*
X177769905Y-102103095D01*
X179912762Y-101626905D02*
X179912762Y-105674524D01*
X180150857Y-106150714D01*
X180388953Y-106388810D01*
X180865143Y-106626905D01*
X181817524Y-106626905D01*
X182293715Y-106388810D01*
X182531810Y-106150714D01*
X182769905Y-105674524D01*
X182769905Y-101626905D01*
X184436571Y-101626905D02*
X187293714Y-101626905D01*
X185865143Y-106626905D02*
X185865143Y-101626905D01*
D12*
X158508000Y-99365000D02*
X179508000Y-99365000D01*
X162508000Y-103365000D02*
X158508000Y-99365000D01*
X158508000Y-99365000D02*
X162508000Y-103365000D01*
X162508000Y-95365000D02*
X158508000Y-99365000D01*
X96211809Y-144356429D02*
X96973714Y-144356429D01*
X96592762Y-144737381D02*
X96592762Y-143975476D01*
X97926095Y-143737381D02*
X97449904Y-143737381D01*
X97402285Y-144213571D01*
X97449904Y-144165952D01*
X97545142Y-144118333D01*
X97783238Y-144118333D01*
X97878476Y-144165952D01*
X97926095Y-144213571D01*
X97973714Y-144308810D01*
X97973714Y-144546905D01*
X97926095Y-144642143D01*
X97878476Y-144689762D01*
X97783238Y-144737381D01*
X97545142Y-144737381D01*
X97449904Y-144689762D01*
X97402285Y-144642143D01*
X98259428Y-143737381D02*
X98592761Y-144737381D01*
X98926095Y-143737381D01*
X99973714Y-144451667D02*
X100449905Y-144451667D01*
X99878476Y-144737381D02*
X100211809Y-143737381D01*
X100545143Y-144737381D01*
X101068952Y-143737381D02*
X101164191Y-143737381D01*
X101259429Y-143785000D01*
X101307048Y-143832619D01*
X101354667Y-143927857D01*
X101402286Y-144118333D01*
X101402286Y-144356429D01*
X101354667Y-144546905D01*
X101307048Y-144642143D01*
X101259429Y-144689762D01*
X101164191Y-144737381D01*
X101068952Y-144737381D01*
X100973714Y-144689762D01*
X100926095Y-144642143D01*
X100878476Y-144546905D01*
X100830857Y-144356429D01*
X100830857Y-144118333D01*
X100878476Y-143927857D01*
X100926095Y-143832619D01*
X100973714Y-143785000D01*
X101068952Y-143737381D01*
X103116572Y-143785000D02*
X103021334Y-143737381D01*
X102878477Y-143737381D01*
X102735619Y-143785000D01*
X102640381Y-143880238D01*
X102592762Y-143975476D01*
X102545143Y-144165952D01*
X102545143Y-144308810D01*
X102592762Y-144499286D01*
X102640381Y-144594524D01*
X102735619Y-144689762D01*
X102878477Y-144737381D01*
X102973715Y-144737381D01*
X103116572Y-144689762D01*
X103164191Y-144642143D01*
X103164191Y-144308810D01*
X102973715Y-144308810D01*
X103592762Y-144737381D02*
X103592762Y-143737381D01*
X104164191Y-144737381D01*
X104164191Y-143737381D01*
X104640381Y-144737381D02*
X104640381Y-143737381D01*
X104878476Y-143737381D01*
X105021334Y-143785000D01*
X105116572Y-143880238D01*
X105164191Y-143975476D01*
X105211810Y-144165952D01*
X105211810Y-144308810D01*
X105164191Y-144499286D01*
X105116572Y-144594524D01*
X105021334Y-144689762D01*
X104878476Y-144737381D01*
X104640381Y-144737381D01*
D11*
X105875143Y-123059285D02*
X105875143Y-121916428D01*
X106446571Y-122487857D02*
X105303714Y-122487857D01*
X104946571Y-120487856D02*
X104946571Y-121202142D01*
X105660857Y-121273571D01*
X105589429Y-121202142D01*
X105518000Y-121059285D01*
X105518000Y-120702142D01*
X105589429Y-120559285D01*
X105660857Y-120487856D01*
X105803714Y-120416428D01*
X106160857Y-120416428D01*
X106303714Y-120487856D01*
X106375143Y-120559285D01*
X106446571Y-120702142D01*
X106446571Y-121059285D01*
X106375143Y-121202142D01*
X106303714Y-121273571D01*
X104946571Y-119987857D02*
X106446571Y-119487857D01*
X104946571Y-118987857D01*
X106018000Y-117416429D02*
X106018000Y-116702143D01*
X106446571Y-117559286D02*
X104946571Y-117059286D01*
X106446571Y-116559286D01*
X106446571Y-115273572D02*
X106446571Y-116130715D01*
X106446571Y-115702143D02*
X104946571Y-115702143D01*
X105160857Y-115845000D01*
X105303714Y-115987858D01*
X105375143Y-116130715D01*
X105018000Y-112702144D02*
X104946571Y-112845001D01*
X104946571Y-113059287D01*
X105018000Y-113273572D01*
X105160857Y-113416430D01*
X105303714Y-113487858D01*
X105589429Y-113559287D01*
X105803714Y-113559287D01*
X106089429Y-113487858D01*
X106232286Y-113416430D01*
X106375143Y-113273572D01*
X106446571Y-113059287D01*
X106446571Y-112916430D01*
X106375143Y-112702144D01*
X106303714Y-112630715D01*
X105803714Y-112630715D01*
X105803714Y-112916430D01*
X106446571Y-111987858D02*
X104946571Y-111987858D01*
X106446571Y-111130715D01*
X104946571Y-111130715D01*
X106446571Y-110416429D02*
X104946571Y-110416429D01*
X104946571Y-110059286D01*
X105018000Y-109845001D01*
X105160857Y-109702143D01*
X105303714Y-109630715D01*
X105589429Y-109559286D01*
X105803714Y-109559286D01*
X106089429Y-109630715D01*
X106232286Y-109702143D01*
X106375143Y-109845001D01*
X106446571Y-110059286D01*
X106446571Y-110416429D01*
X105875143Y-138299285D02*
X105875143Y-137156428D01*
X106446571Y-137727857D02*
X105303714Y-137727857D01*
X104946571Y-135727856D02*
X104946571Y-136442142D01*
X105660857Y-136513571D01*
X105589429Y-136442142D01*
X105518000Y-136299285D01*
X105518000Y-135942142D01*
X105589429Y-135799285D01*
X105660857Y-135727856D01*
X105803714Y-135656428D01*
X106160857Y-135656428D01*
X106303714Y-135727856D01*
X106375143Y-135799285D01*
X106446571Y-135942142D01*
X106446571Y-136299285D01*
X106375143Y-136442142D01*
X106303714Y-136513571D01*
X104946571Y-135227857D02*
X106446571Y-134727857D01*
X104946571Y-134227857D01*
X106018000Y-132656429D02*
X106018000Y-131942143D01*
X106446571Y-132799286D02*
X104946571Y-132299286D01*
X106446571Y-131799286D01*
X104946571Y-131013572D02*
X104946571Y-130870715D01*
X105018000Y-130727858D01*
X105089429Y-130656429D01*
X105232286Y-130585000D01*
X105518000Y-130513572D01*
X105875143Y-130513572D01*
X106160857Y-130585000D01*
X106303714Y-130656429D01*
X106375143Y-130727858D01*
X106446571Y-130870715D01*
X106446571Y-131013572D01*
X106375143Y-131156429D01*
X106303714Y-131227858D01*
X106160857Y-131299286D01*
X105875143Y-131370715D01*
X105518000Y-131370715D01*
X105232286Y-131299286D01*
X105089429Y-131227858D01*
X105018000Y-131156429D01*
X104946571Y-131013572D01*
X105018000Y-127942144D02*
X104946571Y-128085001D01*
X104946571Y-128299287D01*
X105018000Y-128513572D01*
X105160857Y-128656430D01*
X105303714Y-128727858D01*
X105589429Y-128799287D01*
X105803714Y-128799287D01*
X106089429Y-128727858D01*
X106232286Y-128656430D01*
X106375143Y-128513572D01*
X106446571Y-128299287D01*
X106446571Y-128156430D01*
X106375143Y-127942144D01*
X106303714Y-127870715D01*
X105803714Y-127870715D01*
X105803714Y-128156430D01*
X106446571Y-127227858D02*
X104946571Y-127227858D01*
X106446571Y-126370715D01*
X104946571Y-126370715D01*
X106446571Y-125656429D02*
X104946571Y-125656429D01*
X104946571Y-125299286D01*
X105018000Y-125085001D01*
X105160857Y-124942143D01*
X105303714Y-124870715D01*
X105589429Y-124799286D01*
X105803714Y-124799286D01*
X106089429Y-124870715D01*
X106232286Y-124942143D01*
X106375143Y-125085001D01*
X106446571Y-125299286D01*
X106446571Y-125656429D01*
D12*
X95576809Y-103716429D02*
X96338714Y-103716429D01*
X95957762Y-104097381D02*
X95957762Y-103335476D01*
X97291095Y-103097381D02*
X96814904Y-103097381D01*
X96767285Y-103573571D01*
X96814904Y-103525952D01*
X96910142Y-103478333D01*
X97148238Y-103478333D01*
X97243476Y-103525952D01*
X97291095Y-103573571D01*
X97338714Y-103668810D01*
X97338714Y-103906905D01*
X97291095Y-104002143D01*
X97243476Y-104049762D01*
X97148238Y-104097381D01*
X96910142Y-104097381D01*
X96814904Y-104049762D01*
X96767285Y-104002143D01*
X97624428Y-103097381D02*
X97957761Y-104097381D01*
X98291095Y-103097381D01*
X99338714Y-103811667D02*
X99814905Y-103811667D01*
X99243476Y-104097381D02*
X99576809Y-103097381D01*
X99910143Y-104097381D01*
X100767286Y-104097381D02*
X100195857Y-104097381D01*
X100481571Y-104097381D02*
X100481571Y-103097381D01*
X100386333Y-103240238D01*
X100291095Y-103335476D01*
X100195857Y-103383095D01*
X102481572Y-103145000D02*
X102386334Y-103097381D01*
X102243477Y-103097381D01*
X102100619Y-103145000D01*
X102005381Y-103240238D01*
X101957762Y-103335476D01*
X101910143Y-103525952D01*
X101910143Y-103668810D01*
X101957762Y-103859286D01*
X102005381Y-103954524D01*
X102100619Y-104049762D01*
X102243477Y-104097381D01*
X102338715Y-104097381D01*
X102481572Y-104049762D01*
X102529191Y-104002143D01*
X102529191Y-103668810D01*
X102338715Y-103668810D01*
X102957762Y-104097381D02*
X102957762Y-103097381D01*
X103529191Y-104097381D01*
X103529191Y-103097381D01*
X104005381Y-104097381D02*
X104005381Y-103097381D01*
X104243476Y-103097381D01*
X104386334Y-103145000D01*
X104481572Y-103240238D01*
X104529191Y-103335476D01*
X104576810Y-103525952D01*
X104576810Y-103668810D01*
X104529191Y-103859286D01*
X104481572Y-103954524D01*
X104386334Y-104049762D01*
X104243476Y-104097381D01*
X104005381Y-104097381D01*
X69708000Y-112446904D02*
X69660381Y-112542142D01*
X69660381Y-112684999D01*
X69708000Y-112827857D01*
X69803238Y-112923095D01*
X69898476Y-112970714D01*
X70088952Y-113018333D01*
X70231810Y-113018333D01*
X70422286Y-112970714D01*
X70517524Y-112923095D01*
X70612762Y-112827857D01*
X70660381Y-112684999D01*
X70660381Y-112589761D01*
X70612762Y-112446904D01*
X70565143Y-112399285D01*
X70231810Y-112399285D01*
X70231810Y-112589761D01*
X70660381Y-111970714D02*
X69660381Y-111970714D01*
X70660381Y-111399285D01*
X69660381Y-111399285D01*
X70660381Y-110923095D02*
X69660381Y-110923095D01*
X69660381Y-110685000D01*
X69708000Y-110542142D01*
X69803238Y-110446904D01*
X69898476Y-110399285D01*
X70088952Y-110351666D01*
X70231810Y-110351666D01*
X70422286Y-110399285D01*
X70517524Y-110446904D01*
X70612762Y-110542142D01*
X70660381Y-110685000D01*
X70660381Y-110923095D01*
X70279429Y-109161190D02*
X70279429Y-108399285D01*
X70660381Y-108780237D02*
X69898476Y-108780237D01*
X69660381Y-107446904D02*
X69660381Y-107923095D01*
X70136571Y-107970714D01*
X70088952Y-107923095D01*
X70041333Y-107827857D01*
X70041333Y-107589761D01*
X70088952Y-107494523D01*
X70136571Y-107446904D01*
X70231810Y-107399285D01*
X70469905Y-107399285D01*
X70565143Y-107446904D01*
X70612762Y-107494523D01*
X70660381Y-107589761D01*
X70660381Y-107827857D01*
X70612762Y-107923095D01*
X70565143Y-107970714D01*
X69660381Y-107113571D02*
X70660381Y-106780238D01*
X69660381Y-106446904D01*
X70612762Y-105399285D02*
X70660381Y-105256428D01*
X70660381Y-105018332D01*
X70612762Y-104923094D01*
X70565143Y-104875475D01*
X70469905Y-104827856D01*
X70374667Y-104827856D01*
X70279429Y-104875475D01*
X70231810Y-104923094D01*
X70184190Y-105018332D01*
X70136571Y-105208809D01*
X70088952Y-105304047D01*
X70041333Y-105351666D01*
X69946095Y-105399285D01*
X69850857Y-105399285D01*
X69755619Y-105351666D01*
X69708000Y-105304047D01*
X69660381Y-105208809D01*
X69660381Y-104970713D01*
X69708000Y-104827856D01*
X70660381Y-104399285D02*
X69660381Y-104399285D01*
X69708000Y-103399285D02*
X69660381Y-103494523D01*
X69660381Y-103637380D01*
X69708000Y-103780238D01*
X69803238Y-103875476D01*
X69898476Y-103923095D01*
X70088952Y-103970714D01*
X70231810Y-103970714D01*
X70422286Y-103923095D01*
X70517524Y-103875476D01*
X70612762Y-103780238D01*
X70660381Y-103637380D01*
X70660381Y-103542142D01*
X70612762Y-103399285D01*
X70565143Y-103351666D01*
X70231810Y-103351666D01*
X70231810Y-103542142D01*
X74788000Y-112446904D02*
X74740381Y-112542142D01*
X74740381Y-112684999D01*
X74788000Y-112827857D01*
X74883238Y-112923095D01*
X74978476Y-112970714D01*
X75168952Y-113018333D01*
X75311810Y-113018333D01*
X75502286Y-112970714D01*
X75597524Y-112923095D01*
X75692762Y-112827857D01*
X75740381Y-112684999D01*
X75740381Y-112589761D01*
X75692762Y-112446904D01*
X75645143Y-112399285D01*
X75311810Y-112399285D01*
X75311810Y-112589761D01*
X75740381Y-111970714D02*
X74740381Y-111970714D01*
X75740381Y-111399285D01*
X74740381Y-111399285D01*
X75740381Y-110923095D02*
X74740381Y-110923095D01*
X74740381Y-110685000D01*
X74788000Y-110542142D01*
X74883238Y-110446904D01*
X74978476Y-110399285D01*
X75168952Y-110351666D01*
X75311810Y-110351666D01*
X75502286Y-110399285D01*
X75597524Y-110446904D01*
X75692762Y-110542142D01*
X75740381Y-110685000D01*
X75740381Y-110923095D01*
X75359429Y-109161190D02*
X75359429Y-108399285D01*
X75740381Y-108780237D02*
X74978476Y-108780237D01*
X74740381Y-107446904D02*
X74740381Y-107923095D01*
X75216571Y-107970714D01*
X75168952Y-107923095D01*
X75121333Y-107827857D01*
X75121333Y-107589761D01*
X75168952Y-107494523D01*
X75216571Y-107446904D01*
X75311810Y-107399285D01*
X75549905Y-107399285D01*
X75645143Y-107446904D01*
X75692762Y-107494523D01*
X75740381Y-107589761D01*
X75740381Y-107827857D01*
X75692762Y-107923095D01*
X75645143Y-107970714D01*
X74740381Y-107113571D02*
X75740381Y-106780238D01*
X74740381Y-106446904D01*
X75692762Y-105399285D02*
X75740381Y-105256428D01*
X75740381Y-105018332D01*
X75692762Y-104923094D01*
X75645143Y-104875475D01*
X75549905Y-104827856D01*
X75454667Y-104827856D01*
X75359429Y-104875475D01*
X75311810Y-104923094D01*
X75264190Y-105018332D01*
X75216571Y-105208809D01*
X75168952Y-105304047D01*
X75121333Y-105351666D01*
X75026095Y-105399285D01*
X74930857Y-105399285D01*
X74835619Y-105351666D01*
X74788000Y-105304047D01*
X74740381Y-105208809D01*
X74740381Y-104970713D01*
X74788000Y-104827856D01*
X75740381Y-104399285D02*
X74740381Y-104399285D01*
X74788000Y-103399285D02*
X74740381Y-103494523D01*
X74740381Y-103637380D01*
X74788000Y-103780238D01*
X74883238Y-103875476D01*
X74978476Y-103923095D01*
X75168952Y-103970714D01*
X75311810Y-103970714D01*
X75502286Y-103923095D01*
X75597524Y-103875476D01*
X75692762Y-103780238D01*
X75740381Y-103637380D01*
X75740381Y-103542142D01*
X75692762Y-103399285D01*
X75645143Y-103351666D01*
X75311810Y-103351666D01*
X75311810Y-103542142D01*
X66850381Y-148539285D02*
X66850381Y-149110714D01*
X66850381Y-148825000D02*
X65850381Y-148825000D01*
X65993238Y-148920238D01*
X66088476Y-149015476D01*
X66136095Y-149110714D01*
X146211809Y-144356429D02*
X146973714Y-144356429D01*
X146592762Y-144737381D02*
X146592762Y-143975476D01*
X147926095Y-143737381D02*
X147449904Y-143737381D01*
X147402285Y-144213571D01*
X147449904Y-144165952D01*
X147545142Y-144118333D01*
X147783238Y-144118333D01*
X147878476Y-144165952D01*
X147926095Y-144213571D01*
X147973714Y-144308810D01*
X147973714Y-144546905D01*
X147926095Y-144642143D01*
X147878476Y-144689762D01*
X147783238Y-144737381D01*
X147545142Y-144737381D01*
X147449904Y-144689762D01*
X147402285Y-144642143D01*
X148259428Y-143737381D02*
X148592761Y-144737381D01*
X148926095Y-143737381D01*
X149973714Y-144451667D02*
X150449905Y-144451667D01*
X149878476Y-144737381D02*
X150211809Y-143737381D01*
X150545143Y-144737381D01*
X151068952Y-143737381D02*
X151164191Y-143737381D01*
X151259429Y-143785000D01*
X151307048Y-143832619D01*
X151354667Y-143927857D01*
X151402286Y-144118333D01*
X151402286Y-144356429D01*
X151354667Y-144546905D01*
X151307048Y-144642143D01*
X151259429Y-144689762D01*
X151164191Y-144737381D01*
X151068952Y-144737381D01*
X150973714Y-144689762D01*
X150926095Y-144642143D01*
X150878476Y-144546905D01*
X150830857Y-144356429D01*
X150830857Y-144118333D01*
X150878476Y-143927857D01*
X150926095Y-143832619D01*
X150973714Y-143785000D01*
X151068952Y-143737381D01*
X153116572Y-143785000D02*
X153021334Y-143737381D01*
X152878477Y-143737381D01*
X152735619Y-143785000D01*
X152640381Y-143880238D01*
X152592762Y-143975476D01*
X152545143Y-144165952D01*
X152545143Y-144308810D01*
X152592762Y-144499286D01*
X152640381Y-144594524D01*
X152735619Y-144689762D01*
X152878477Y-144737381D01*
X152973715Y-144737381D01*
X153116572Y-144689762D01*
X153164191Y-144642143D01*
X153164191Y-144308810D01*
X152973715Y-144308810D01*
X153592762Y-144737381D02*
X153592762Y-143737381D01*
X154164191Y-144737381D01*
X154164191Y-143737381D01*
X154640381Y-144737381D02*
X154640381Y-143737381D01*
X154878476Y-143737381D01*
X155021334Y-143785000D01*
X155116572Y-143880238D01*
X155164191Y-143975476D01*
X155211810Y-144165952D01*
X155211810Y-144308810D01*
X155164191Y-144499286D01*
X155116572Y-144594524D01*
X155021334Y-144689762D01*
X154878476Y-144737381D01*
X154640381Y-144737381D01*
D11*
X155875143Y-123059285D02*
X155875143Y-121916428D01*
X156446571Y-122487857D02*
X155303714Y-122487857D01*
X154946571Y-120487856D02*
X154946571Y-121202142D01*
X155660857Y-121273571D01*
X155589429Y-121202142D01*
X155518000Y-121059285D01*
X155518000Y-120702142D01*
X155589429Y-120559285D01*
X155660857Y-120487856D01*
X155803714Y-120416428D01*
X156160857Y-120416428D01*
X156303714Y-120487856D01*
X156375143Y-120559285D01*
X156446571Y-120702142D01*
X156446571Y-121059285D01*
X156375143Y-121202142D01*
X156303714Y-121273571D01*
X154946571Y-119987857D02*
X156446571Y-119487857D01*
X154946571Y-118987857D01*
X156018000Y-117416429D02*
X156018000Y-116702143D01*
X156446571Y-117559286D02*
X154946571Y-117059286D01*
X156446571Y-116559286D01*
X156446571Y-115273572D02*
X156446571Y-116130715D01*
X156446571Y-115702143D02*
X154946571Y-115702143D01*
X155160857Y-115845000D01*
X155303714Y-115987858D01*
X155375143Y-116130715D01*
X155018000Y-112702144D02*
X154946571Y-112845001D01*
X154946571Y-113059287D01*
X155018000Y-113273572D01*
X155160857Y-113416430D01*
X155303714Y-113487858D01*
X155589429Y-113559287D01*
X155803714Y-113559287D01*
X156089429Y-113487858D01*
X156232286Y-113416430D01*
X156375143Y-113273572D01*
X156446571Y-113059287D01*
X156446571Y-112916430D01*
X156375143Y-112702144D01*
X156303714Y-112630715D01*
X155803714Y-112630715D01*
X155803714Y-112916430D01*
X156446571Y-111987858D02*
X154946571Y-111987858D01*
X156446571Y-111130715D01*
X154946571Y-111130715D01*
X156446571Y-110416429D02*
X154946571Y-110416429D01*
X154946571Y-110059286D01*
X155018000Y-109845001D01*
X155160857Y-109702143D01*
X155303714Y-109630715D01*
X155589429Y-109559286D01*
X155803714Y-109559286D01*
X156089429Y-109630715D01*
X156232286Y-109702143D01*
X156375143Y-109845001D01*
X156446571Y-110059286D01*
X156446571Y-110416429D01*
X155875143Y-138299285D02*
X155875143Y-137156428D01*
X156446571Y-137727857D02*
X155303714Y-137727857D01*
X154946571Y-135727856D02*
X154946571Y-136442142D01*
X155660857Y-136513571D01*
X155589429Y-136442142D01*
X155518000Y-136299285D01*
X155518000Y-135942142D01*
X155589429Y-135799285D01*
X155660857Y-135727856D01*
X155803714Y-135656428D01*
X156160857Y-135656428D01*
X156303714Y-135727856D01*
X156375143Y-135799285D01*
X156446571Y-135942142D01*
X156446571Y-136299285D01*
X156375143Y-136442142D01*
X156303714Y-136513571D01*
X154946571Y-135227857D02*
X156446571Y-134727857D01*
X154946571Y-134227857D01*
X156018000Y-132656429D02*
X156018000Y-131942143D01*
X156446571Y-132799286D02*
X154946571Y-132299286D01*
X156446571Y-131799286D01*
X154946571Y-131013572D02*
X154946571Y-130870715D01*
X155018000Y-130727858D01*
X155089429Y-130656429D01*
X155232286Y-130585000D01*
X155518000Y-130513572D01*
X155875143Y-130513572D01*
X156160857Y-130585000D01*
X156303714Y-130656429D01*
X156375143Y-130727858D01*
X156446571Y-130870715D01*
X156446571Y-131013572D01*
X156375143Y-131156429D01*
X156303714Y-131227858D01*
X156160857Y-131299286D01*
X155875143Y-131370715D01*
X155518000Y-131370715D01*
X155232286Y-131299286D01*
X155089429Y-131227858D01*
X155018000Y-131156429D01*
X154946571Y-131013572D01*
X155018000Y-127942144D02*
X154946571Y-128085001D01*
X154946571Y-128299287D01*
X155018000Y-128513572D01*
X155160857Y-128656430D01*
X155303714Y-128727858D01*
X155589429Y-128799287D01*
X155803714Y-128799287D01*
X156089429Y-128727858D01*
X156232286Y-128656430D01*
X156375143Y-128513572D01*
X156446571Y-128299287D01*
X156446571Y-128156430D01*
X156375143Y-127942144D01*
X156303714Y-127870715D01*
X155803714Y-127870715D01*
X155803714Y-128156430D01*
X156446571Y-127227858D02*
X154946571Y-127227858D01*
X156446571Y-126370715D01*
X154946571Y-126370715D01*
X156446571Y-125656429D02*
X154946571Y-125656429D01*
X154946571Y-125299286D01*
X155018000Y-125085001D01*
X155160857Y-124942143D01*
X155303714Y-124870715D01*
X155589429Y-124799286D01*
X155803714Y-124799286D01*
X156089429Y-124870715D01*
X156232286Y-124942143D01*
X156375143Y-125085001D01*
X156446571Y-125299286D01*
X156446571Y-125656429D01*
D12*
X145576809Y-103716429D02*
X146338714Y-103716429D01*
X145957762Y-104097381D02*
X145957762Y-103335476D01*
X147291095Y-103097381D02*
X146814904Y-103097381D01*
X146767285Y-103573571D01*
X146814904Y-103525952D01*
X146910142Y-103478333D01*
X147148238Y-103478333D01*
X147243476Y-103525952D01*
X147291095Y-103573571D01*
X147338714Y-103668810D01*
X147338714Y-103906905D01*
X147291095Y-104002143D01*
X147243476Y-104049762D01*
X147148238Y-104097381D01*
X146910142Y-104097381D01*
X146814904Y-104049762D01*
X146767285Y-104002143D01*
X147624428Y-103097381D02*
X147957761Y-104097381D01*
X148291095Y-103097381D01*
X149338714Y-103811667D02*
X149814905Y-103811667D01*
X149243476Y-104097381D02*
X149576809Y-103097381D01*
X149910143Y-104097381D01*
X150767286Y-104097381D02*
X150195857Y-104097381D01*
X150481571Y-104097381D02*
X150481571Y-103097381D01*
X150386333Y-103240238D01*
X150291095Y-103335476D01*
X150195857Y-103383095D01*
X152481572Y-103145000D02*
X152386334Y-103097381D01*
X152243477Y-103097381D01*
X152100619Y-103145000D01*
X152005381Y-103240238D01*
X151957762Y-103335476D01*
X151910143Y-103525952D01*
X151910143Y-103668810D01*
X151957762Y-103859286D01*
X152005381Y-103954524D01*
X152100619Y-104049762D01*
X152243477Y-104097381D01*
X152338715Y-104097381D01*
X152481572Y-104049762D01*
X152529191Y-104002143D01*
X152529191Y-103668810D01*
X152338715Y-103668810D01*
X152957762Y-104097381D02*
X152957762Y-103097381D01*
X153529191Y-104097381D01*
X153529191Y-103097381D01*
X154005381Y-104097381D02*
X154005381Y-103097381D01*
X154243476Y-103097381D01*
X154386334Y-103145000D01*
X154481572Y-103240238D01*
X154529191Y-103335476D01*
X154576810Y-103525952D01*
X154576810Y-103668810D01*
X154529191Y-103859286D01*
X154481572Y-103954524D01*
X154386334Y-104049762D01*
X154243476Y-104097381D01*
X154005381Y-104097381D01*
X119708000Y-112446904D02*
X119660381Y-112542142D01*
X119660381Y-112684999D01*
X119708000Y-112827857D01*
X119803238Y-112923095D01*
X119898476Y-112970714D01*
X120088952Y-113018333D01*
X120231810Y-113018333D01*
X120422286Y-112970714D01*
X120517524Y-112923095D01*
X120612762Y-112827857D01*
X120660381Y-112684999D01*
X120660381Y-112589761D01*
X120612762Y-112446904D01*
X120565143Y-112399285D01*
X120231810Y-112399285D01*
X120231810Y-112589761D01*
X120660381Y-111970714D02*
X119660381Y-111970714D01*
X120660381Y-111399285D01*
X119660381Y-111399285D01*
X120660381Y-110923095D02*
X119660381Y-110923095D01*
X119660381Y-110685000D01*
X119708000Y-110542142D01*
X119803238Y-110446904D01*
X119898476Y-110399285D01*
X120088952Y-110351666D01*
X120231810Y-110351666D01*
X120422286Y-110399285D01*
X120517524Y-110446904D01*
X120612762Y-110542142D01*
X120660381Y-110685000D01*
X120660381Y-110923095D01*
X120279429Y-109161190D02*
X120279429Y-108399285D01*
X120660381Y-108780237D02*
X119898476Y-108780237D01*
X119660381Y-107446904D02*
X119660381Y-107923095D01*
X120136571Y-107970714D01*
X120088952Y-107923095D01*
X120041333Y-107827857D01*
X120041333Y-107589761D01*
X120088952Y-107494523D01*
X120136571Y-107446904D01*
X120231810Y-107399285D01*
X120469905Y-107399285D01*
X120565143Y-107446904D01*
X120612762Y-107494523D01*
X120660381Y-107589761D01*
X120660381Y-107827857D01*
X120612762Y-107923095D01*
X120565143Y-107970714D01*
X119660381Y-107113571D02*
X120660381Y-106780238D01*
X119660381Y-106446904D01*
X120612762Y-105399285D02*
X120660381Y-105256428D01*
X120660381Y-105018332D01*
X120612762Y-104923094D01*
X120565143Y-104875475D01*
X120469905Y-104827856D01*
X120374667Y-104827856D01*
X120279429Y-104875475D01*
X120231810Y-104923094D01*
X120184190Y-105018332D01*
X120136571Y-105208809D01*
X120088952Y-105304047D01*
X120041333Y-105351666D01*
X119946095Y-105399285D01*
X119850857Y-105399285D01*
X119755619Y-105351666D01*
X119708000Y-105304047D01*
X119660381Y-105208809D01*
X119660381Y-104970713D01*
X119708000Y-104827856D01*
X120660381Y-104399285D02*
X119660381Y-104399285D01*
X119708000Y-103399285D02*
X119660381Y-103494523D01*
X119660381Y-103637380D01*
X119708000Y-103780238D01*
X119803238Y-103875476D01*
X119898476Y-103923095D01*
X120088952Y-103970714D01*
X120231810Y-103970714D01*
X120422286Y-103923095D01*
X120517524Y-103875476D01*
X120612762Y-103780238D01*
X120660381Y-103637380D01*
X120660381Y-103542142D01*
X120612762Y-103399285D01*
X120565143Y-103351666D01*
X120231810Y-103351666D01*
X120231810Y-103542142D01*
X124788000Y-112446904D02*
X124740381Y-112542142D01*
X124740381Y-112684999D01*
X124788000Y-112827857D01*
X124883238Y-112923095D01*
X124978476Y-112970714D01*
X125168952Y-113018333D01*
X125311810Y-113018333D01*
X125502286Y-112970714D01*
X125597524Y-112923095D01*
X125692762Y-112827857D01*
X125740381Y-112684999D01*
X125740381Y-112589761D01*
X125692762Y-112446904D01*
X125645143Y-112399285D01*
X125311810Y-112399285D01*
X125311810Y-112589761D01*
X125740381Y-111970714D02*
X124740381Y-111970714D01*
X125740381Y-111399285D01*
X124740381Y-111399285D01*
X125740381Y-110923095D02*
X124740381Y-110923095D01*
X124740381Y-110685000D01*
X124788000Y-110542142D01*
X124883238Y-110446904D01*
X124978476Y-110399285D01*
X125168952Y-110351666D01*
X125311810Y-110351666D01*
X125502286Y-110399285D01*
X125597524Y-110446904D01*
X125692762Y-110542142D01*
X125740381Y-110685000D01*
X125740381Y-110923095D01*
X125359429Y-109161190D02*
X125359429Y-108399285D01*
X125740381Y-108780237D02*
X124978476Y-108780237D01*
X124740381Y-107446904D02*
X124740381Y-107923095D01*
X125216571Y-107970714D01*
X125168952Y-107923095D01*
X125121333Y-107827857D01*
X125121333Y-107589761D01*
X125168952Y-107494523D01*
X125216571Y-107446904D01*
X125311810Y-107399285D01*
X125549905Y-107399285D01*
X125645143Y-107446904D01*
X125692762Y-107494523D01*
X125740381Y-107589761D01*
X125740381Y-107827857D01*
X125692762Y-107923095D01*
X125645143Y-107970714D01*
X124740381Y-107113571D02*
X125740381Y-106780238D01*
X124740381Y-106446904D01*
X125692762Y-105399285D02*
X125740381Y-105256428D01*
X125740381Y-105018332D01*
X125692762Y-104923094D01*
X125645143Y-104875475D01*
X125549905Y-104827856D01*
X125454667Y-104827856D01*
X125359429Y-104875475D01*
X125311810Y-104923094D01*
X125264190Y-105018332D01*
X125216571Y-105208809D01*
X125168952Y-105304047D01*
X125121333Y-105351666D01*
X125026095Y-105399285D01*
X124930857Y-105399285D01*
X124835619Y-105351666D01*
X124788000Y-105304047D01*
X124740381Y-105208809D01*
X124740381Y-104970713D01*
X124788000Y-104827856D01*
X125740381Y-104399285D02*
X124740381Y-104399285D01*
X124788000Y-103399285D02*
X124740381Y-103494523D01*
X124740381Y-103637380D01*
X124788000Y-103780238D01*
X124883238Y-103875476D01*
X124978476Y-103923095D01*
X125168952Y-103970714D01*
X125311810Y-103970714D01*
X125502286Y-103923095D01*
X125597524Y-103875476D01*
X125692762Y-103780238D01*
X125740381Y-103637380D01*
X125740381Y-103542142D01*
X125692762Y-103399285D01*
X125645143Y-103351666D01*
X125311810Y-103351666D01*
X125311810Y-103542142D01*
X116850381Y-148539285D02*
X116850381Y-149110714D01*
X116850381Y-148825000D02*
X115850381Y-148825000D01*
X115993238Y-148920238D01*
X116088476Y-149015476D01*
X116136095Y-149110714D01*
X96211809Y-94356429D02*
X96973714Y-94356429D01*
X96592762Y-94737381D02*
X96592762Y-93975476D01*
X97926095Y-93737381D02*
X97449904Y-93737381D01*
X97402285Y-94213571D01*
X97449904Y-94165952D01*
X97545142Y-94118333D01*
X97783238Y-94118333D01*
X97878476Y-94165952D01*
X97926095Y-94213571D01*
X97973714Y-94308810D01*
X97973714Y-94546905D01*
X97926095Y-94642143D01*
X97878476Y-94689762D01*
X97783238Y-94737381D01*
X97545142Y-94737381D01*
X97449904Y-94689762D01*
X97402285Y-94642143D01*
X98259428Y-93737381D02*
X98592761Y-94737381D01*
X98926095Y-93737381D01*
X99973714Y-94451667D02*
X100449905Y-94451667D01*
X99878476Y-94737381D02*
X100211809Y-93737381D01*
X100545143Y-94737381D01*
X101068952Y-93737381D02*
X101164191Y-93737381D01*
X101259429Y-93785000D01*
X101307048Y-93832619D01*
X101354667Y-93927857D01*
X101402286Y-94118333D01*
X101402286Y-94356429D01*
X101354667Y-94546905D01*
X101307048Y-94642143D01*
X101259429Y-94689762D01*
X101164191Y-94737381D01*
X101068952Y-94737381D01*
X100973714Y-94689762D01*
X100926095Y-94642143D01*
X100878476Y-94546905D01*
X100830857Y-94356429D01*
X100830857Y-94118333D01*
X100878476Y-93927857D01*
X100926095Y-93832619D01*
X100973714Y-93785000D01*
X101068952Y-93737381D01*
X103116572Y-93785000D02*
X103021334Y-93737381D01*
X102878477Y-93737381D01*
X102735619Y-93785000D01*
X102640381Y-93880238D01*
X102592762Y-93975476D01*
X102545143Y-94165952D01*
X102545143Y-94308810D01*
X102592762Y-94499286D01*
X102640381Y-94594524D01*
X102735619Y-94689762D01*
X102878477Y-94737381D01*
X102973715Y-94737381D01*
X103116572Y-94689762D01*
X103164191Y-94642143D01*
X103164191Y-94308810D01*
X102973715Y-94308810D01*
X103592762Y-94737381D02*
X103592762Y-93737381D01*
X104164191Y-94737381D01*
X104164191Y-93737381D01*
X104640381Y-94737381D02*
X104640381Y-93737381D01*
X104878476Y-93737381D01*
X105021334Y-93785000D01*
X105116572Y-93880238D01*
X105164191Y-93975476D01*
X105211810Y-94165952D01*
X105211810Y-94308810D01*
X105164191Y-94499286D01*
X105116572Y-94594524D01*
X105021334Y-94689762D01*
X104878476Y-94737381D01*
X104640381Y-94737381D01*
D11*
X105875143Y-73059285D02*
X105875143Y-71916428D01*
X106446571Y-72487857D02*
X105303714Y-72487857D01*
X104946571Y-70487856D02*
X104946571Y-71202142D01*
X105660857Y-71273571D01*
X105589429Y-71202142D01*
X105518000Y-71059285D01*
X105518000Y-70702142D01*
X105589429Y-70559285D01*
X105660857Y-70487856D01*
X105803714Y-70416428D01*
X106160857Y-70416428D01*
X106303714Y-70487856D01*
X106375143Y-70559285D01*
X106446571Y-70702142D01*
X106446571Y-71059285D01*
X106375143Y-71202142D01*
X106303714Y-71273571D01*
X104946571Y-69987857D02*
X106446571Y-69487857D01*
X104946571Y-68987857D01*
X106018000Y-67416429D02*
X106018000Y-66702143D01*
X106446571Y-67559286D02*
X104946571Y-67059286D01*
X106446571Y-66559286D01*
X106446571Y-65273572D02*
X106446571Y-66130715D01*
X106446571Y-65702143D02*
X104946571Y-65702143D01*
X105160857Y-65845000D01*
X105303714Y-65987858D01*
X105375143Y-66130715D01*
X105018000Y-62702144D02*
X104946571Y-62845001D01*
X104946571Y-63059287D01*
X105018000Y-63273572D01*
X105160857Y-63416430D01*
X105303714Y-63487858D01*
X105589429Y-63559287D01*
X105803714Y-63559287D01*
X106089429Y-63487858D01*
X106232286Y-63416430D01*
X106375143Y-63273572D01*
X106446571Y-63059287D01*
X106446571Y-62916430D01*
X106375143Y-62702144D01*
X106303714Y-62630715D01*
X105803714Y-62630715D01*
X105803714Y-62916430D01*
X106446571Y-61987858D02*
X104946571Y-61987858D01*
X106446571Y-61130715D01*
X104946571Y-61130715D01*
X106446571Y-60416429D02*
X104946571Y-60416429D01*
X104946571Y-60059286D01*
X105018000Y-59845001D01*
X105160857Y-59702143D01*
X105303714Y-59630715D01*
X105589429Y-59559286D01*
X105803714Y-59559286D01*
X106089429Y-59630715D01*
X106232286Y-59702143D01*
X106375143Y-59845001D01*
X106446571Y-60059286D01*
X106446571Y-60416429D01*
X105875143Y-88299285D02*
X105875143Y-87156428D01*
X106446571Y-87727857D02*
X105303714Y-87727857D01*
X104946571Y-85727856D02*
X104946571Y-86442142D01*
X105660857Y-86513571D01*
X105589429Y-86442142D01*
X105518000Y-86299285D01*
X105518000Y-85942142D01*
X105589429Y-85799285D01*
X105660857Y-85727856D01*
X105803714Y-85656428D01*
X106160857Y-85656428D01*
X106303714Y-85727856D01*
X106375143Y-85799285D01*
X106446571Y-85942142D01*
X106446571Y-86299285D01*
X106375143Y-86442142D01*
X106303714Y-86513571D01*
X104946571Y-85227857D02*
X106446571Y-84727857D01*
X104946571Y-84227857D01*
X106018000Y-82656429D02*
X106018000Y-81942143D01*
X106446571Y-82799286D02*
X104946571Y-82299286D01*
X106446571Y-81799286D01*
X104946571Y-81013572D02*
X104946571Y-80870715D01*
X105018000Y-80727858D01*
X105089429Y-80656429D01*
X105232286Y-80585000D01*
X105518000Y-80513572D01*
X105875143Y-80513572D01*
X106160857Y-80585000D01*
X106303714Y-80656429D01*
X106375143Y-80727858D01*
X106446571Y-80870715D01*
X106446571Y-81013572D01*
X106375143Y-81156429D01*
X106303714Y-81227858D01*
X106160857Y-81299286D01*
X105875143Y-81370715D01*
X105518000Y-81370715D01*
X105232286Y-81299286D01*
X105089429Y-81227858D01*
X105018000Y-81156429D01*
X104946571Y-81013572D01*
X105018000Y-77942144D02*
X104946571Y-78085001D01*
X104946571Y-78299287D01*
X105018000Y-78513572D01*
X105160857Y-78656430D01*
X105303714Y-78727858D01*
X105589429Y-78799287D01*
X105803714Y-78799287D01*
X106089429Y-78727858D01*
X106232286Y-78656430D01*
X106375143Y-78513572D01*
X106446571Y-78299287D01*
X106446571Y-78156430D01*
X106375143Y-77942144D01*
X106303714Y-77870715D01*
X105803714Y-77870715D01*
X105803714Y-78156430D01*
X106446571Y-77227858D02*
X104946571Y-77227858D01*
X106446571Y-76370715D01*
X104946571Y-76370715D01*
X106446571Y-75656429D02*
X104946571Y-75656429D01*
X104946571Y-75299286D01*
X105018000Y-75085001D01*
X105160857Y-74942143D01*
X105303714Y-74870715D01*
X105589429Y-74799286D01*
X105803714Y-74799286D01*
X106089429Y-74870715D01*
X106232286Y-74942143D01*
X106375143Y-75085001D01*
X106446571Y-75299286D01*
X106446571Y-75656429D01*
D12*
X95576809Y-53716429D02*
X96338714Y-53716429D01*
X95957762Y-54097381D02*
X95957762Y-53335476D01*
X97291095Y-53097381D02*
X96814904Y-53097381D01*
X96767285Y-53573571D01*
X96814904Y-53525952D01*
X96910142Y-53478333D01*
X97148238Y-53478333D01*
X97243476Y-53525952D01*
X97291095Y-53573571D01*
X97338714Y-53668810D01*
X97338714Y-53906905D01*
X97291095Y-54002143D01*
X97243476Y-54049762D01*
X97148238Y-54097381D01*
X96910142Y-54097381D01*
X96814904Y-54049762D01*
X96767285Y-54002143D01*
X97624428Y-53097381D02*
X97957761Y-54097381D01*
X98291095Y-53097381D01*
X99338714Y-53811667D02*
X99814905Y-53811667D01*
X99243476Y-54097381D02*
X99576809Y-53097381D01*
X99910143Y-54097381D01*
X100767286Y-54097381D02*
X100195857Y-54097381D01*
X100481571Y-54097381D02*
X100481571Y-53097381D01*
X100386333Y-53240238D01*
X100291095Y-53335476D01*
X100195857Y-53383095D01*
X102481572Y-53145000D02*
X102386334Y-53097381D01*
X102243477Y-53097381D01*
X102100619Y-53145000D01*
X102005381Y-53240238D01*
X101957762Y-53335476D01*
X101910143Y-53525952D01*
X101910143Y-53668810D01*
X101957762Y-53859286D01*
X102005381Y-53954524D01*
X102100619Y-54049762D01*
X102243477Y-54097381D01*
X102338715Y-54097381D01*
X102481572Y-54049762D01*
X102529191Y-54002143D01*
X102529191Y-53668810D01*
X102338715Y-53668810D01*
X102957762Y-54097381D02*
X102957762Y-53097381D01*
X103529191Y-54097381D01*
X103529191Y-53097381D01*
X104005381Y-54097381D02*
X104005381Y-53097381D01*
X104243476Y-53097381D01*
X104386334Y-53145000D01*
X104481572Y-53240238D01*
X104529191Y-53335476D01*
X104576810Y-53525952D01*
X104576810Y-53668810D01*
X104529191Y-53859286D01*
X104481572Y-53954524D01*
X104386334Y-54049762D01*
X104243476Y-54097381D01*
X104005381Y-54097381D01*
X69708000Y-62446904D02*
X69660381Y-62542142D01*
X69660381Y-62684999D01*
X69708000Y-62827857D01*
X69803238Y-62923095D01*
X69898476Y-62970714D01*
X70088952Y-63018333D01*
X70231810Y-63018333D01*
X70422286Y-62970714D01*
X70517524Y-62923095D01*
X70612762Y-62827857D01*
X70660381Y-62684999D01*
X70660381Y-62589761D01*
X70612762Y-62446904D01*
X70565143Y-62399285D01*
X70231810Y-62399285D01*
X70231810Y-62589761D01*
X70660381Y-61970714D02*
X69660381Y-61970714D01*
X70660381Y-61399285D01*
X69660381Y-61399285D01*
X70660381Y-60923095D02*
X69660381Y-60923095D01*
X69660381Y-60685000D01*
X69708000Y-60542142D01*
X69803238Y-60446904D01*
X69898476Y-60399285D01*
X70088952Y-60351666D01*
X70231810Y-60351666D01*
X70422286Y-60399285D01*
X70517524Y-60446904D01*
X70612762Y-60542142D01*
X70660381Y-60685000D01*
X70660381Y-60923095D01*
X70279429Y-59161190D02*
X70279429Y-58399285D01*
X70660381Y-58780237D02*
X69898476Y-58780237D01*
X69660381Y-57446904D02*
X69660381Y-57923095D01*
X70136571Y-57970714D01*
X70088952Y-57923095D01*
X70041333Y-57827857D01*
X70041333Y-57589761D01*
X70088952Y-57494523D01*
X70136571Y-57446904D01*
X70231810Y-57399285D01*
X70469905Y-57399285D01*
X70565143Y-57446904D01*
X70612762Y-57494523D01*
X70660381Y-57589761D01*
X70660381Y-57827857D01*
X70612762Y-57923095D01*
X70565143Y-57970714D01*
X69660381Y-57113571D02*
X70660381Y-56780238D01*
X69660381Y-56446904D01*
X70612762Y-55399285D02*
X70660381Y-55256428D01*
X70660381Y-55018332D01*
X70612762Y-54923094D01*
X70565143Y-54875475D01*
X70469905Y-54827856D01*
X70374667Y-54827856D01*
X70279429Y-54875475D01*
X70231810Y-54923094D01*
X70184190Y-55018332D01*
X70136571Y-55208809D01*
X70088952Y-55304047D01*
X70041333Y-55351666D01*
X69946095Y-55399285D01*
X69850857Y-55399285D01*
X69755619Y-55351666D01*
X69708000Y-55304047D01*
X69660381Y-55208809D01*
X69660381Y-54970713D01*
X69708000Y-54827856D01*
X70660381Y-54399285D02*
X69660381Y-54399285D01*
X69708000Y-53399285D02*
X69660381Y-53494523D01*
X69660381Y-53637380D01*
X69708000Y-53780238D01*
X69803238Y-53875476D01*
X69898476Y-53923095D01*
X70088952Y-53970714D01*
X70231810Y-53970714D01*
X70422286Y-53923095D01*
X70517524Y-53875476D01*
X70612762Y-53780238D01*
X70660381Y-53637380D01*
X70660381Y-53542142D01*
X70612762Y-53399285D01*
X70565143Y-53351666D01*
X70231810Y-53351666D01*
X70231810Y-53542142D01*
X74788000Y-62446904D02*
X74740381Y-62542142D01*
X74740381Y-62684999D01*
X74788000Y-62827857D01*
X74883238Y-62923095D01*
X74978476Y-62970714D01*
X75168952Y-63018333D01*
X75311810Y-63018333D01*
X75502286Y-62970714D01*
X75597524Y-62923095D01*
X75692762Y-62827857D01*
X75740381Y-62684999D01*
X75740381Y-62589761D01*
X75692762Y-62446904D01*
X75645143Y-62399285D01*
X75311810Y-62399285D01*
X75311810Y-62589761D01*
X75740381Y-61970714D02*
X74740381Y-61970714D01*
X75740381Y-61399285D01*
X74740381Y-61399285D01*
X75740381Y-60923095D02*
X74740381Y-60923095D01*
X74740381Y-60685000D01*
X74788000Y-60542142D01*
X74883238Y-60446904D01*
X74978476Y-60399285D01*
X75168952Y-60351666D01*
X75311810Y-60351666D01*
X75502286Y-60399285D01*
X75597524Y-60446904D01*
X75692762Y-60542142D01*
X75740381Y-60685000D01*
X75740381Y-60923095D01*
X75359429Y-59161190D02*
X75359429Y-58399285D01*
X75740381Y-58780237D02*
X74978476Y-58780237D01*
X74740381Y-57446904D02*
X74740381Y-57923095D01*
X75216571Y-57970714D01*
X75168952Y-57923095D01*
X75121333Y-57827857D01*
X75121333Y-57589761D01*
X75168952Y-57494523D01*
X75216571Y-57446904D01*
X75311810Y-57399285D01*
X75549905Y-57399285D01*
X75645143Y-57446904D01*
X75692762Y-57494523D01*
X75740381Y-57589761D01*
X75740381Y-57827857D01*
X75692762Y-57923095D01*
X75645143Y-57970714D01*
X74740381Y-57113571D02*
X75740381Y-56780238D01*
X74740381Y-56446904D01*
X75692762Y-55399285D02*
X75740381Y-55256428D01*
X75740381Y-55018332D01*
X75692762Y-54923094D01*
X75645143Y-54875475D01*
X75549905Y-54827856D01*
X75454667Y-54827856D01*
X75359429Y-54875475D01*
X75311810Y-54923094D01*
X75264190Y-55018332D01*
X75216571Y-55208809D01*
X75168952Y-55304047D01*
X75121333Y-55351666D01*
X75026095Y-55399285D01*
X74930857Y-55399285D01*
X74835619Y-55351666D01*
X74788000Y-55304047D01*
X74740381Y-55208809D01*
X74740381Y-54970713D01*
X74788000Y-54827856D01*
X75740381Y-54399285D02*
X74740381Y-54399285D01*
X74788000Y-53399285D02*
X74740381Y-53494523D01*
X74740381Y-53637380D01*
X74788000Y-53780238D01*
X74883238Y-53875476D01*
X74978476Y-53923095D01*
X75168952Y-53970714D01*
X75311810Y-53970714D01*
X75502286Y-53923095D01*
X75597524Y-53875476D01*
X75692762Y-53780238D01*
X75740381Y-53637380D01*
X75740381Y-53542142D01*
X75692762Y-53399285D01*
X75645143Y-53351666D01*
X75311810Y-53351666D01*
X75311810Y-53542142D01*
X66850381Y-98539285D02*
X66850381Y-99110714D01*
X66850381Y-98825000D02*
X65850381Y-98825000D01*
X65993238Y-98920238D01*
X66088476Y-99015476D01*
X66136095Y-99110714D01*
X146211809Y-94356429D02*
X146973714Y-94356429D01*
X146592762Y-94737381D02*
X146592762Y-93975476D01*
X147926095Y-93737381D02*
X147449904Y-93737381D01*
X147402285Y-94213571D01*
X147449904Y-94165952D01*
X147545142Y-94118333D01*
X147783238Y-94118333D01*
X147878476Y-94165952D01*
X147926095Y-94213571D01*
X147973714Y-94308810D01*
X147973714Y-94546905D01*
X147926095Y-94642143D01*
X147878476Y-94689762D01*
X147783238Y-94737381D01*
X147545142Y-94737381D01*
X147449904Y-94689762D01*
X147402285Y-94642143D01*
X148259428Y-93737381D02*
X148592761Y-94737381D01*
X148926095Y-93737381D01*
X149973714Y-94451667D02*
X150449905Y-94451667D01*
X149878476Y-94737381D02*
X150211809Y-93737381D01*
X150545143Y-94737381D01*
X151068952Y-93737381D02*
X151164191Y-93737381D01*
X151259429Y-93785000D01*
X151307048Y-93832619D01*
X151354667Y-93927857D01*
X151402286Y-94118333D01*
X151402286Y-94356429D01*
X151354667Y-94546905D01*
X151307048Y-94642143D01*
X151259429Y-94689762D01*
X151164191Y-94737381D01*
X151068952Y-94737381D01*
X150973714Y-94689762D01*
X150926095Y-94642143D01*
X150878476Y-94546905D01*
X150830857Y-94356429D01*
X150830857Y-94118333D01*
X150878476Y-93927857D01*
X150926095Y-93832619D01*
X150973714Y-93785000D01*
X151068952Y-93737381D01*
X153116572Y-93785000D02*
X153021334Y-93737381D01*
X152878477Y-93737381D01*
X152735619Y-93785000D01*
X152640381Y-93880238D01*
X152592762Y-93975476D01*
X152545143Y-94165952D01*
X152545143Y-94308810D01*
X152592762Y-94499286D01*
X152640381Y-94594524D01*
X152735619Y-94689762D01*
X152878477Y-94737381D01*
X152973715Y-94737381D01*
X153116572Y-94689762D01*
X153164191Y-94642143D01*
X153164191Y-94308810D01*
X152973715Y-94308810D01*
X153592762Y-94737381D02*
X153592762Y-93737381D01*
X154164191Y-94737381D01*
X154164191Y-93737381D01*
X154640381Y-94737381D02*
X154640381Y-93737381D01*
X154878476Y-93737381D01*
X155021334Y-93785000D01*
X155116572Y-93880238D01*
X155164191Y-93975476D01*
X155211810Y-94165952D01*
X155211810Y-94308810D01*
X155164191Y-94499286D01*
X155116572Y-94594524D01*
X155021334Y-94689762D01*
X154878476Y-94737381D01*
X154640381Y-94737381D01*
D11*
X155875143Y-73059285D02*
X155875143Y-71916428D01*
X156446571Y-72487857D02*
X155303714Y-72487857D01*
X154946571Y-70487856D02*
X154946571Y-71202142D01*
X155660857Y-71273571D01*
X155589429Y-71202142D01*
X155518000Y-71059285D01*
X155518000Y-70702142D01*
X155589429Y-70559285D01*
X155660857Y-70487856D01*
X155803714Y-70416428D01*
X156160857Y-70416428D01*
X156303714Y-70487856D01*
X156375143Y-70559285D01*
X156446571Y-70702142D01*
X156446571Y-71059285D01*
X156375143Y-71202142D01*
X156303714Y-71273571D01*
X154946571Y-69987857D02*
X156446571Y-69487857D01*
X154946571Y-68987857D01*
X156018000Y-67416429D02*
X156018000Y-66702143D01*
X156446571Y-67559286D02*
X154946571Y-67059286D01*
X156446571Y-66559286D01*
X156446571Y-65273572D02*
X156446571Y-66130715D01*
X156446571Y-65702143D02*
X154946571Y-65702143D01*
X155160857Y-65845000D01*
X155303714Y-65987858D01*
X155375143Y-66130715D01*
X155018000Y-62702144D02*
X154946571Y-62845001D01*
X154946571Y-63059287D01*
X155018000Y-63273572D01*
X155160857Y-63416430D01*
X155303714Y-63487858D01*
X155589429Y-63559287D01*
X155803714Y-63559287D01*
X156089429Y-63487858D01*
X156232286Y-63416430D01*
X156375143Y-63273572D01*
X156446571Y-63059287D01*
X156446571Y-62916430D01*
X156375143Y-62702144D01*
X156303714Y-62630715D01*
X155803714Y-62630715D01*
X155803714Y-62916430D01*
X156446571Y-61987858D02*
X154946571Y-61987858D01*
X156446571Y-61130715D01*
X154946571Y-61130715D01*
X156446571Y-60416429D02*
X154946571Y-60416429D01*
X154946571Y-60059286D01*
X155018000Y-59845001D01*
X155160857Y-59702143D01*
X155303714Y-59630715D01*
X155589429Y-59559286D01*
X155803714Y-59559286D01*
X156089429Y-59630715D01*
X156232286Y-59702143D01*
X156375143Y-59845001D01*
X156446571Y-60059286D01*
X156446571Y-60416429D01*
X155875143Y-88299285D02*
X155875143Y-87156428D01*
X156446571Y-87727857D02*
X155303714Y-87727857D01*
X154946571Y-85727856D02*
X154946571Y-86442142D01*
X155660857Y-86513571D01*
X155589429Y-86442142D01*
X155518000Y-86299285D01*
X155518000Y-85942142D01*
X155589429Y-85799285D01*
X155660857Y-85727856D01*
X155803714Y-85656428D01*
X156160857Y-85656428D01*
X156303714Y-85727856D01*
X156375143Y-85799285D01*
X156446571Y-85942142D01*
X156446571Y-86299285D01*
X156375143Y-86442142D01*
X156303714Y-86513571D01*
X154946571Y-85227857D02*
X156446571Y-84727857D01*
X154946571Y-84227857D01*
X156018000Y-82656429D02*
X156018000Y-81942143D01*
X156446571Y-82799286D02*
X154946571Y-82299286D01*
X156446571Y-81799286D01*
X154946571Y-81013572D02*
X154946571Y-80870715D01*
X155018000Y-80727858D01*
X155089429Y-80656429D01*
X155232286Y-80585000D01*
X155518000Y-80513572D01*
X155875143Y-80513572D01*
X156160857Y-80585000D01*
X156303714Y-80656429D01*
X156375143Y-80727858D01*
X156446571Y-80870715D01*
X156446571Y-81013572D01*
X156375143Y-81156429D01*
X156303714Y-81227858D01*
X156160857Y-81299286D01*
X155875143Y-81370715D01*
X155518000Y-81370715D01*
X155232286Y-81299286D01*
X155089429Y-81227858D01*
X155018000Y-81156429D01*
X154946571Y-81013572D01*
X155018000Y-77942144D02*
X154946571Y-78085001D01*
X154946571Y-78299287D01*
X155018000Y-78513572D01*
X155160857Y-78656430D01*
X155303714Y-78727858D01*
X155589429Y-78799287D01*
X155803714Y-78799287D01*
X156089429Y-78727858D01*
X156232286Y-78656430D01*
X156375143Y-78513572D01*
X156446571Y-78299287D01*
X156446571Y-78156430D01*
X156375143Y-77942144D01*
X156303714Y-77870715D01*
X155803714Y-77870715D01*
X155803714Y-78156430D01*
X156446571Y-77227858D02*
X154946571Y-77227858D01*
X156446571Y-76370715D01*
X154946571Y-76370715D01*
X156446571Y-75656429D02*
X154946571Y-75656429D01*
X154946571Y-75299286D01*
X155018000Y-75085001D01*
X155160857Y-74942143D01*
X155303714Y-74870715D01*
X155589429Y-74799286D01*
X155803714Y-74799286D01*
X156089429Y-74870715D01*
X156232286Y-74942143D01*
X156375143Y-75085001D01*
X156446571Y-75299286D01*
X156446571Y-75656429D01*
D12*
X145576809Y-53716429D02*
X146338714Y-53716429D01*
X145957762Y-54097381D02*
X145957762Y-53335476D01*
X147291095Y-53097381D02*
X146814904Y-53097381D01*
X146767285Y-53573571D01*
X146814904Y-53525952D01*
X146910142Y-53478333D01*
X147148238Y-53478333D01*
X147243476Y-53525952D01*
X147291095Y-53573571D01*
X147338714Y-53668810D01*
X147338714Y-53906905D01*
X147291095Y-54002143D01*
X147243476Y-54049762D01*
X147148238Y-54097381D01*
X146910142Y-54097381D01*
X146814904Y-54049762D01*
X146767285Y-54002143D01*
X147624428Y-53097381D02*
X147957761Y-54097381D01*
X148291095Y-53097381D01*
X149338714Y-53811667D02*
X149814905Y-53811667D01*
X149243476Y-54097381D02*
X149576809Y-53097381D01*
X149910143Y-54097381D01*
X150767286Y-54097381D02*
X150195857Y-54097381D01*
X150481571Y-54097381D02*
X150481571Y-53097381D01*
X150386333Y-53240238D01*
X150291095Y-53335476D01*
X150195857Y-53383095D01*
X152481572Y-53145000D02*
X152386334Y-53097381D01*
X152243477Y-53097381D01*
X152100619Y-53145000D01*
X152005381Y-53240238D01*
X151957762Y-53335476D01*
X151910143Y-53525952D01*
X151910143Y-53668810D01*
X151957762Y-53859286D01*
X152005381Y-53954524D01*
X152100619Y-54049762D01*
X152243477Y-54097381D01*
X152338715Y-54097381D01*
X152481572Y-54049762D01*
X152529191Y-54002143D01*
X152529191Y-53668810D01*
X152338715Y-53668810D01*
X152957762Y-54097381D02*
X152957762Y-53097381D01*
X153529191Y-54097381D01*
X153529191Y-53097381D01*
X154005381Y-54097381D02*
X154005381Y-53097381D01*
X154243476Y-53097381D01*
X154386334Y-53145000D01*
X154481572Y-53240238D01*
X154529191Y-53335476D01*
X154576810Y-53525952D01*
X154576810Y-53668810D01*
X154529191Y-53859286D01*
X154481572Y-53954524D01*
X154386334Y-54049762D01*
X154243476Y-54097381D01*
X154005381Y-54097381D01*
X119708000Y-62446904D02*
X119660381Y-62542142D01*
X119660381Y-62684999D01*
X119708000Y-62827857D01*
X119803238Y-62923095D01*
X119898476Y-62970714D01*
X120088952Y-63018333D01*
X120231810Y-63018333D01*
X120422286Y-62970714D01*
X120517524Y-62923095D01*
X120612762Y-62827857D01*
X120660381Y-62684999D01*
X120660381Y-62589761D01*
X120612762Y-62446904D01*
X120565143Y-62399285D01*
X120231810Y-62399285D01*
X120231810Y-62589761D01*
X120660381Y-61970714D02*
X119660381Y-61970714D01*
X120660381Y-61399285D01*
X119660381Y-61399285D01*
X120660381Y-60923095D02*
X119660381Y-60923095D01*
X119660381Y-60685000D01*
X119708000Y-60542142D01*
X119803238Y-60446904D01*
X119898476Y-60399285D01*
X120088952Y-60351666D01*
X120231810Y-60351666D01*
X120422286Y-60399285D01*
X120517524Y-60446904D01*
X120612762Y-60542142D01*
X120660381Y-60685000D01*
X120660381Y-60923095D01*
X120279429Y-59161190D02*
X120279429Y-58399285D01*
X120660381Y-58780237D02*
X119898476Y-58780237D01*
X119660381Y-57446904D02*
X119660381Y-57923095D01*
X120136571Y-57970714D01*
X120088952Y-57923095D01*
X120041333Y-57827857D01*
X120041333Y-57589761D01*
X120088952Y-57494523D01*
X120136571Y-57446904D01*
X120231810Y-57399285D01*
X120469905Y-57399285D01*
X120565143Y-57446904D01*
X120612762Y-57494523D01*
X120660381Y-57589761D01*
X120660381Y-57827857D01*
X120612762Y-57923095D01*
X120565143Y-57970714D01*
X119660381Y-57113571D02*
X120660381Y-56780238D01*
X119660381Y-56446904D01*
X120612762Y-55399285D02*
X120660381Y-55256428D01*
X120660381Y-55018332D01*
X120612762Y-54923094D01*
X120565143Y-54875475D01*
X120469905Y-54827856D01*
X120374667Y-54827856D01*
X120279429Y-54875475D01*
X120231810Y-54923094D01*
X120184190Y-55018332D01*
X120136571Y-55208809D01*
X120088952Y-55304047D01*
X120041333Y-55351666D01*
X119946095Y-55399285D01*
X119850857Y-55399285D01*
X119755619Y-55351666D01*
X119708000Y-55304047D01*
X119660381Y-55208809D01*
X119660381Y-54970713D01*
X119708000Y-54827856D01*
X120660381Y-54399285D02*
X119660381Y-54399285D01*
X119708000Y-53399285D02*
X119660381Y-53494523D01*
X119660381Y-53637380D01*
X119708000Y-53780238D01*
X119803238Y-53875476D01*
X119898476Y-53923095D01*
X120088952Y-53970714D01*
X120231810Y-53970714D01*
X120422286Y-53923095D01*
X120517524Y-53875476D01*
X120612762Y-53780238D01*
X120660381Y-53637380D01*
X120660381Y-53542142D01*
X120612762Y-53399285D01*
X120565143Y-53351666D01*
X120231810Y-53351666D01*
X120231810Y-53542142D01*
X124788000Y-62446904D02*
X124740381Y-62542142D01*
X124740381Y-62684999D01*
X124788000Y-62827857D01*
X124883238Y-62923095D01*
X124978476Y-62970714D01*
X125168952Y-63018333D01*
X125311810Y-63018333D01*
X125502286Y-62970714D01*
X125597524Y-62923095D01*
X125692762Y-62827857D01*
X125740381Y-62684999D01*
X125740381Y-62589761D01*
X125692762Y-62446904D01*
X125645143Y-62399285D01*
X125311810Y-62399285D01*
X125311810Y-62589761D01*
X125740381Y-61970714D02*
X124740381Y-61970714D01*
X125740381Y-61399285D01*
X124740381Y-61399285D01*
X125740381Y-60923095D02*
X124740381Y-60923095D01*
X124740381Y-60685000D01*
X124788000Y-60542142D01*
X124883238Y-60446904D01*
X124978476Y-60399285D01*
X125168952Y-60351666D01*
X125311810Y-60351666D01*
X125502286Y-60399285D01*
X125597524Y-60446904D01*
X125692762Y-60542142D01*
X125740381Y-60685000D01*
X125740381Y-60923095D01*
X125359429Y-59161190D02*
X125359429Y-58399285D01*
X125740381Y-58780237D02*
X124978476Y-58780237D01*
X124740381Y-57446904D02*
X124740381Y-57923095D01*
X125216571Y-57970714D01*
X125168952Y-57923095D01*
X125121333Y-57827857D01*
X125121333Y-57589761D01*
X125168952Y-57494523D01*
X125216571Y-57446904D01*
X125311810Y-57399285D01*
X125549905Y-57399285D01*
X125645143Y-57446904D01*
X125692762Y-57494523D01*
X125740381Y-57589761D01*
X125740381Y-57827857D01*
X125692762Y-57923095D01*
X125645143Y-57970714D01*
X124740381Y-57113571D02*
X125740381Y-56780238D01*
X124740381Y-56446904D01*
X125692762Y-55399285D02*
X125740381Y-55256428D01*
X125740381Y-55018332D01*
X125692762Y-54923094D01*
X125645143Y-54875475D01*
X125549905Y-54827856D01*
X125454667Y-54827856D01*
X125359429Y-54875475D01*
X125311810Y-54923094D01*
X125264190Y-55018332D01*
X125216571Y-55208809D01*
X125168952Y-55304047D01*
X125121333Y-55351666D01*
X125026095Y-55399285D01*
X124930857Y-55399285D01*
X124835619Y-55351666D01*
X124788000Y-55304047D01*
X124740381Y-55208809D01*
X124740381Y-54970713D01*
X124788000Y-54827856D01*
X125740381Y-54399285D02*
X124740381Y-54399285D01*
X124788000Y-53399285D02*
X124740381Y-53494523D01*
X124740381Y-53637380D01*
X124788000Y-53780238D01*
X124883238Y-53875476D01*
X124978476Y-53923095D01*
X125168952Y-53970714D01*
X125311810Y-53970714D01*
X125502286Y-53923095D01*
X125597524Y-53875476D01*
X125692762Y-53780238D01*
X125740381Y-53637380D01*
X125740381Y-53542142D01*
X125692762Y-53399285D01*
X125645143Y-53351666D01*
X125311810Y-53351666D01*
X125311810Y-53542142D01*
X116850381Y-98539285D02*
X116850381Y-99110714D01*
X116850381Y-98825000D02*
X115850381Y-98825000D01*
X115993238Y-98920238D01*
X116088476Y-99015476D01*
X116136095Y-99110714D01*
X100688000Y-126505000D02*
X103228000Y-126505000D01*
X101958000Y-127775000D02*
X101958000Y-125235000D01*
X103228000Y-126505000D02*
G75*
G03X103228000Y-126505000I-1270000J0D01*
G01*
X95608000Y-129045000D02*
X95608000Y-123965000D01*
X95608000Y-123965000D02*
X96878000Y-123965000D01*
X96878000Y-129045000D02*
X96878000Y-123965000D01*
X96878000Y-123965000D02*
X104498000Y-123965000D01*
X104498000Y-123965000D02*
X104498000Y-129045000D01*
X100688000Y-131585000D02*
X103228000Y-131585000D01*
X101958000Y-132855000D02*
X101958000Y-130315000D01*
X100688000Y-136665000D02*
X103228000Y-136665000D01*
X101958000Y-137935000D02*
X101958000Y-135395000D01*
X103228000Y-131585000D02*
G75*
G03X103228000Y-131585000I-1270000J0D01*
G01*
X103228000Y-136665000D02*
G75*
G03X103228000Y-136665000I-1270000J0D01*
G01*
X96878000Y-139205000D02*
X96878000Y-129045000D01*
X99418000Y-139205000D02*
X95608000Y-139205000D01*
X95608000Y-139205000D02*
X95608000Y-129045000D01*
X104498000Y-129045000D02*
X104498000Y-139205000D01*
X104498000Y-139205000D02*
X99418000Y-139205000D01*
X86230032Y-128505000D02*
G75*
G03X86230032Y-128505000I-9672032J0D01*
G01*
X89066049Y-128505000D02*
G75*
G03X89066049Y-128505000I-12508049J0D01*
G01*
X58778000Y-128505000D02*
X58778000Y-114535000D01*
X58778000Y-114535000D02*
X94338000Y-114535000D01*
X94338000Y-114535000D02*
X94338000Y-142475000D01*
X94338000Y-142475000D02*
X58778000Y-142475000D01*
X58778000Y-142475000D02*
X58778000Y-128505000D01*
X70208000Y-150095000D02*
X87988000Y-150095000D01*
X87988000Y-150095000D02*
X87988000Y-147555000D01*
X87988000Y-147555000D02*
X70208000Y-147555000D01*
X67388000Y-150375000D02*
X68938000Y-150375000D01*
X70208000Y-150095000D02*
X70208000Y-147555000D01*
X68938000Y-147275000D02*
X67388000Y-147275000D01*
X67388000Y-147275000D02*
X67388000Y-150375000D01*
X93068000Y-150095000D02*
X105768000Y-150095000D01*
X105768000Y-150095000D02*
X105768000Y-147555000D01*
X105768000Y-147555000D02*
X93068000Y-147555000D01*
X90248000Y-150375000D02*
X91798000Y-150375000D01*
X93068000Y-150095000D02*
X93068000Y-147555000D01*
X91798000Y-147275000D02*
X90248000Y-147275000D01*
X90248000Y-147275000D02*
X90248000Y-150375000D01*
X61064000Y-101835000D02*
X83924000Y-101835000D01*
X83924000Y-101835000D02*
X83924000Y-99295000D01*
X83924000Y-99295000D02*
X61064000Y-99295000D01*
X58244000Y-102115000D02*
X59794000Y-102115000D01*
X61064000Y-101835000D02*
X61064000Y-99295000D01*
X59794000Y-99015000D02*
X58244000Y-99015000D01*
X58244000Y-99015000D02*
X58244000Y-102115000D01*
X87988000Y-101835000D02*
X105768000Y-101835000D01*
X105768000Y-101835000D02*
X105768000Y-99295000D01*
X105768000Y-99295000D02*
X87988000Y-99295000D01*
X85168000Y-102115000D02*
X86718000Y-102115000D01*
X87988000Y-101835000D02*
X87988000Y-99295000D01*
X86718000Y-99015000D02*
X85168000Y-99015000D01*
X85168000Y-99015000D02*
X85168000Y-102115000D01*
D13*
X99418000Y-107515000D02*
X104558000Y-107515000D01*
X104558000Y-107515000D02*
X104558000Y-104855000D01*
X104558000Y-104855000D02*
X99418000Y-104855000D01*
X99418000Y-104855000D02*
X99418000Y-107515000D01*
X98148000Y-107515000D02*
X96818000Y-107515000D01*
X96818000Y-107515000D02*
X96818000Y-106185000D01*
X99418000Y-143075000D02*
X104558000Y-143075000D01*
X104558000Y-143075000D02*
X104558000Y-140415000D01*
X104558000Y-140415000D02*
X99418000Y-140415000D01*
X99418000Y-140415000D02*
X99418000Y-143075000D01*
X98148000Y-143075000D02*
X96818000Y-143075000D01*
X96818000Y-143075000D02*
X96818000Y-141745000D01*
D12*
X100688000Y-111265000D02*
X103228000Y-111265000D01*
X101958000Y-112535000D02*
X101958000Y-109995000D01*
X103228000Y-111265000D02*
G75*
G03X103228000Y-111265000I-1270000J0D01*
G01*
X95608000Y-113805000D02*
X95608000Y-108725000D01*
X95608000Y-108725000D02*
X96878000Y-108725000D01*
X96878000Y-113805000D02*
X96878000Y-108725000D01*
X96878000Y-108725000D02*
X104498000Y-108725000D01*
X104498000Y-108725000D02*
X104498000Y-113805000D01*
X100688000Y-116345000D02*
X103228000Y-116345000D01*
X101958000Y-117615000D02*
X101958000Y-115075000D01*
X100688000Y-121425000D02*
X103228000Y-121425000D01*
X101958000Y-122695000D02*
X101958000Y-120155000D01*
X103228000Y-116345000D02*
G75*
G03X103228000Y-116345000I-1270000J0D01*
G01*
X103228000Y-121425000D02*
G75*
G03X103228000Y-121425000I-1270000J0D01*
G01*
X96878000Y-123965000D02*
X96878000Y-113805000D01*
X99418000Y-123965000D02*
X95608000Y-123965000D01*
X95608000Y-123965000D02*
X95608000Y-113805000D01*
X104498000Y-113805000D02*
X104498000Y-123965000D01*
X104498000Y-123965000D02*
X99418000Y-123965000D01*
D13*
X79158000Y-109455000D02*
X79158000Y-104315000D01*
X79158000Y-104315000D02*
X76498000Y-104315000D01*
X76498000Y-104315000D02*
X76498000Y-109455000D01*
X76498000Y-109455000D02*
X79158000Y-109455000D01*
X79158000Y-110725000D02*
X79158000Y-112055000D01*
X79158000Y-112055000D02*
X77828000Y-112055000D01*
X84238000Y-109455000D02*
X84238000Y-104315000D01*
X84238000Y-104315000D02*
X81578000Y-104315000D01*
X81578000Y-104315000D02*
X81578000Y-109455000D01*
X81578000Y-109455000D02*
X84238000Y-109455000D01*
X84238000Y-110725000D02*
X84238000Y-112055000D01*
X84238000Y-112055000D02*
X82908000Y-112055000D01*
X68998000Y-109455000D02*
X68998000Y-104315000D01*
X68998000Y-104315000D02*
X63798000Y-104315000D01*
X63798000Y-104315000D02*
X63798000Y-112055000D01*
X63798000Y-112055000D02*
X66398000Y-112055000D01*
X66398000Y-112055000D02*
X66398000Y-109455000D01*
X66398000Y-109455000D02*
X68998000Y-109455000D01*
X68998000Y-110725000D02*
X68998000Y-112055000D01*
X68998000Y-112055000D02*
X67668000Y-112055000D01*
X58718000Y-107455000D02*
X58718000Y-110055000D01*
X58718000Y-110055000D02*
X61378000Y-110055000D01*
X61378000Y-110055000D02*
X61378000Y-107455000D01*
X61378000Y-107455000D02*
X58718000Y-107455000D01*
X58718000Y-106185000D02*
X58718000Y-104855000D01*
X58718000Y-104855000D02*
X60048000Y-104855000D01*
D12*
X150688000Y-126505000D02*
X153228000Y-126505000D01*
X151958000Y-127775000D02*
X151958000Y-125235000D01*
X153228000Y-126505000D02*
G75*
G03X153228000Y-126505000I-1270000J0D01*
G01*
X145608000Y-129045000D02*
X145608000Y-123965000D01*
X145608000Y-123965000D02*
X146878000Y-123965000D01*
X146878000Y-129045000D02*
X146878000Y-123965000D01*
X146878000Y-123965000D02*
X154498000Y-123965000D01*
X154498000Y-123965000D02*
X154498000Y-129045000D01*
X150688000Y-131585000D02*
X153228000Y-131585000D01*
X151958000Y-132855000D02*
X151958000Y-130315000D01*
X150688000Y-136665000D02*
X153228000Y-136665000D01*
X151958000Y-137935000D02*
X151958000Y-135395000D01*
X153228000Y-131585000D02*
G75*
G03X153228000Y-131585000I-1270000J0D01*
G01*
X153228000Y-136665000D02*
G75*
G03X153228000Y-136665000I-1270000J0D01*
G01*
X146878000Y-139205000D02*
X146878000Y-129045000D01*
X149418000Y-139205000D02*
X145608000Y-139205000D01*
X145608000Y-139205000D02*
X145608000Y-129045000D01*
X154498000Y-129045000D02*
X154498000Y-139205000D01*
X154498000Y-139205000D02*
X149418000Y-139205000D01*
X136230032Y-128505000D02*
G75*
G03X136230032Y-128505000I-9672032J0D01*
G01*
X139066049Y-128505000D02*
G75*
G03X139066049Y-128505000I-12508049J0D01*
G01*
X108778000Y-128505000D02*
X108778000Y-114535000D01*
X108778000Y-114535000D02*
X144338000Y-114535000D01*
X144338000Y-114535000D02*
X144338000Y-142475000D01*
X144338000Y-142475000D02*
X108778000Y-142475000D01*
X108778000Y-142475000D02*
X108778000Y-128505000D01*
X120208000Y-150095000D02*
X137988000Y-150095000D01*
X137988000Y-150095000D02*
X137988000Y-147555000D01*
X137988000Y-147555000D02*
X120208000Y-147555000D01*
X117388000Y-150375000D02*
X118938000Y-150375000D01*
X120208000Y-150095000D02*
X120208000Y-147555000D01*
X118938000Y-147275000D02*
X117388000Y-147275000D01*
X117388000Y-147275000D02*
X117388000Y-150375000D01*
X143068000Y-150095000D02*
X155768000Y-150095000D01*
X155768000Y-150095000D02*
X155768000Y-147555000D01*
X155768000Y-147555000D02*
X143068000Y-147555000D01*
X140248000Y-150375000D02*
X141798000Y-150375000D01*
X143068000Y-150095000D02*
X143068000Y-147555000D01*
X141798000Y-147275000D02*
X140248000Y-147275000D01*
X140248000Y-147275000D02*
X140248000Y-150375000D01*
X111064000Y-101835000D02*
X133924000Y-101835000D01*
X133924000Y-101835000D02*
X133924000Y-99295000D01*
X133924000Y-99295000D02*
X111064000Y-99295000D01*
X108244000Y-102115000D02*
X109794000Y-102115000D01*
X111064000Y-101835000D02*
X111064000Y-99295000D01*
X109794000Y-99015000D02*
X108244000Y-99015000D01*
X108244000Y-99015000D02*
X108244000Y-102115000D01*
X137988000Y-101835000D02*
X155768000Y-101835000D01*
X155768000Y-101835000D02*
X155768000Y-99295000D01*
X155768000Y-99295000D02*
X137988000Y-99295000D01*
X135168000Y-102115000D02*
X136718000Y-102115000D01*
X137988000Y-101835000D02*
X137988000Y-99295000D01*
X136718000Y-99015000D02*
X135168000Y-99015000D01*
X135168000Y-99015000D02*
X135168000Y-102115000D01*
D13*
X149418000Y-107515000D02*
X154558000Y-107515000D01*
X154558000Y-107515000D02*
X154558000Y-104855000D01*
X154558000Y-104855000D02*
X149418000Y-104855000D01*
X149418000Y-104855000D02*
X149418000Y-107515000D01*
X148148000Y-107515000D02*
X146818000Y-107515000D01*
X146818000Y-107515000D02*
X146818000Y-106185000D01*
X149418000Y-143075000D02*
X154558000Y-143075000D01*
X154558000Y-143075000D02*
X154558000Y-140415000D01*
X154558000Y-140415000D02*
X149418000Y-140415000D01*
X149418000Y-140415000D02*
X149418000Y-143075000D01*
X148148000Y-143075000D02*
X146818000Y-143075000D01*
X146818000Y-143075000D02*
X146818000Y-141745000D01*
D12*
X150688000Y-111265000D02*
X153228000Y-111265000D01*
X151958000Y-112535000D02*
X151958000Y-109995000D01*
X153228000Y-111265000D02*
G75*
G03X153228000Y-111265000I-1270000J0D01*
G01*
X145608000Y-113805000D02*
X145608000Y-108725000D01*
X145608000Y-108725000D02*
X146878000Y-108725000D01*
X146878000Y-113805000D02*
X146878000Y-108725000D01*
X146878000Y-108725000D02*
X154498000Y-108725000D01*
X154498000Y-108725000D02*
X154498000Y-113805000D01*
X150688000Y-116345000D02*
X153228000Y-116345000D01*
X151958000Y-117615000D02*
X151958000Y-115075000D01*
X150688000Y-121425000D02*
X153228000Y-121425000D01*
X151958000Y-122695000D02*
X151958000Y-120155000D01*
X153228000Y-116345000D02*
G75*
G03X153228000Y-116345000I-1270000J0D01*
G01*
X153228000Y-121425000D02*
G75*
G03X153228000Y-121425000I-1270000J0D01*
G01*
X146878000Y-123965000D02*
X146878000Y-113805000D01*
X149418000Y-123965000D02*
X145608000Y-123965000D01*
X145608000Y-123965000D02*
X145608000Y-113805000D01*
X154498000Y-113805000D02*
X154498000Y-123965000D01*
X154498000Y-123965000D02*
X149418000Y-123965000D01*
D13*
X129158000Y-109455000D02*
X129158000Y-104315000D01*
X129158000Y-104315000D02*
X126498000Y-104315000D01*
X126498000Y-104315000D02*
X126498000Y-109455000D01*
X126498000Y-109455000D02*
X129158000Y-109455000D01*
X129158000Y-110725000D02*
X129158000Y-112055000D01*
X129158000Y-112055000D02*
X127828000Y-112055000D01*
X134238000Y-109455000D02*
X134238000Y-104315000D01*
X134238000Y-104315000D02*
X131578000Y-104315000D01*
X131578000Y-104315000D02*
X131578000Y-109455000D01*
X131578000Y-109455000D02*
X134238000Y-109455000D01*
X134238000Y-110725000D02*
X134238000Y-112055000D01*
X134238000Y-112055000D02*
X132908000Y-112055000D01*
X118998000Y-109455000D02*
X118998000Y-104315000D01*
X118998000Y-104315000D02*
X113798000Y-104315000D01*
X113798000Y-104315000D02*
X113798000Y-112055000D01*
X113798000Y-112055000D02*
X116398000Y-112055000D01*
X116398000Y-112055000D02*
X116398000Y-109455000D01*
X116398000Y-109455000D02*
X118998000Y-109455000D01*
X118998000Y-110725000D02*
X118998000Y-112055000D01*
X118998000Y-112055000D02*
X117668000Y-112055000D01*
X108718000Y-107455000D02*
X108718000Y-110055000D01*
X108718000Y-110055000D02*
X111378000Y-110055000D01*
X111378000Y-110055000D02*
X111378000Y-107455000D01*
X111378000Y-107455000D02*
X108718000Y-107455000D01*
X108718000Y-106185000D02*
X108718000Y-104855000D01*
X108718000Y-104855000D02*
X110048000Y-104855000D01*
D12*
X100688000Y-76505000D02*
X103228000Y-76505000D01*
X101958000Y-77775000D02*
X101958000Y-75235000D01*
X103228000Y-76505000D02*
G75*
G03X103228000Y-76505000I-1270000J0D01*
G01*
X95608000Y-79045000D02*
X95608000Y-73965000D01*
X95608000Y-73965000D02*
X96878000Y-73965000D01*
X96878000Y-79045000D02*
X96878000Y-73965000D01*
X96878000Y-73965000D02*
X104498000Y-73965000D01*
X104498000Y-73965000D02*
X104498000Y-79045000D01*
X100688000Y-81585000D02*
X103228000Y-81585000D01*
X101958000Y-82855000D02*
X101958000Y-80315000D01*
X100688000Y-86665000D02*
X103228000Y-86665000D01*
X101958000Y-87935000D02*
X101958000Y-85395000D01*
X103228000Y-81585000D02*
G75*
G03X103228000Y-81585000I-1270000J0D01*
G01*
X103228000Y-86665000D02*
G75*
G03X103228000Y-86665000I-1270000J0D01*
G01*
X96878000Y-89205000D02*
X96878000Y-79045000D01*
X99418000Y-89205000D02*
X95608000Y-89205000D01*
X95608000Y-89205000D02*
X95608000Y-79045000D01*
X104498000Y-79045000D02*
X104498000Y-89205000D01*
X104498000Y-89205000D02*
X99418000Y-89205000D01*
X86230032Y-78505000D02*
G75*
G03X86230032Y-78505000I-9672032J0D01*
G01*
X89066049Y-78505000D02*
G75*
G03X89066049Y-78505000I-12508049J0D01*
G01*
X58778000Y-78505000D02*
X58778000Y-64535000D01*
X58778000Y-64535000D02*
X94338000Y-64535000D01*
X94338000Y-64535000D02*
X94338000Y-92475000D01*
X94338000Y-92475000D02*
X58778000Y-92475000D01*
X58778000Y-92475000D02*
X58778000Y-78505000D01*
X70208000Y-100095000D02*
X87988000Y-100095000D01*
X87988000Y-100095000D02*
X87988000Y-97555000D01*
X87988000Y-97555000D02*
X70208000Y-97555000D01*
X67388000Y-100375000D02*
X68938000Y-100375000D01*
X70208000Y-100095000D02*
X70208000Y-97555000D01*
X68938000Y-97275000D02*
X67388000Y-97275000D01*
X67388000Y-97275000D02*
X67388000Y-100375000D01*
X93068000Y-100095000D02*
X105768000Y-100095000D01*
X105768000Y-100095000D02*
X105768000Y-97555000D01*
X105768000Y-97555000D02*
X93068000Y-97555000D01*
X90248000Y-100375000D02*
X91798000Y-100375000D01*
X93068000Y-100095000D02*
X93068000Y-97555000D01*
X91798000Y-97275000D02*
X90248000Y-97275000D01*
X90248000Y-97275000D02*
X90248000Y-100375000D01*
X61064000Y-51835000D02*
X83924000Y-51835000D01*
X83924000Y-51835000D02*
X83924000Y-49295000D01*
X83924000Y-49295000D02*
X61064000Y-49295000D01*
X58244000Y-52115000D02*
X59794000Y-52115000D01*
X61064000Y-51835000D02*
X61064000Y-49295000D01*
X59794000Y-49015000D02*
X58244000Y-49015000D01*
X58244000Y-49015000D02*
X58244000Y-52115000D01*
X87988000Y-51835000D02*
X105768000Y-51835000D01*
X105768000Y-51835000D02*
X105768000Y-49295000D01*
X105768000Y-49295000D02*
X87988000Y-49295000D01*
X85168000Y-52115000D02*
X86718000Y-52115000D01*
X87988000Y-51835000D02*
X87988000Y-49295000D01*
X86718000Y-49015000D02*
X85168000Y-49015000D01*
X85168000Y-49015000D02*
X85168000Y-52115000D01*
D13*
X99418000Y-57515000D02*
X104558000Y-57515000D01*
X104558000Y-57515000D02*
X104558000Y-54855000D01*
X104558000Y-54855000D02*
X99418000Y-54855000D01*
X99418000Y-54855000D02*
X99418000Y-57515000D01*
X98148000Y-57515000D02*
X96818000Y-57515000D01*
X96818000Y-57515000D02*
X96818000Y-56185000D01*
X99418000Y-93075000D02*
X104558000Y-93075000D01*
X104558000Y-93075000D02*
X104558000Y-90415000D01*
X104558000Y-90415000D02*
X99418000Y-90415000D01*
X99418000Y-90415000D02*
X99418000Y-93075000D01*
X98148000Y-93075000D02*
X96818000Y-93075000D01*
X96818000Y-93075000D02*
X96818000Y-91745000D01*
D12*
X100688000Y-61265000D02*
X103228000Y-61265000D01*
X101958000Y-62535000D02*
X101958000Y-59995000D01*
X103228000Y-61265000D02*
G75*
G03X103228000Y-61265000I-1270000J0D01*
G01*
X95608000Y-63805000D02*
X95608000Y-58725000D01*
X95608000Y-58725000D02*
X96878000Y-58725000D01*
X96878000Y-63805000D02*
X96878000Y-58725000D01*
X96878000Y-58725000D02*
X104498000Y-58725000D01*
X104498000Y-58725000D02*
X104498000Y-63805000D01*
X100688000Y-66345000D02*
X103228000Y-66345000D01*
X101958000Y-67615000D02*
X101958000Y-65075000D01*
X100688000Y-71425000D02*
X103228000Y-71425000D01*
X101958000Y-72695000D02*
X101958000Y-70155000D01*
X103228000Y-66345000D02*
G75*
G03X103228000Y-66345000I-1270000J0D01*
G01*
X103228000Y-71425000D02*
G75*
G03X103228000Y-71425000I-1270000J0D01*
G01*
X96878000Y-73965000D02*
X96878000Y-63805000D01*
X99418000Y-73965000D02*
X95608000Y-73965000D01*
X95608000Y-73965000D02*
X95608000Y-63805000D01*
X104498000Y-63805000D02*
X104498000Y-73965000D01*
X104498000Y-73965000D02*
X99418000Y-73965000D01*
D13*
X79158000Y-59455000D02*
X79158000Y-54315000D01*
X79158000Y-54315000D02*
X76498000Y-54315000D01*
X76498000Y-54315000D02*
X76498000Y-59455000D01*
X76498000Y-59455000D02*
X79158000Y-59455000D01*
X79158000Y-60725000D02*
X79158000Y-62055000D01*
X79158000Y-62055000D02*
X77828000Y-62055000D01*
X84238000Y-59455000D02*
X84238000Y-54315000D01*
X84238000Y-54315000D02*
X81578000Y-54315000D01*
X81578000Y-54315000D02*
X81578000Y-59455000D01*
X81578000Y-59455000D02*
X84238000Y-59455000D01*
X84238000Y-60725000D02*
X84238000Y-62055000D01*
X84238000Y-62055000D02*
X82908000Y-62055000D01*
X68998000Y-59455000D02*
X68998000Y-54315000D01*
X68998000Y-54315000D02*
X63798000Y-54315000D01*
X63798000Y-54315000D02*
X63798000Y-62055000D01*
X63798000Y-62055000D02*
X66398000Y-62055000D01*
X66398000Y-62055000D02*
X66398000Y-59455000D01*
X66398000Y-59455000D02*
X68998000Y-59455000D01*
X68998000Y-60725000D02*
X68998000Y-62055000D01*
X68998000Y-62055000D02*
X67668000Y-62055000D01*
X58718000Y-57455000D02*
X58718000Y-60055000D01*
X58718000Y-60055000D02*
X61378000Y-60055000D01*
X61378000Y-60055000D02*
X61378000Y-57455000D01*
X61378000Y-57455000D02*
X58718000Y-57455000D01*
X58718000Y-56185000D02*
X58718000Y-54855000D01*
X58718000Y-54855000D02*
X60048000Y-54855000D01*
D12*
X150688000Y-76505000D02*
X153228000Y-76505000D01*
X151958000Y-77775000D02*
X151958000Y-75235000D01*
X153228000Y-76505000D02*
G75*
G03X153228000Y-76505000I-1270000J0D01*
G01*
X145608000Y-79045000D02*
X145608000Y-73965000D01*
X145608000Y-73965000D02*
X146878000Y-73965000D01*
X146878000Y-79045000D02*
X146878000Y-73965000D01*
X146878000Y-73965000D02*
X154498000Y-73965000D01*
X154498000Y-73965000D02*
X154498000Y-79045000D01*
X150688000Y-81585000D02*
X153228000Y-81585000D01*
X151958000Y-82855000D02*
X151958000Y-80315000D01*
X150688000Y-86665000D02*
X153228000Y-86665000D01*
X151958000Y-87935000D02*
X151958000Y-85395000D01*
X153228000Y-81585000D02*
G75*
G03X153228000Y-81585000I-1270000J0D01*
G01*
X153228000Y-86665000D02*
G75*
G03X153228000Y-86665000I-1270000J0D01*
G01*
X146878000Y-89205000D02*
X146878000Y-79045000D01*
X149418000Y-89205000D02*
X145608000Y-89205000D01*
X145608000Y-89205000D02*
X145608000Y-79045000D01*
X154498000Y-79045000D02*
X154498000Y-89205000D01*
X154498000Y-89205000D02*
X149418000Y-89205000D01*
X136230032Y-78505000D02*
G75*
G03X136230032Y-78505000I-9672032J0D01*
G01*
X139066049Y-78505000D02*
G75*
G03X139066049Y-78505000I-12508049J0D01*
G01*
X108778000Y-78505000D02*
X108778000Y-64535000D01*
X108778000Y-64535000D02*
X144338000Y-64535000D01*
X144338000Y-64535000D02*
X144338000Y-92475000D01*
X144338000Y-92475000D02*
X108778000Y-92475000D01*
X108778000Y-92475000D02*
X108778000Y-78505000D01*
X120208000Y-100095000D02*
X137988000Y-100095000D01*
X137988000Y-100095000D02*
X137988000Y-97555000D01*
X137988000Y-97555000D02*
X120208000Y-97555000D01*
X117388000Y-100375000D02*
X118938000Y-100375000D01*
X120208000Y-100095000D02*
X120208000Y-97555000D01*
X118938000Y-97275000D02*
X117388000Y-97275000D01*
X117388000Y-97275000D02*
X117388000Y-100375000D01*
X143068000Y-100095000D02*
X155768000Y-100095000D01*
X155768000Y-100095000D02*
X155768000Y-97555000D01*
X155768000Y-97555000D02*
X143068000Y-97555000D01*
X140248000Y-100375000D02*
X141798000Y-100375000D01*
X143068000Y-100095000D02*
X143068000Y-97555000D01*
X141798000Y-97275000D02*
X140248000Y-97275000D01*
X140248000Y-97275000D02*
X140248000Y-100375000D01*
X111064000Y-51835000D02*
X133924000Y-51835000D01*
X133924000Y-51835000D02*
X133924000Y-49295000D01*
X133924000Y-49295000D02*
X111064000Y-49295000D01*
X108244000Y-52115000D02*
X109794000Y-52115000D01*
X111064000Y-51835000D02*
X111064000Y-49295000D01*
X109794000Y-49015000D02*
X108244000Y-49015000D01*
X108244000Y-49015000D02*
X108244000Y-52115000D01*
X137988000Y-51835000D02*
X155768000Y-51835000D01*
X155768000Y-51835000D02*
X155768000Y-49295000D01*
X155768000Y-49295000D02*
X137988000Y-49295000D01*
X135168000Y-52115000D02*
X136718000Y-52115000D01*
X137988000Y-51835000D02*
X137988000Y-49295000D01*
X136718000Y-49015000D02*
X135168000Y-49015000D01*
X135168000Y-49015000D02*
X135168000Y-52115000D01*
D13*
X149418000Y-57515000D02*
X154558000Y-57515000D01*
X154558000Y-57515000D02*
X154558000Y-54855000D01*
X154558000Y-54855000D02*
X149418000Y-54855000D01*
X149418000Y-54855000D02*
X149418000Y-57515000D01*
X148148000Y-57515000D02*
X146818000Y-57515000D01*
X146818000Y-57515000D02*
X146818000Y-56185000D01*
X149418000Y-93075000D02*
X154558000Y-93075000D01*
X154558000Y-93075000D02*
X154558000Y-90415000D01*
X154558000Y-90415000D02*
X149418000Y-90415000D01*
X149418000Y-90415000D02*
X149418000Y-93075000D01*
X148148000Y-93075000D02*
X146818000Y-93075000D01*
X146818000Y-93075000D02*
X146818000Y-91745000D01*
D12*
X150688000Y-61265000D02*
X153228000Y-61265000D01*
X151958000Y-62535000D02*
X151958000Y-59995000D01*
X153228000Y-61265000D02*
G75*
G03X153228000Y-61265000I-1270000J0D01*
G01*
X145608000Y-63805000D02*
X145608000Y-58725000D01*
X145608000Y-58725000D02*
X146878000Y-58725000D01*
X146878000Y-63805000D02*
X146878000Y-58725000D01*
X146878000Y-58725000D02*
X154498000Y-58725000D01*
X154498000Y-58725000D02*
X154498000Y-63805000D01*
X150688000Y-66345000D02*
X153228000Y-66345000D01*
X151958000Y-67615000D02*
X151958000Y-65075000D01*
X150688000Y-71425000D02*
X153228000Y-71425000D01*
X151958000Y-72695000D02*
X151958000Y-70155000D01*
X153228000Y-66345000D02*
G75*
G03X153228000Y-66345000I-1270000J0D01*
G01*
X153228000Y-71425000D02*
G75*
G03X153228000Y-71425000I-1270000J0D01*
G01*
X146878000Y-73965000D02*
X146878000Y-63805000D01*
X149418000Y-73965000D02*
X145608000Y-73965000D01*
X145608000Y-73965000D02*
X145608000Y-63805000D01*
X154498000Y-63805000D02*
X154498000Y-73965000D01*
X154498000Y-73965000D02*
X149418000Y-73965000D01*
D13*
X129158000Y-59455000D02*
X129158000Y-54315000D01*
X129158000Y-54315000D02*
X126498000Y-54315000D01*
X126498000Y-54315000D02*
X126498000Y-59455000D01*
X126498000Y-59455000D02*
X129158000Y-59455000D01*
X129158000Y-60725000D02*
X129158000Y-62055000D01*
X129158000Y-62055000D02*
X127828000Y-62055000D01*
X134238000Y-59455000D02*
X134238000Y-54315000D01*
X134238000Y-54315000D02*
X131578000Y-54315000D01*
X131578000Y-54315000D02*
X131578000Y-59455000D01*
X131578000Y-59455000D02*
X134238000Y-59455000D01*
X134238000Y-60725000D02*
X134238000Y-62055000D01*
X134238000Y-62055000D02*
X132908000Y-62055000D01*
X118998000Y-59455000D02*
X118998000Y-54315000D01*
X118998000Y-54315000D02*
X113798000Y-54315000D01*
X113798000Y-54315000D02*
X113798000Y-62055000D01*
X113798000Y-62055000D02*
X116398000Y-62055000D01*
X116398000Y-62055000D02*
X116398000Y-59455000D01*
X116398000Y-59455000D02*
X118998000Y-59455000D01*
X118998000Y-60725000D02*
X118998000Y-62055000D01*
X118998000Y-62055000D02*
X117668000Y-62055000D01*
X108718000Y-57455000D02*
X108718000Y-60055000D01*
X108718000Y-60055000D02*
X111378000Y-60055000D01*
X111378000Y-60055000D02*
X111378000Y-57455000D01*
X111378000Y-57455000D02*
X108718000Y-57455000D01*
X108718000Y-56185000D02*
X108718000Y-54855000D01*
X108718000Y-54855000D02*
X110048000Y-54855000D01*
D12*
X97490857Y-129350000D02*
X98348000Y-129350000D01*
X98519429Y-129407142D01*
X98633714Y-129521428D01*
X98690857Y-129692857D01*
X98690857Y-129807142D01*
X97890857Y-128264285D02*
X98690857Y-128264285D01*
X97433714Y-128549999D02*
X98290857Y-128835714D01*
X98290857Y-128092856D01*
X94823714Y-135727858D02*
X94880857Y-135556429D01*
X94880857Y-135270715D01*
X94823714Y-135156429D01*
X94766571Y-135099286D01*
X94652286Y-135042143D01*
X94538000Y-135042143D01*
X94423714Y-135099286D01*
X94366571Y-135156429D01*
X94309429Y-135270715D01*
X94252286Y-135499286D01*
X94195143Y-135613572D01*
X94138000Y-135670715D01*
X94023714Y-135727858D01*
X93909429Y-135727858D01*
X93795143Y-135670715D01*
X93738000Y-135613572D01*
X93680857Y-135499286D01*
X93680857Y-135213572D01*
X93738000Y-135042143D01*
X94080857Y-134699286D02*
X94080857Y-134242143D01*
X93680857Y-134527858D02*
X94709429Y-134527858D01*
X94823714Y-134470715D01*
X94880857Y-134356429D01*
X94880857Y-134242143D01*
X94880857Y-133842144D02*
X94080857Y-133842144D01*
X93680857Y-133842144D02*
X93738000Y-133899287D01*
X93795143Y-133842144D01*
X93738000Y-133785001D01*
X93680857Y-133842144D01*
X93795143Y-133842144D01*
X94823714Y-132756429D02*
X94880857Y-132870715D01*
X94880857Y-133099286D01*
X94823714Y-133213572D01*
X94766571Y-133270715D01*
X94652286Y-133327858D01*
X94309429Y-133327858D01*
X94195143Y-133270715D01*
X94138000Y-133213572D01*
X94080857Y-133099286D01*
X94080857Y-132870715D01*
X94138000Y-132756429D01*
X94880857Y-132242144D02*
X93680857Y-132242144D01*
X94423714Y-132127858D02*
X94880857Y-131785001D01*
X94080857Y-131785001D02*
X94538000Y-132242144D01*
X94880857Y-129785000D02*
X94880857Y-130356429D01*
X93680857Y-130356429D01*
X93623714Y-128527857D02*
X95166571Y-129556428D01*
X94880857Y-127442142D02*
X94309429Y-127842142D01*
X94880857Y-128127857D02*
X93680857Y-128127857D01*
X93680857Y-127670714D01*
X93738000Y-127556428D01*
X93795143Y-127499285D01*
X93909429Y-127442142D01*
X94080857Y-127442142D01*
X94195143Y-127499285D01*
X94252286Y-127556428D01*
X94309429Y-127670714D01*
X94309429Y-128127857D01*
D11*
X61853714Y-128754999D02*
X61925143Y-128826428D01*
X61996571Y-129040714D01*
X61996571Y-129183571D01*
X61925143Y-129397856D01*
X61782286Y-129540714D01*
X61639429Y-129612142D01*
X61353714Y-129683571D01*
X61139429Y-129683571D01*
X60853714Y-129612142D01*
X60710857Y-129540714D01*
X60568000Y-129397856D01*
X60496571Y-129183571D01*
X60496571Y-129040714D01*
X60568000Y-128826428D01*
X60639429Y-128754999D01*
X61996571Y-127326428D02*
X61996571Y-128183571D01*
X61996571Y-127754999D02*
X60496571Y-127754999D01*
X60710857Y-127897856D01*
X60853714Y-128040714D01*
X60925143Y-128183571D01*
X75601571Y-132540713D02*
X75601571Y-131469284D01*
X74958714Y-132112141D02*
X76887286Y-132540713D01*
X76244429Y-131612141D02*
X76244429Y-132683570D01*
X76887286Y-132040713D02*
X74958714Y-131612141D01*
X75244429Y-131040713D02*
X75173000Y-130969284D01*
X75101571Y-130826427D01*
X75101571Y-130469284D01*
X75173000Y-130326427D01*
X75244429Y-130254998D01*
X75387286Y-130183570D01*
X75530143Y-130183570D01*
X75744429Y-130254998D01*
X76601571Y-131112141D01*
X76601571Y-130183570D01*
X75101571Y-129683570D02*
X75101571Y-128683570D01*
X76601571Y-129326427D01*
X75744429Y-127897856D02*
X75673000Y-128040714D01*
X75601571Y-128112142D01*
X75458714Y-128183571D01*
X75387286Y-128183571D01*
X75244429Y-128112142D01*
X75173000Y-128040714D01*
X75101571Y-127897856D01*
X75101571Y-127612142D01*
X75173000Y-127469285D01*
X75244429Y-127397856D01*
X75387286Y-127326428D01*
X75458714Y-127326428D01*
X75601571Y-127397856D01*
X75673000Y-127469285D01*
X75744429Y-127612142D01*
X75744429Y-127897856D01*
X75815857Y-128040714D01*
X75887286Y-128112142D01*
X76030143Y-128183571D01*
X76315857Y-128183571D01*
X76458714Y-128112142D01*
X76530143Y-128040714D01*
X76601571Y-127897856D01*
X76601571Y-127612142D01*
X76530143Y-127469285D01*
X76458714Y-127397856D01*
X76315857Y-127326428D01*
X76030143Y-127326428D01*
X75887286Y-127397856D01*
X75815857Y-127469285D01*
X75744429Y-127612142D01*
X75101571Y-126397857D02*
X75101571Y-126255000D01*
X75173000Y-126112143D01*
X75244429Y-126040714D01*
X75387286Y-125969285D01*
X75673000Y-125897857D01*
X76030143Y-125897857D01*
X76315857Y-125969285D01*
X76458714Y-126040714D01*
X76530143Y-126112143D01*
X76601571Y-126255000D01*
X76601571Y-126397857D01*
X76530143Y-126540714D01*
X76458714Y-126612143D01*
X76315857Y-126683571D01*
X76030143Y-126755000D01*
X75673000Y-126755000D01*
X75387286Y-126683571D01*
X75244429Y-126612143D01*
X75173000Y-126540714D01*
X75101571Y-126397857D01*
X75101571Y-124969286D02*
X75101571Y-124826429D01*
X75173000Y-124683572D01*
X75244429Y-124612143D01*
X75387286Y-124540714D01*
X75673000Y-124469286D01*
X76030143Y-124469286D01*
X76315857Y-124540714D01*
X76458714Y-124612143D01*
X76530143Y-124683572D01*
X76601571Y-124826429D01*
X76601571Y-124969286D01*
X76530143Y-125112143D01*
X76458714Y-125183572D01*
X76315857Y-125255000D01*
X76030143Y-125326429D01*
X75673000Y-125326429D01*
X75387286Y-125255000D01*
X75244429Y-125183572D01*
X75173000Y-125112143D01*
X75101571Y-124969286D01*
D12*
X67564905Y-146102381D02*
X67564905Y-145102381D01*
X67945858Y-145102381D01*
X68041096Y-145150000D01*
X68088715Y-145197619D01*
X68136334Y-145292857D01*
X68136334Y-145435714D01*
X68088715Y-145530952D01*
X68041096Y-145578571D01*
X67945858Y-145626190D01*
X67564905Y-145626190D01*
X69088715Y-146102381D02*
X68517286Y-146102381D01*
X68803000Y-146102381D02*
X68803000Y-145102381D01*
X68707762Y-145245238D01*
X68612524Y-145340476D01*
X68517286Y-145388095D01*
X90424905Y-146102381D02*
X90424905Y-145102381D01*
X90805858Y-145102381D01*
X90901096Y-145150000D01*
X90948715Y-145197619D01*
X90996334Y-145292857D01*
X90996334Y-145435714D01*
X90948715Y-145530952D01*
X90901096Y-145578571D01*
X90805858Y-145626190D01*
X90424905Y-145626190D01*
X91377286Y-145197619D02*
X91424905Y-145150000D01*
X91520143Y-145102381D01*
X91758239Y-145102381D01*
X91853477Y-145150000D01*
X91901096Y-145197619D01*
X91948715Y-145292857D01*
X91948715Y-145388095D01*
X91901096Y-145530952D01*
X91329667Y-146102381D01*
X91948715Y-146102381D01*
X58674905Y-104192381D02*
X58674905Y-103192381D01*
X59055858Y-103192381D01*
X59151096Y-103240000D01*
X59198715Y-103287619D01*
X59246334Y-103382857D01*
X59246334Y-103525714D01*
X59198715Y-103620952D01*
X59151096Y-103668571D01*
X59055858Y-103716190D01*
X58674905Y-103716190D01*
X59579667Y-103192381D02*
X60198715Y-103192381D01*
X59865381Y-103573333D01*
X60008239Y-103573333D01*
X60103477Y-103620952D01*
X60151096Y-103668571D01*
X60198715Y-103763810D01*
X60198715Y-104001905D01*
X60151096Y-104097143D01*
X60103477Y-104144762D01*
X60008239Y-104192381D01*
X59722524Y-104192381D01*
X59627286Y-104144762D01*
X59579667Y-104097143D01*
X85979905Y-104192381D02*
X85979905Y-103192381D01*
X86360858Y-103192381D01*
X86456096Y-103240000D01*
X86503715Y-103287619D01*
X86551334Y-103382857D01*
X86551334Y-103525714D01*
X86503715Y-103620952D01*
X86456096Y-103668571D01*
X86360858Y-103716190D01*
X85979905Y-103716190D01*
X87408477Y-103525714D02*
X87408477Y-104192381D01*
X87170381Y-103144762D02*
X86932286Y-103859048D01*
X87551334Y-103859048D01*
X105220381Y-106518333D02*
X105934667Y-106518333D01*
X106077524Y-106565953D01*
X106172762Y-106661191D01*
X106220381Y-106804048D01*
X106220381Y-106899286D01*
X106220381Y-105518333D02*
X106220381Y-106089762D01*
X106220381Y-105804048D02*
X105220381Y-105804048D01*
X105363238Y-105899286D01*
X105458476Y-105994524D01*
X105506095Y-106089762D01*
X95060381Y-107494524D02*
X95869905Y-107494524D01*
X95965143Y-107446905D01*
X96012762Y-107399286D01*
X96060381Y-107304048D01*
X96060381Y-107113571D01*
X96012762Y-107018333D01*
X95965143Y-106970714D01*
X95869905Y-106923095D01*
X95060381Y-106923095D01*
X95012762Y-105732619D02*
X96298476Y-106589762D01*
X96060381Y-105399286D02*
X95060381Y-105399286D01*
X95060381Y-105161191D01*
X95108000Y-105018333D01*
X95203238Y-104923095D01*
X95298476Y-104875476D01*
X95488952Y-104827857D01*
X95631810Y-104827857D01*
X95822286Y-104875476D01*
X95917524Y-104923095D01*
X96012762Y-105018333D01*
X96060381Y-105161191D01*
X96060381Y-105399286D01*
X105220381Y-142078333D02*
X105934667Y-142078333D01*
X106077524Y-142125953D01*
X106172762Y-142221191D01*
X106220381Y-142364048D01*
X106220381Y-142459286D01*
X105315619Y-141649762D02*
X105268000Y-141602143D01*
X105220381Y-141506905D01*
X105220381Y-141268809D01*
X105268000Y-141173571D01*
X105315619Y-141125952D01*
X105410857Y-141078333D01*
X105506095Y-141078333D01*
X105648952Y-141125952D01*
X106220381Y-141697381D01*
X106220381Y-141078333D01*
X96060381Y-142459285D02*
X96060381Y-142935476D01*
X95060381Y-142935476D01*
X95012762Y-141411666D02*
X96298476Y-142268809D01*
X96060381Y-140506904D02*
X95584190Y-140840238D01*
X96060381Y-141078333D02*
X95060381Y-141078333D01*
X95060381Y-140697380D01*
X95108000Y-140602142D01*
X95155619Y-140554523D01*
X95250857Y-140506904D01*
X95393714Y-140506904D01*
X95488952Y-140554523D01*
X95536571Y-140602142D01*
X95584190Y-140697380D01*
X95584190Y-141078333D01*
X97490857Y-114110000D02*
X98348000Y-114110000D01*
X98519429Y-114167142D01*
X98633714Y-114281428D01*
X98690857Y-114452857D01*
X98690857Y-114567142D01*
X97490857Y-113652856D02*
X97490857Y-112909999D01*
X97948000Y-113309999D01*
X97948000Y-113138571D01*
X98005143Y-113024285D01*
X98062286Y-112967142D01*
X98176571Y-112909999D01*
X98462286Y-112909999D01*
X98576571Y-112967142D01*
X98633714Y-113024285D01*
X98690857Y-113138571D01*
X98690857Y-113481428D01*
X98633714Y-113595714D01*
X98576571Y-113652856D01*
X94823714Y-120630715D02*
X94880857Y-120459286D01*
X94880857Y-120173572D01*
X94823714Y-120059286D01*
X94766571Y-120002143D01*
X94652286Y-119945000D01*
X94538000Y-119945000D01*
X94423714Y-120002143D01*
X94366571Y-120059286D01*
X94309429Y-120173572D01*
X94252286Y-120402143D01*
X94195143Y-120516429D01*
X94138000Y-120573572D01*
X94023714Y-120630715D01*
X93909429Y-120630715D01*
X93795143Y-120573572D01*
X93738000Y-120516429D01*
X93680857Y-120402143D01*
X93680857Y-120116429D01*
X93738000Y-119945000D01*
X94080857Y-119602143D02*
X94080857Y-119145000D01*
X93680857Y-119430715D02*
X94709429Y-119430715D01*
X94823714Y-119373572D01*
X94880857Y-119259286D01*
X94880857Y-119145000D01*
X94880857Y-118745001D02*
X94080857Y-118745001D01*
X93680857Y-118745001D02*
X93738000Y-118802144D01*
X93795143Y-118745001D01*
X93738000Y-118687858D01*
X93680857Y-118745001D01*
X93795143Y-118745001D01*
X94823714Y-117659286D02*
X94880857Y-117773572D01*
X94880857Y-118002143D01*
X94823714Y-118116429D01*
X94766571Y-118173572D01*
X94652286Y-118230715D01*
X94309429Y-118230715D01*
X94195143Y-118173572D01*
X94138000Y-118116429D01*
X94080857Y-118002143D01*
X94080857Y-117773572D01*
X94138000Y-117659286D01*
X94880857Y-117145001D02*
X93680857Y-117145001D01*
X94423714Y-117030715D02*
X94880857Y-116687858D01*
X94080857Y-116687858D02*
X94538000Y-117145001D01*
X93680857Y-115259286D02*
X94652286Y-115259286D01*
X94766571Y-115202143D01*
X94823714Y-115145000D01*
X94880857Y-115030714D01*
X94880857Y-114802143D01*
X94823714Y-114687857D01*
X94766571Y-114630714D01*
X94652286Y-114573571D01*
X93680857Y-114573571D01*
X93623714Y-113145000D02*
X95166571Y-114173571D01*
X94880857Y-112745000D02*
X93680857Y-112745000D01*
X93680857Y-112459285D01*
X93738000Y-112287857D01*
X93852286Y-112173571D01*
X93966571Y-112116428D01*
X94195143Y-112059285D01*
X94366571Y-112059285D01*
X94595143Y-112116428D01*
X94709429Y-112173571D01*
X94823714Y-112287857D01*
X94880857Y-112459285D01*
X94880857Y-112745000D01*
X77494667Y-112507381D02*
X77494667Y-113221667D01*
X77447047Y-113364524D01*
X77351809Y-113459762D01*
X77208952Y-113507381D01*
X77113714Y-113507381D01*
X78447048Y-112507381D02*
X77970857Y-112507381D01*
X77923238Y-112983571D01*
X77970857Y-112935952D01*
X78066095Y-112888333D01*
X78304191Y-112888333D01*
X78399429Y-112935952D01*
X78447048Y-112983571D01*
X78494667Y-113078810D01*
X78494667Y-113316905D01*
X78447048Y-113412143D01*
X78399429Y-113459762D01*
X78304191Y-113507381D01*
X78066095Y-113507381D01*
X77970857Y-113459762D01*
X77923238Y-113412143D01*
X80772762Y-111970715D02*
X80820381Y-111827858D01*
X80820381Y-111589762D01*
X80772762Y-111494524D01*
X80725143Y-111446905D01*
X80629905Y-111399286D01*
X80534667Y-111399286D01*
X80439429Y-111446905D01*
X80391810Y-111494524D01*
X80344190Y-111589762D01*
X80296571Y-111780239D01*
X80248952Y-111875477D01*
X80201333Y-111923096D01*
X80106095Y-111970715D01*
X80010857Y-111970715D01*
X79915619Y-111923096D01*
X79868000Y-111875477D01*
X79820381Y-111780239D01*
X79820381Y-111542143D01*
X79868000Y-111399286D01*
X80772762Y-110589762D02*
X80820381Y-110685000D01*
X80820381Y-110875477D01*
X80772762Y-110970715D01*
X80677524Y-111018334D01*
X80296571Y-111018334D01*
X80201333Y-110970715D01*
X80153714Y-110875477D01*
X80153714Y-110685000D01*
X80201333Y-110589762D01*
X80296571Y-110542143D01*
X80391810Y-110542143D01*
X80487048Y-111018334D01*
X80820381Y-110113572D02*
X80153714Y-110113572D01*
X80344190Y-110113572D02*
X80248952Y-110065953D01*
X80201333Y-110018334D01*
X80153714Y-109923096D01*
X80153714Y-109827857D01*
X80153714Y-109589762D02*
X80820381Y-109351667D01*
X80153714Y-109113571D01*
X80820381Y-108589762D02*
X80772762Y-108685000D01*
X80725143Y-108732619D01*
X80629905Y-108780238D01*
X80344190Y-108780238D01*
X80248952Y-108732619D01*
X80201333Y-108685000D01*
X80153714Y-108589762D01*
X80153714Y-108446904D01*
X80201333Y-108351666D01*
X80248952Y-108304047D01*
X80344190Y-108256428D01*
X80629905Y-108256428D01*
X80725143Y-108304047D01*
X80772762Y-108351666D01*
X80820381Y-108446904D01*
X80820381Y-108589762D01*
X79820381Y-107065952D02*
X80629905Y-107065952D01*
X80725143Y-107018333D01*
X80772762Y-106970714D01*
X80820381Y-106875476D01*
X80820381Y-106684999D01*
X80772762Y-106589761D01*
X80725143Y-106542142D01*
X80629905Y-106494523D01*
X79820381Y-106494523D01*
X79772762Y-105304047D02*
X81058476Y-106161190D01*
X80820381Y-104970714D02*
X79820381Y-104970714D01*
X79820381Y-104732619D01*
X79868000Y-104589761D01*
X79963238Y-104494523D01*
X80058476Y-104446904D01*
X80248952Y-104399285D01*
X80391810Y-104399285D01*
X80582286Y-104446904D01*
X80677524Y-104494523D01*
X80772762Y-104589761D01*
X80820381Y-104732619D01*
X80820381Y-104970714D01*
X82574667Y-112507381D02*
X82574667Y-113221667D01*
X82527047Y-113364524D01*
X82431809Y-113459762D01*
X82288952Y-113507381D01*
X82193714Y-113507381D01*
X83479429Y-112507381D02*
X83288952Y-112507381D01*
X83193714Y-112555000D01*
X83146095Y-112602619D01*
X83050857Y-112745476D01*
X83003238Y-112935952D01*
X83003238Y-113316905D01*
X83050857Y-113412143D01*
X83098476Y-113459762D01*
X83193714Y-113507381D01*
X83384191Y-113507381D01*
X83479429Y-113459762D01*
X83527048Y-113412143D01*
X83574667Y-113316905D01*
X83574667Y-113078810D01*
X83527048Y-112983571D01*
X83479429Y-112935952D01*
X83384191Y-112888333D01*
X83193714Y-112888333D01*
X83098476Y-112935952D01*
X83050857Y-112983571D01*
X83003238Y-113078810D01*
X85852762Y-111851667D02*
X85900381Y-111708810D01*
X85900381Y-111470714D01*
X85852762Y-111375476D01*
X85805143Y-111327857D01*
X85709905Y-111280238D01*
X85614667Y-111280238D01*
X85519429Y-111327857D01*
X85471810Y-111375476D01*
X85424190Y-111470714D01*
X85376571Y-111661191D01*
X85328952Y-111756429D01*
X85281333Y-111804048D01*
X85186095Y-111851667D01*
X85090857Y-111851667D01*
X84995619Y-111804048D01*
X84948000Y-111756429D01*
X84900381Y-111661191D01*
X84900381Y-111423095D01*
X84948000Y-111280238D01*
X85852762Y-110470714D02*
X85900381Y-110565952D01*
X85900381Y-110756429D01*
X85852762Y-110851667D01*
X85757524Y-110899286D01*
X85376571Y-110899286D01*
X85281333Y-110851667D01*
X85233714Y-110756429D01*
X85233714Y-110565952D01*
X85281333Y-110470714D01*
X85376571Y-110423095D01*
X85471810Y-110423095D01*
X85567048Y-110899286D01*
X85900381Y-109994524D02*
X85233714Y-109994524D01*
X85424190Y-109994524D02*
X85328952Y-109946905D01*
X85281333Y-109899286D01*
X85233714Y-109804048D01*
X85233714Y-109708809D01*
X85233714Y-109470714D02*
X85900381Y-109232619D01*
X85233714Y-108994523D01*
X85900381Y-108470714D02*
X85852762Y-108565952D01*
X85805143Y-108613571D01*
X85709905Y-108661190D01*
X85424190Y-108661190D01*
X85328952Y-108613571D01*
X85281333Y-108565952D01*
X85233714Y-108470714D01*
X85233714Y-108327856D01*
X85281333Y-108232618D01*
X85328952Y-108184999D01*
X85424190Y-108137380D01*
X85709905Y-108137380D01*
X85805143Y-108184999D01*
X85852762Y-108232618D01*
X85900381Y-108327856D01*
X85900381Y-108470714D01*
X85900381Y-106470713D02*
X85900381Y-106946904D01*
X84900381Y-106946904D01*
X84852762Y-105423094D02*
X86138476Y-106280237D01*
X85900381Y-104518332D02*
X85424190Y-104851666D01*
X85900381Y-105089761D02*
X84900381Y-105089761D01*
X84900381Y-104708808D01*
X84948000Y-104613570D01*
X84995619Y-104565951D01*
X85090857Y-104518332D01*
X85233714Y-104518332D01*
X85328952Y-104565951D01*
X85376571Y-104613570D01*
X85424190Y-104708808D01*
X85424190Y-105089761D01*
X66064667Y-112507381D02*
X66064667Y-113221667D01*
X66017047Y-113364524D01*
X65921809Y-113459762D01*
X65778952Y-113507381D01*
X65683714Y-113507381D01*
X66445619Y-112507381D02*
X67112286Y-112507381D01*
X66683714Y-113507381D01*
X63000858Y-112955714D02*
X63000858Y-113622381D01*
X62572286Y-112955714D02*
X62572286Y-113479524D01*
X62619905Y-113574762D01*
X62715143Y-113622381D01*
X62858001Y-113622381D01*
X62953239Y-113574762D01*
X63000858Y-113527143D01*
X63477048Y-112955714D02*
X63477048Y-113622381D01*
X63477048Y-113050952D02*
X63524667Y-113003333D01*
X63619905Y-112955714D01*
X63762763Y-112955714D01*
X63858001Y-113003333D01*
X63905620Y-113098571D01*
X63905620Y-113622381D01*
X64381810Y-113622381D02*
X64381810Y-112955714D01*
X64381810Y-112622381D02*
X64334191Y-112670000D01*
X64381810Y-112717619D01*
X64429429Y-112670000D01*
X64381810Y-112622381D01*
X64381810Y-112717619D01*
X64762762Y-112955714D02*
X65000857Y-113622381D01*
X65238953Y-112955714D01*
X58976571Y-111717381D02*
X58976571Y-110717381D01*
X58976571Y-111098333D02*
X59071809Y-111050714D01*
X59262286Y-111050714D01*
X59357524Y-111098333D01*
X59405143Y-111145952D01*
X59452762Y-111241190D01*
X59452762Y-111526905D01*
X59405143Y-111622143D01*
X59357524Y-111669762D01*
X59262286Y-111717381D01*
X59071809Y-111717381D01*
X58976571Y-111669762D01*
X60309905Y-111717381D02*
X60309905Y-111193571D01*
X60262286Y-111098333D01*
X60167048Y-111050714D01*
X59976571Y-111050714D01*
X59881333Y-111098333D01*
X60309905Y-111669762D02*
X60214667Y-111717381D01*
X59976571Y-111717381D01*
X59881333Y-111669762D01*
X59833714Y-111574524D01*
X59833714Y-111479286D01*
X59881333Y-111384048D01*
X59976571Y-111336429D01*
X60214667Y-111336429D01*
X60309905Y-111288810D01*
X60786095Y-111717381D02*
X60786095Y-110717381D01*
X60881333Y-111336429D02*
X61167048Y-111717381D01*
X61167048Y-111050714D02*
X60786095Y-111431667D01*
X147490857Y-129350000D02*
X148348000Y-129350000D01*
X148519429Y-129407142D01*
X148633714Y-129521428D01*
X148690857Y-129692857D01*
X148690857Y-129807142D01*
X147890857Y-128264285D02*
X148690857Y-128264285D01*
X147433714Y-128549999D02*
X148290857Y-128835714D01*
X148290857Y-128092856D01*
X144823714Y-135727858D02*
X144880857Y-135556429D01*
X144880857Y-135270715D01*
X144823714Y-135156429D01*
X144766571Y-135099286D01*
X144652286Y-135042143D01*
X144538000Y-135042143D01*
X144423714Y-135099286D01*
X144366571Y-135156429D01*
X144309429Y-135270715D01*
X144252286Y-135499286D01*
X144195143Y-135613572D01*
X144138000Y-135670715D01*
X144023714Y-135727858D01*
X143909429Y-135727858D01*
X143795143Y-135670715D01*
X143738000Y-135613572D01*
X143680857Y-135499286D01*
X143680857Y-135213572D01*
X143738000Y-135042143D01*
X144080857Y-134699286D02*
X144080857Y-134242143D01*
X143680857Y-134527858D02*
X144709429Y-134527858D01*
X144823714Y-134470715D01*
X144880857Y-134356429D01*
X144880857Y-134242143D01*
X144880857Y-133842144D02*
X144080857Y-133842144D01*
X143680857Y-133842144D02*
X143738000Y-133899287D01*
X143795143Y-133842144D01*
X143738000Y-133785001D01*
X143680857Y-133842144D01*
X143795143Y-133842144D01*
X144823714Y-132756429D02*
X144880857Y-132870715D01*
X144880857Y-133099286D01*
X144823714Y-133213572D01*
X144766571Y-133270715D01*
X144652286Y-133327858D01*
X144309429Y-133327858D01*
X144195143Y-133270715D01*
X144138000Y-133213572D01*
X144080857Y-133099286D01*
X144080857Y-132870715D01*
X144138000Y-132756429D01*
X144880857Y-132242144D02*
X143680857Y-132242144D01*
X144423714Y-132127858D02*
X144880857Y-131785001D01*
X144080857Y-131785001D02*
X144538000Y-132242144D01*
X144880857Y-129785000D02*
X144880857Y-130356429D01*
X143680857Y-130356429D01*
X143623714Y-128527857D02*
X145166571Y-129556428D01*
X144880857Y-127442142D02*
X144309429Y-127842142D01*
X144880857Y-128127857D02*
X143680857Y-128127857D01*
X143680857Y-127670714D01*
X143738000Y-127556428D01*
X143795143Y-127499285D01*
X143909429Y-127442142D01*
X144080857Y-127442142D01*
X144195143Y-127499285D01*
X144252286Y-127556428D01*
X144309429Y-127670714D01*
X144309429Y-128127857D01*
D11*
X111853714Y-128754999D02*
X111925143Y-128826428D01*
X111996571Y-129040714D01*
X111996571Y-129183571D01*
X111925143Y-129397856D01*
X111782286Y-129540714D01*
X111639429Y-129612142D01*
X111353714Y-129683571D01*
X111139429Y-129683571D01*
X110853714Y-129612142D01*
X110710857Y-129540714D01*
X110568000Y-129397856D01*
X110496571Y-129183571D01*
X110496571Y-129040714D01*
X110568000Y-128826428D01*
X110639429Y-128754999D01*
X111996571Y-127326428D02*
X111996571Y-128183571D01*
X111996571Y-127754999D02*
X110496571Y-127754999D01*
X110710857Y-127897856D01*
X110853714Y-128040714D01*
X110925143Y-128183571D01*
X125601571Y-132540713D02*
X125601571Y-131469284D01*
X124958714Y-132112141D02*
X126887286Y-132540713D01*
X126244429Y-131612141D02*
X126244429Y-132683570D01*
X126887286Y-132040713D02*
X124958714Y-131612141D01*
X125244429Y-131040713D02*
X125173000Y-130969284D01*
X125101571Y-130826427D01*
X125101571Y-130469284D01*
X125173000Y-130326427D01*
X125244429Y-130254998D01*
X125387286Y-130183570D01*
X125530143Y-130183570D01*
X125744429Y-130254998D01*
X126601571Y-131112141D01*
X126601571Y-130183570D01*
X125101571Y-129683570D02*
X125101571Y-128683570D01*
X126601571Y-129326427D01*
X125744429Y-127897856D02*
X125673000Y-128040714D01*
X125601571Y-128112142D01*
X125458714Y-128183571D01*
X125387286Y-128183571D01*
X125244429Y-128112142D01*
X125173000Y-128040714D01*
X125101571Y-127897856D01*
X125101571Y-127612142D01*
X125173000Y-127469285D01*
X125244429Y-127397856D01*
X125387286Y-127326428D01*
X125458714Y-127326428D01*
X125601571Y-127397856D01*
X125673000Y-127469285D01*
X125744429Y-127612142D01*
X125744429Y-127897856D01*
X125815857Y-128040714D01*
X125887286Y-128112142D01*
X126030143Y-128183571D01*
X126315857Y-128183571D01*
X126458714Y-128112142D01*
X126530143Y-128040714D01*
X126601571Y-127897856D01*
X126601571Y-127612142D01*
X126530143Y-127469285D01*
X126458714Y-127397856D01*
X126315857Y-127326428D01*
X126030143Y-127326428D01*
X125887286Y-127397856D01*
X125815857Y-127469285D01*
X125744429Y-127612142D01*
X125101571Y-126397857D02*
X125101571Y-126255000D01*
X125173000Y-126112143D01*
X125244429Y-126040714D01*
X125387286Y-125969285D01*
X125673000Y-125897857D01*
X126030143Y-125897857D01*
X126315857Y-125969285D01*
X126458714Y-126040714D01*
X126530143Y-126112143D01*
X126601571Y-126255000D01*
X126601571Y-126397857D01*
X126530143Y-126540714D01*
X126458714Y-126612143D01*
X126315857Y-126683571D01*
X126030143Y-126755000D01*
X125673000Y-126755000D01*
X125387286Y-126683571D01*
X125244429Y-126612143D01*
X125173000Y-126540714D01*
X125101571Y-126397857D01*
X125101571Y-124969286D02*
X125101571Y-124826429D01*
X125173000Y-124683572D01*
X125244429Y-124612143D01*
X125387286Y-124540714D01*
X125673000Y-124469286D01*
X126030143Y-124469286D01*
X126315857Y-124540714D01*
X126458714Y-124612143D01*
X126530143Y-124683572D01*
X126601571Y-124826429D01*
X126601571Y-124969286D01*
X126530143Y-125112143D01*
X126458714Y-125183572D01*
X126315857Y-125255000D01*
X126030143Y-125326429D01*
X125673000Y-125326429D01*
X125387286Y-125255000D01*
X125244429Y-125183572D01*
X125173000Y-125112143D01*
X125101571Y-124969286D01*
D12*
X117564905Y-146102381D02*
X117564905Y-145102381D01*
X117945858Y-145102381D01*
X118041096Y-145150000D01*
X118088715Y-145197619D01*
X118136334Y-145292857D01*
X118136334Y-145435714D01*
X118088715Y-145530952D01*
X118041096Y-145578571D01*
X117945858Y-145626190D01*
X117564905Y-145626190D01*
X119088715Y-146102381D02*
X118517286Y-146102381D01*
X118803000Y-146102381D02*
X118803000Y-145102381D01*
X118707762Y-145245238D01*
X118612524Y-145340476D01*
X118517286Y-145388095D01*
X140424905Y-146102381D02*
X140424905Y-145102381D01*
X140805858Y-145102381D01*
X140901096Y-145150000D01*
X140948715Y-145197619D01*
X140996334Y-145292857D01*
X140996334Y-145435714D01*
X140948715Y-145530952D01*
X140901096Y-145578571D01*
X140805858Y-145626190D01*
X140424905Y-145626190D01*
X141377286Y-145197619D02*
X141424905Y-145150000D01*
X141520143Y-145102381D01*
X141758239Y-145102381D01*
X141853477Y-145150000D01*
X141901096Y-145197619D01*
X141948715Y-145292857D01*
X141948715Y-145388095D01*
X141901096Y-145530952D01*
X141329667Y-146102381D01*
X141948715Y-146102381D01*
X108674905Y-104192381D02*
X108674905Y-103192381D01*
X109055858Y-103192381D01*
X109151096Y-103240000D01*
X109198715Y-103287619D01*
X109246334Y-103382857D01*
X109246334Y-103525714D01*
X109198715Y-103620952D01*
X109151096Y-103668571D01*
X109055858Y-103716190D01*
X108674905Y-103716190D01*
X109579667Y-103192381D02*
X110198715Y-103192381D01*
X109865381Y-103573333D01*
X110008239Y-103573333D01*
X110103477Y-103620952D01*
X110151096Y-103668571D01*
X110198715Y-103763810D01*
X110198715Y-104001905D01*
X110151096Y-104097143D01*
X110103477Y-104144762D01*
X110008239Y-104192381D01*
X109722524Y-104192381D01*
X109627286Y-104144762D01*
X109579667Y-104097143D01*
X135979905Y-104192381D02*
X135979905Y-103192381D01*
X136360858Y-103192381D01*
X136456096Y-103240000D01*
X136503715Y-103287619D01*
X136551334Y-103382857D01*
X136551334Y-103525714D01*
X136503715Y-103620952D01*
X136456096Y-103668571D01*
X136360858Y-103716190D01*
X135979905Y-103716190D01*
X137408477Y-103525714D02*
X137408477Y-104192381D01*
X137170381Y-103144762D02*
X136932286Y-103859048D01*
X137551334Y-103859048D01*
X155220381Y-106518333D02*
X155934667Y-106518333D01*
X156077524Y-106565953D01*
X156172762Y-106661191D01*
X156220381Y-106804048D01*
X156220381Y-106899286D01*
X156220381Y-105518333D02*
X156220381Y-106089762D01*
X156220381Y-105804048D02*
X155220381Y-105804048D01*
X155363238Y-105899286D01*
X155458476Y-105994524D01*
X155506095Y-106089762D01*
X145060381Y-107494524D02*
X145869905Y-107494524D01*
X145965143Y-107446905D01*
X146012762Y-107399286D01*
X146060381Y-107304048D01*
X146060381Y-107113571D01*
X146012762Y-107018333D01*
X145965143Y-106970714D01*
X145869905Y-106923095D01*
X145060381Y-106923095D01*
X145012762Y-105732619D02*
X146298476Y-106589762D01*
X146060381Y-105399286D02*
X145060381Y-105399286D01*
X145060381Y-105161191D01*
X145108000Y-105018333D01*
X145203238Y-104923095D01*
X145298476Y-104875476D01*
X145488952Y-104827857D01*
X145631810Y-104827857D01*
X145822286Y-104875476D01*
X145917524Y-104923095D01*
X146012762Y-105018333D01*
X146060381Y-105161191D01*
X146060381Y-105399286D01*
X155220381Y-142078333D02*
X155934667Y-142078333D01*
X156077524Y-142125953D01*
X156172762Y-142221191D01*
X156220381Y-142364048D01*
X156220381Y-142459286D01*
X155315619Y-141649762D02*
X155268000Y-141602143D01*
X155220381Y-141506905D01*
X155220381Y-141268809D01*
X155268000Y-141173571D01*
X155315619Y-141125952D01*
X155410857Y-141078333D01*
X155506095Y-141078333D01*
X155648952Y-141125952D01*
X156220381Y-141697381D01*
X156220381Y-141078333D01*
X146060381Y-142459285D02*
X146060381Y-142935476D01*
X145060381Y-142935476D01*
X145012762Y-141411666D02*
X146298476Y-142268809D01*
X146060381Y-140506904D02*
X145584190Y-140840238D01*
X146060381Y-141078333D02*
X145060381Y-141078333D01*
X145060381Y-140697380D01*
X145108000Y-140602142D01*
X145155619Y-140554523D01*
X145250857Y-140506904D01*
X145393714Y-140506904D01*
X145488952Y-140554523D01*
X145536571Y-140602142D01*
X145584190Y-140697380D01*
X145584190Y-141078333D01*
X147490857Y-114110000D02*
X148348000Y-114110000D01*
X148519429Y-114167142D01*
X148633714Y-114281428D01*
X148690857Y-114452857D01*
X148690857Y-114567142D01*
X147490857Y-113652856D02*
X147490857Y-112909999D01*
X147948000Y-113309999D01*
X147948000Y-113138571D01*
X148005143Y-113024285D01*
X148062286Y-112967142D01*
X148176571Y-112909999D01*
X148462286Y-112909999D01*
X148576571Y-112967142D01*
X148633714Y-113024285D01*
X148690857Y-113138571D01*
X148690857Y-113481428D01*
X148633714Y-113595714D01*
X148576571Y-113652856D01*
X144823714Y-120630715D02*
X144880857Y-120459286D01*
X144880857Y-120173572D01*
X144823714Y-120059286D01*
X144766571Y-120002143D01*
X144652286Y-119945000D01*
X144538000Y-119945000D01*
X144423714Y-120002143D01*
X144366571Y-120059286D01*
X144309429Y-120173572D01*
X144252286Y-120402143D01*
X144195143Y-120516429D01*
X144138000Y-120573572D01*
X144023714Y-120630715D01*
X143909429Y-120630715D01*
X143795143Y-120573572D01*
X143738000Y-120516429D01*
X143680857Y-120402143D01*
X143680857Y-120116429D01*
X143738000Y-119945000D01*
X144080857Y-119602143D02*
X144080857Y-119145000D01*
X143680857Y-119430715D02*
X144709429Y-119430715D01*
X144823714Y-119373572D01*
X144880857Y-119259286D01*
X144880857Y-119145000D01*
X144880857Y-118745001D02*
X144080857Y-118745001D01*
X143680857Y-118745001D02*
X143738000Y-118802144D01*
X143795143Y-118745001D01*
X143738000Y-118687858D01*
X143680857Y-118745001D01*
X143795143Y-118745001D01*
X144823714Y-117659286D02*
X144880857Y-117773572D01*
X144880857Y-118002143D01*
X144823714Y-118116429D01*
X144766571Y-118173572D01*
X144652286Y-118230715D01*
X144309429Y-118230715D01*
X144195143Y-118173572D01*
X144138000Y-118116429D01*
X144080857Y-118002143D01*
X144080857Y-117773572D01*
X144138000Y-117659286D01*
X144880857Y-117145001D02*
X143680857Y-117145001D01*
X144423714Y-117030715D02*
X144880857Y-116687858D01*
X144080857Y-116687858D02*
X144538000Y-117145001D01*
X143680857Y-115259286D02*
X144652286Y-115259286D01*
X144766571Y-115202143D01*
X144823714Y-115145000D01*
X144880857Y-115030714D01*
X144880857Y-114802143D01*
X144823714Y-114687857D01*
X144766571Y-114630714D01*
X144652286Y-114573571D01*
X143680857Y-114573571D01*
X143623714Y-113145000D02*
X145166571Y-114173571D01*
X144880857Y-112745000D02*
X143680857Y-112745000D01*
X143680857Y-112459285D01*
X143738000Y-112287857D01*
X143852286Y-112173571D01*
X143966571Y-112116428D01*
X144195143Y-112059285D01*
X144366571Y-112059285D01*
X144595143Y-112116428D01*
X144709429Y-112173571D01*
X144823714Y-112287857D01*
X144880857Y-112459285D01*
X144880857Y-112745000D01*
X127494667Y-112507381D02*
X127494667Y-113221667D01*
X127447047Y-113364524D01*
X127351809Y-113459762D01*
X127208952Y-113507381D01*
X127113714Y-113507381D01*
X128447048Y-112507381D02*
X127970857Y-112507381D01*
X127923238Y-112983571D01*
X127970857Y-112935952D01*
X128066095Y-112888333D01*
X128304191Y-112888333D01*
X128399429Y-112935952D01*
X128447048Y-112983571D01*
X128494667Y-113078810D01*
X128494667Y-113316905D01*
X128447048Y-113412143D01*
X128399429Y-113459762D01*
X128304191Y-113507381D01*
X128066095Y-113507381D01*
X127970857Y-113459762D01*
X127923238Y-113412143D01*
X130772762Y-111970715D02*
X130820381Y-111827858D01*
X130820381Y-111589762D01*
X130772762Y-111494524D01*
X130725143Y-111446905D01*
X130629905Y-111399286D01*
X130534667Y-111399286D01*
X130439429Y-111446905D01*
X130391810Y-111494524D01*
X130344190Y-111589762D01*
X130296571Y-111780239D01*
X130248952Y-111875477D01*
X130201333Y-111923096D01*
X130106095Y-111970715D01*
X130010857Y-111970715D01*
X129915619Y-111923096D01*
X129868000Y-111875477D01*
X129820381Y-111780239D01*
X129820381Y-111542143D01*
X129868000Y-111399286D01*
X130772762Y-110589762D02*
X130820381Y-110685000D01*
X130820381Y-110875477D01*
X130772762Y-110970715D01*
X130677524Y-111018334D01*
X130296571Y-111018334D01*
X130201333Y-110970715D01*
X130153714Y-110875477D01*
X130153714Y-110685000D01*
X130201333Y-110589762D01*
X130296571Y-110542143D01*
X130391810Y-110542143D01*
X130487048Y-111018334D01*
X130820381Y-110113572D02*
X130153714Y-110113572D01*
X130344190Y-110113572D02*
X130248952Y-110065953D01*
X130201333Y-110018334D01*
X130153714Y-109923096D01*
X130153714Y-109827857D01*
X130153714Y-109589762D02*
X130820381Y-109351667D01*
X130153714Y-109113571D01*
X130820381Y-108589762D02*
X130772762Y-108685000D01*
X130725143Y-108732619D01*
X130629905Y-108780238D01*
X130344190Y-108780238D01*
X130248952Y-108732619D01*
X130201333Y-108685000D01*
X130153714Y-108589762D01*
X130153714Y-108446904D01*
X130201333Y-108351666D01*
X130248952Y-108304047D01*
X130344190Y-108256428D01*
X130629905Y-108256428D01*
X130725143Y-108304047D01*
X130772762Y-108351666D01*
X130820381Y-108446904D01*
X130820381Y-108589762D01*
X129820381Y-107065952D02*
X130629905Y-107065952D01*
X130725143Y-107018333D01*
X130772762Y-106970714D01*
X130820381Y-106875476D01*
X130820381Y-106684999D01*
X130772762Y-106589761D01*
X130725143Y-106542142D01*
X130629905Y-106494523D01*
X129820381Y-106494523D01*
X129772762Y-105304047D02*
X131058476Y-106161190D01*
X130820381Y-104970714D02*
X129820381Y-104970714D01*
X129820381Y-104732619D01*
X129868000Y-104589761D01*
X129963238Y-104494523D01*
X130058476Y-104446904D01*
X130248952Y-104399285D01*
X130391810Y-104399285D01*
X130582286Y-104446904D01*
X130677524Y-104494523D01*
X130772762Y-104589761D01*
X130820381Y-104732619D01*
X130820381Y-104970714D01*
X132574667Y-112507381D02*
X132574667Y-113221667D01*
X132527047Y-113364524D01*
X132431809Y-113459762D01*
X132288952Y-113507381D01*
X132193714Y-113507381D01*
X133479429Y-112507381D02*
X133288952Y-112507381D01*
X133193714Y-112555000D01*
X133146095Y-112602619D01*
X133050857Y-112745476D01*
X133003238Y-112935952D01*
X133003238Y-113316905D01*
X133050857Y-113412143D01*
X133098476Y-113459762D01*
X133193714Y-113507381D01*
X133384191Y-113507381D01*
X133479429Y-113459762D01*
X133527048Y-113412143D01*
X133574667Y-113316905D01*
X133574667Y-113078810D01*
X133527048Y-112983571D01*
X133479429Y-112935952D01*
X133384191Y-112888333D01*
X133193714Y-112888333D01*
X133098476Y-112935952D01*
X133050857Y-112983571D01*
X133003238Y-113078810D01*
X135852762Y-111851667D02*
X135900381Y-111708810D01*
X135900381Y-111470714D01*
X135852762Y-111375476D01*
X135805143Y-111327857D01*
X135709905Y-111280238D01*
X135614667Y-111280238D01*
X135519429Y-111327857D01*
X135471810Y-111375476D01*
X135424190Y-111470714D01*
X135376571Y-111661191D01*
X135328952Y-111756429D01*
X135281333Y-111804048D01*
X135186095Y-111851667D01*
X135090857Y-111851667D01*
X134995619Y-111804048D01*
X134948000Y-111756429D01*
X134900381Y-111661191D01*
X134900381Y-111423095D01*
X134948000Y-111280238D01*
X135852762Y-110470714D02*
X135900381Y-110565952D01*
X135900381Y-110756429D01*
X135852762Y-110851667D01*
X135757524Y-110899286D01*
X135376571Y-110899286D01*
X135281333Y-110851667D01*
X135233714Y-110756429D01*
X135233714Y-110565952D01*
X135281333Y-110470714D01*
X135376571Y-110423095D01*
X135471810Y-110423095D01*
X135567048Y-110899286D01*
X135900381Y-109994524D02*
X135233714Y-109994524D01*
X135424190Y-109994524D02*
X135328952Y-109946905D01*
X135281333Y-109899286D01*
X135233714Y-109804048D01*
X135233714Y-109708809D01*
X135233714Y-109470714D02*
X135900381Y-109232619D01*
X135233714Y-108994523D01*
X135900381Y-108470714D02*
X135852762Y-108565952D01*
X135805143Y-108613571D01*
X135709905Y-108661190D01*
X135424190Y-108661190D01*
X135328952Y-108613571D01*
X135281333Y-108565952D01*
X135233714Y-108470714D01*
X135233714Y-108327856D01*
X135281333Y-108232618D01*
X135328952Y-108184999D01*
X135424190Y-108137380D01*
X135709905Y-108137380D01*
X135805143Y-108184999D01*
X135852762Y-108232618D01*
X135900381Y-108327856D01*
X135900381Y-108470714D01*
X135900381Y-106470713D02*
X135900381Y-106946904D01*
X134900381Y-106946904D01*
X134852762Y-105423094D02*
X136138476Y-106280237D01*
X135900381Y-104518332D02*
X135424190Y-104851666D01*
X135900381Y-105089761D02*
X134900381Y-105089761D01*
X134900381Y-104708808D01*
X134948000Y-104613570D01*
X134995619Y-104565951D01*
X135090857Y-104518332D01*
X135233714Y-104518332D01*
X135328952Y-104565951D01*
X135376571Y-104613570D01*
X135424190Y-104708808D01*
X135424190Y-105089761D01*
X116064667Y-112507381D02*
X116064667Y-113221667D01*
X116017047Y-113364524D01*
X115921809Y-113459762D01*
X115778952Y-113507381D01*
X115683714Y-113507381D01*
X116445619Y-112507381D02*
X117112286Y-112507381D01*
X116683714Y-113507381D01*
X113000858Y-112955714D02*
X113000858Y-113622381D01*
X112572286Y-112955714D02*
X112572286Y-113479524D01*
X112619905Y-113574762D01*
X112715143Y-113622381D01*
X112858001Y-113622381D01*
X112953239Y-113574762D01*
X113000858Y-113527143D01*
X113477048Y-112955714D02*
X113477048Y-113622381D01*
X113477048Y-113050952D02*
X113524667Y-113003333D01*
X113619905Y-112955714D01*
X113762763Y-112955714D01*
X113858001Y-113003333D01*
X113905620Y-113098571D01*
X113905620Y-113622381D01*
X114381810Y-113622381D02*
X114381810Y-112955714D01*
X114381810Y-112622381D02*
X114334191Y-112670000D01*
X114381810Y-112717619D01*
X114429429Y-112670000D01*
X114381810Y-112622381D01*
X114381810Y-112717619D01*
X114762762Y-112955714D02*
X115000857Y-113622381D01*
X115238953Y-112955714D01*
X108976571Y-111717381D02*
X108976571Y-110717381D01*
X108976571Y-111098333D02*
X109071809Y-111050714D01*
X109262286Y-111050714D01*
X109357524Y-111098333D01*
X109405143Y-111145952D01*
X109452762Y-111241190D01*
X109452762Y-111526905D01*
X109405143Y-111622143D01*
X109357524Y-111669762D01*
X109262286Y-111717381D01*
X109071809Y-111717381D01*
X108976571Y-111669762D01*
X110309905Y-111717381D02*
X110309905Y-111193571D01*
X110262286Y-111098333D01*
X110167048Y-111050714D01*
X109976571Y-111050714D01*
X109881333Y-111098333D01*
X110309905Y-111669762D02*
X110214667Y-111717381D01*
X109976571Y-111717381D01*
X109881333Y-111669762D01*
X109833714Y-111574524D01*
X109833714Y-111479286D01*
X109881333Y-111384048D01*
X109976571Y-111336429D01*
X110214667Y-111336429D01*
X110309905Y-111288810D01*
X110786095Y-111717381D02*
X110786095Y-110717381D01*
X110881333Y-111336429D02*
X111167048Y-111717381D01*
X111167048Y-111050714D02*
X110786095Y-111431667D01*
X97490857Y-79350000D02*
X98348000Y-79350000D01*
X98519429Y-79407142D01*
X98633714Y-79521428D01*
X98690857Y-79692857D01*
X98690857Y-79807142D01*
X97890857Y-78264285D02*
X98690857Y-78264285D01*
X97433714Y-78549999D02*
X98290857Y-78835714D01*
X98290857Y-78092856D01*
X94823714Y-85727858D02*
X94880857Y-85556429D01*
X94880857Y-85270715D01*
X94823714Y-85156429D01*
X94766571Y-85099286D01*
X94652286Y-85042143D01*
X94538000Y-85042143D01*
X94423714Y-85099286D01*
X94366571Y-85156429D01*
X94309429Y-85270715D01*
X94252286Y-85499286D01*
X94195143Y-85613572D01*
X94138000Y-85670715D01*
X94023714Y-85727858D01*
X93909429Y-85727858D01*
X93795143Y-85670715D01*
X93738000Y-85613572D01*
X93680857Y-85499286D01*
X93680857Y-85213572D01*
X93738000Y-85042143D01*
X94080857Y-84699286D02*
X94080857Y-84242143D01*
X93680857Y-84527858D02*
X94709429Y-84527858D01*
X94823714Y-84470715D01*
X94880857Y-84356429D01*
X94880857Y-84242143D01*
X94880857Y-83842144D02*
X94080857Y-83842144D01*
X93680857Y-83842144D02*
X93738000Y-83899287D01*
X93795143Y-83842144D01*
X93738000Y-83785001D01*
X93680857Y-83842144D01*
X93795143Y-83842144D01*
X94823714Y-82756429D02*
X94880857Y-82870715D01*
X94880857Y-83099286D01*
X94823714Y-83213572D01*
X94766571Y-83270715D01*
X94652286Y-83327858D01*
X94309429Y-83327858D01*
X94195143Y-83270715D01*
X94138000Y-83213572D01*
X94080857Y-83099286D01*
X94080857Y-82870715D01*
X94138000Y-82756429D01*
X94880857Y-82242144D02*
X93680857Y-82242144D01*
X94423714Y-82127858D02*
X94880857Y-81785001D01*
X94080857Y-81785001D02*
X94538000Y-82242144D01*
X94880857Y-79785000D02*
X94880857Y-80356429D01*
X93680857Y-80356429D01*
X93623714Y-78527857D02*
X95166571Y-79556428D01*
X94880857Y-77442142D02*
X94309429Y-77842142D01*
X94880857Y-78127857D02*
X93680857Y-78127857D01*
X93680857Y-77670714D01*
X93738000Y-77556428D01*
X93795143Y-77499285D01*
X93909429Y-77442142D01*
X94080857Y-77442142D01*
X94195143Y-77499285D01*
X94252286Y-77556428D01*
X94309429Y-77670714D01*
X94309429Y-78127857D01*
D11*
X61853714Y-78754999D02*
X61925143Y-78826428D01*
X61996571Y-79040714D01*
X61996571Y-79183571D01*
X61925143Y-79397856D01*
X61782286Y-79540714D01*
X61639429Y-79612142D01*
X61353714Y-79683571D01*
X61139429Y-79683571D01*
X60853714Y-79612142D01*
X60710857Y-79540714D01*
X60568000Y-79397856D01*
X60496571Y-79183571D01*
X60496571Y-79040714D01*
X60568000Y-78826428D01*
X60639429Y-78754999D01*
X61996571Y-77326428D02*
X61996571Y-78183571D01*
X61996571Y-77754999D02*
X60496571Y-77754999D01*
X60710857Y-77897856D01*
X60853714Y-78040714D01*
X60925143Y-78183571D01*
X75601571Y-82540713D02*
X75601571Y-81469284D01*
X74958714Y-82112141D02*
X76887286Y-82540713D01*
X76244429Y-81612141D02*
X76244429Y-82683570D01*
X76887286Y-82040713D02*
X74958714Y-81612141D01*
X75244429Y-81040713D02*
X75173000Y-80969284D01*
X75101571Y-80826427D01*
X75101571Y-80469284D01*
X75173000Y-80326427D01*
X75244429Y-80254998D01*
X75387286Y-80183570D01*
X75530143Y-80183570D01*
X75744429Y-80254998D01*
X76601571Y-81112141D01*
X76601571Y-80183570D01*
X75101571Y-79683570D02*
X75101571Y-78683570D01*
X76601571Y-79326427D01*
X75744429Y-77897856D02*
X75673000Y-78040714D01*
X75601571Y-78112142D01*
X75458714Y-78183571D01*
X75387286Y-78183571D01*
X75244429Y-78112142D01*
X75173000Y-78040714D01*
X75101571Y-77897856D01*
X75101571Y-77612142D01*
X75173000Y-77469285D01*
X75244429Y-77397856D01*
X75387286Y-77326428D01*
X75458714Y-77326428D01*
X75601571Y-77397856D01*
X75673000Y-77469285D01*
X75744429Y-77612142D01*
X75744429Y-77897856D01*
X75815857Y-78040714D01*
X75887286Y-78112142D01*
X76030143Y-78183571D01*
X76315857Y-78183571D01*
X76458714Y-78112142D01*
X76530143Y-78040714D01*
X76601571Y-77897856D01*
X76601571Y-77612142D01*
X76530143Y-77469285D01*
X76458714Y-77397856D01*
X76315857Y-77326428D01*
X76030143Y-77326428D01*
X75887286Y-77397856D01*
X75815857Y-77469285D01*
X75744429Y-77612142D01*
X75101571Y-76397857D02*
X75101571Y-76255000D01*
X75173000Y-76112143D01*
X75244429Y-76040714D01*
X75387286Y-75969285D01*
X75673000Y-75897857D01*
X76030143Y-75897857D01*
X76315857Y-75969285D01*
X76458714Y-76040714D01*
X76530143Y-76112143D01*
X76601571Y-76255000D01*
X76601571Y-76397857D01*
X76530143Y-76540714D01*
X76458714Y-76612143D01*
X76315857Y-76683571D01*
X76030143Y-76755000D01*
X75673000Y-76755000D01*
X75387286Y-76683571D01*
X75244429Y-76612143D01*
X75173000Y-76540714D01*
X75101571Y-76397857D01*
X75101571Y-74969286D02*
X75101571Y-74826429D01*
X75173000Y-74683572D01*
X75244429Y-74612143D01*
X75387286Y-74540714D01*
X75673000Y-74469286D01*
X76030143Y-74469286D01*
X76315857Y-74540714D01*
X76458714Y-74612143D01*
X76530143Y-74683572D01*
X76601571Y-74826429D01*
X76601571Y-74969286D01*
X76530143Y-75112143D01*
X76458714Y-75183572D01*
X76315857Y-75255000D01*
X76030143Y-75326429D01*
X75673000Y-75326429D01*
X75387286Y-75255000D01*
X75244429Y-75183572D01*
X75173000Y-75112143D01*
X75101571Y-74969286D01*
D12*
X67564905Y-96102381D02*
X67564905Y-95102381D01*
X67945858Y-95102381D01*
X68041096Y-95150000D01*
X68088715Y-95197619D01*
X68136334Y-95292857D01*
X68136334Y-95435714D01*
X68088715Y-95530952D01*
X68041096Y-95578571D01*
X67945858Y-95626190D01*
X67564905Y-95626190D01*
X69088715Y-96102381D02*
X68517286Y-96102381D01*
X68803000Y-96102381D02*
X68803000Y-95102381D01*
X68707762Y-95245238D01*
X68612524Y-95340476D01*
X68517286Y-95388095D01*
X90424905Y-96102381D02*
X90424905Y-95102381D01*
X90805858Y-95102381D01*
X90901096Y-95150000D01*
X90948715Y-95197619D01*
X90996334Y-95292857D01*
X90996334Y-95435714D01*
X90948715Y-95530952D01*
X90901096Y-95578571D01*
X90805858Y-95626190D01*
X90424905Y-95626190D01*
X91377286Y-95197619D02*
X91424905Y-95150000D01*
X91520143Y-95102381D01*
X91758239Y-95102381D01*
X91853477Y-95150000D01*
X91901096Y-95197619D01*
X91948715Y-95292857D01*
X91948715Y-95388095D01*
X91901096Y-95530952D01*
X91329667Y-96102381D01*
X91948715Y-96102381D01*
X58674905Y-54192381D02*
X58674905Y-53192381D01*
X59055858Y-53192381D01*
X59151096Y-53240000D01*
X59198715Y-53287619D01*
X59246334Y-53382857D01*
X59246334Y-53525714D01*
X59198715Y-53620952D01*
X59151096Y-53668571D01*
X59055858Y-53716190D01*
X58674905Y-53716190D01*
X59579667Y-53192381D02*
X60198715Y-53192381D01*
X59865381Y-53573333D01*
X60008239Y-53573333D01*
X60103477Y-53620952D01*
X60151096Y-53668571D01*
X60198715Y-53763810D01*
X60198715Y-54001905D01*
X60151096Y-54097143D01*
X60103477Y-54144762D01*
X60008239Y-54192381D01*
X59722524Y-54192381D01*
X59627286Y-54144762D01*
X59579667Y-54097143D01*
X85979905Y-54192381D02*
X85979905Y-53192381D01*
X86360858Y-53192381D01*
X86456096Y-53240000D01*
X86503715Y-53287619D01*
X86551334Y-53382857D01*
X86551334Y-53525714D01*
X86503715Y-53620952D01*
X86456096Y-53668571D01*
X86360858Y-53716190D01*
X85979905Y-53716190D01*
X87408477Y-53525714D02*
X87408477Y-54192381D01*
X87170381Y-53144762D02*
X86932286Y-53859048D01*
X87551334Y-53859048D01*
X105220381Y-56518333D02*
X105934667Y-56518333D01*
X106077524Y-56565953D01*
X106172762Y-56661191D01*
X106220381Y-56804048D01*
X106220381Y-56899286D01*
X106220381Y-55518333D02*
X106220381Y-56089762D01*
X106220381Y-55804048D02*
X105220381Y-55804048D01*
X105363238Y-55899286D01*
X105458476Y-55994524D01*
X105506095Y-56089762D01*
X95060381Y-57494524D02*
X95869905Y-57494524D01*
X95965143Y-57446905D01*
X96012762Y-57399286D01*
X96060381Y-57304048D01*
X96060381Y-57113571D01*
X96012762Y-57018333D01*
X95965143Y-56970714D01*
X95869905Y-56923095D01*
X95060381Y-56923095D01*
X95012762Y-55732619D02*
X96298476Y-56589762D01*
X96060381Y-55399286D02*
X95060381Y-55399286D01*
X95060381Y-55161191D01*
X95108000Y-55018333D01*
X95203238Y-54923095D01*
X95298476Y-54875476D01*
X95488952Y-54827857D01*
X95631810Y-54827857D01*
X95822286Y-54875476D01*
X95917524Y-54923095D01*
X96012762Y-55018333D01*
X96060381Y-55161191D01*
X96060381Y-55399286D01*
X105220381Y-92078333D02*
X105934667Y-92078333D01*
X106077524Y-92125953D01*
X106172762Y-92221191D01*
X106220381Y-92364048D01*
X106220381Y-92459286D01*
X105315619Y-91649762D02*
X105268000Y-91602143D01*
X105220381Y-91506905D01*
X105220381Y-91268809D01*
X105268000Y-91173571D01*
X105315619Y-91125952D01*
X105410857Y-91078333D01*
X105506095Y-91078333D01*
X105648952Y-91125952D01*
X106220381Y-91697381D01*
X106220381Y-91078333D01*
X96060381Y-92459285D02*
X96060381Y-92935476D01*
X95060381Y-92935476D01*
X95012762Y-91411666D02*
X96298476Y-92268809D01*
X96060381Y-90506904D02*
X95584190Y-90840238D01*
X96060381Y-91078333D02*
X95060381Y-91078333D01*
X95060381Y-90697380D01*
X95108000Y-90602142D01*
X95155619Y-90554523D01*
X95250857Y-90506904D01*
X95393714Y-90506904D01*
X95488952Y-90554523D01*
X95536571Y-90602142D01*
X95584190Y-90697380D01*
X95584190Y-91078333D01*
X97490857Y-64110000D02*
X98348000Y-64110000D01*
X98519429Y-64167142D01*
X98633714Y-64281428D01*
X98690857Y-64452857D01*
X98690857Y-64567142D01*
X97490857Y-63652856D02*
X97490857Y-62909999D01*
X97948000Y-63309999D01*
X97948000Y-63138571D01*
X98005143Y-63024285D01*
X98062286Y-62967142D01*
X98176571Y-62909999D01*
X98462286Y-62909999D01*
X98576571Y-62967142D01*
X98633714Y-63024285D01*
X98690857Y-63138571D01*
X98690857Y-63481428D01*
X98633714Y-63595714D01*
X98576571Y-63652856D01*
X94823714Y-70630715D02*
X94880857Y-70459286D01*
X94880857Y-70173572D01*
X94823714Y-70059286D01*
X94766571Y-70002143D01*
X94652286Y-69945000D01*
X94538000Y-69945000D01*
X94423714Y-70002143D01*
X94366571Y-70059286D01*
X94309429Y-70173572D01*
X94252286Y-70402143D01*
X94195143Y-70516429D01*
X94138000Y-70573572D01*
X94023714Y-70630715D01*
X93909429Y-70630715D01*
X93795143Y-70573572D01*
X93738000Y-70516429D01*
X93680857Y-70402143D01*
X93680857Y-70116429D01*
X93738000Y-69945000D01*
X94080857Y-69602143D02*
X94080857Y-69145000D01*
X93680857Y-69430715D02*
X94709429Y-69430715D01*
X94823714Y-69373572D01*
X94880857Y-69259286D01*
X94880857Y-69145000D01*
X94880857Y-68745001D02*
X94080857Y-68745001D01*
X93680857Y-68745001D02*
X93738000Y-68802144D01*
X93795143Y-68745001D01*
X93738000Y-68687858D01*
X93680857Y-68745001D01*
X93795143Y-68745001D01*
X94823714Y-67659286D02*
X94880857Y-67773572D01*
X94880857Y-68002143D01*
X94823714Y-68116429D01*
X94766571Y-68173572D01*
X94652286Y-68230715D01*
X94309429Y-68230715D01*
X94195143Y-68173572D01*
X94138000Y-68116429D01*
X94080857Y-68002143D01*
X94080857Y-67773572D01*
X94138000Y-67659286D01*
X94880857Y-67145001D02*
X93680857Y-67145001D01*
X94423714Y-67030715D02*
X94880857Y-66687858D01*
X94080857Y-66687858D02*
X94538000Y-67145001D01*
X93680857Y-65259286D02*
X94652286Y-65259286D01*
X94766571Y-65202143D01*
X94823714Y-65145000D01*
X94880857Y-65030714D01*
X94880857Y-64802143D01*
X94823714Y-64687857D01*
X94766571Y-64630714D01*
X94652286Y-64573571D01*
X93680857Y-64573571D01*
X93623714Y-63145000D02*
X95166571Y-64173571D01*
X94880857Y-62745000D02*
X93680857Y-62745000D01*
X93680857Y-62459285D01*
X93738000Y-62287857D01*
X93852286Y-62173571D01*
X93966571Y-62116428D01*
X94195143Y-62059285D01*
X94366571Y-62059285D01*
X94595143Y-62116428D01*
X94709429Y-62173571D01*
X94823714Y-62287857D01*
X94880857Y-62459285D01*
X94880857Y-62745000D01*
X77494667Y-62507381D02*
X77494667Y-63221667D01*
X77447047Y-63364524D01*
X77351809Y-63459762D01*
X77208952Y-63507381D01*
X77113714Y-63507381D01*
X78447048Y-62507381D02*
X77970857Y-62507381D01*
X77923238Y-62983571D01*
X77970857Y-62935952D01*
X78066095Y-62888333D01*
X78304191Y-62888333D01*
X78399429Y-62935952D01*
X78447048Y-62983571D01*
X78494667Y-63078810D01*
X78494667Y-63316905D01*
X78447048Y-63412143D01*
X78399429Y-63459762D01*
X78304191Y-63507381D01*
X78066095Y-63507381D01*
X77970857Y-63459762D01*
X77923238Y-63412143D01*
X80772762Y-61970715D02*
X80820381Y-61827858D01*
X80820381Y-61589762D01*
X80772762Y-61494524D01*
X80725143Y-61446905D01*
X80629905Y-61399286D01*
X80534667Y-61399286D01*
X80439429Y-61446905D01*
X80391810Y-61494524D01*
X80344190Y-61589762D01*
X80296571Y-61780239D01*
X80248952Y-61875477D01*
X80201333Y-61923096D01*
X80106095Y-61970715D01*
X80010857Y-61970715D01*
X79915619Y-61923096D01*
X79868000Y-61875477D01*
X79820381Y-61780239D01*
X79820381Y-61542143D01*
X79868000Y-61399286D01*
X80772762Y-60589762D02*
X80820381Y-60685000D01*
X80820381Y-60875477D01*
X80772762Y-60970715D01*
X80677524Y-61018334D01*
X80296571Y-61018334D01*
X80201333Y-60970715D01*
X80153714Y-60875477D01*
X80153714Y-60685000D01*
X80201333Y-60589762D01*
X80296571Y-60542143D01*
X80391810Y-60542143D01*
X80487048Y-61018334D01*
X80820381Y-60113572D02*
X80153714Y-60113572D01*
X80344190Y-60113572D02*
X80248952Y-60065953D01*
X80201333Y-60018334D01*
X80153714Y-59923096D01*
X80153714Y-59827857D01*
X80153714Y-59589762D02*
X80820381Y-59351667D01*
X80153714Y-59113571D01*
X80820381Y-58589762D02*
X80772762Y-58685000D01*
X80725143Y-58732619D01*
X80629905Y-58780238D01*
X80344190Y-58780238D01*
X80248952Y-58732619D01*
X80201333Y-58685000D01*
X80153714Y-58589762D01*
X80153714Y-58446904D01*
X80201333Y-58351666D01*
X80248952Y-58304047D01*
X80344190Y-58256428D01*
X80629905Y-58256428D01*
X80725143Y-58304047D01*
X80772762Y-58351666D01*
X80820381Y-58446904D01*
X80820381Y-58589762D01*
X79820381Y-57065952D02*
X80629905Y-57065952D01*
X80725143Y-57018333D01*
X80772762Y-56970714D01*
X80820381Y-56875476D01*
X80820381Y-56684999D01*
X80772762Y-56589761D01*
X80725143Y-56542142D01*
X80629905Y-56494523D01*
X79820381Y-56494523D01*
X79772762Y-55304047D02*
X81058476Y-56161190D01*
X80820381Y-54970714D02*
X79820381Y-54970714D01*
X79820381Y-54732619D01*
X79868000Y-54589761D01*
X79963238Y-54494523D01*
X80058476Y-54446904D01*
X80248952Y-54399285D01*
X80391810Y-54399285D01*
X80582286Y-54446904D01*
X80677524Y-54494523D01*
X80772762Y-54589761D01*
X80820381Y-54732619D01*
X80820381Y-54970714D01*
X82574667Y-62507381D02*
X82574667Y-63221667D01*
X82527047Y-63364524D01*
X82431809Y-63459762D01*
X82288952Y-63507381D01*
X82193714Y-63507381D01*
X83479429Y-62507381D02*
X83288952Y-62507381D01*
X83193714Y-62555000D01*
X83146095Y-62602619D01*
X83050857Y-62745476D01*
X83003238Y-62935952D01*
X83003238Y-63316905D01*
X83050857Y-63412143D01*
X83098476Y-63459762D01*
X83193714Y-63507381D01*
X83384191Y-63507381D01*
X83479429Y-63459762D01*
X83527048Y-63412143D01*
X83574667Y-63316905D01*
X83574667Y-63078810D01*
X83527048Y-62983571D01*
X83479429Y-62935952D01*
X83384191Y-62888333D01*
X83193714Y-62888333D01*
X83098476Y-62935952D01*
X83050857Y-62983571D01*
X83003238Y-63078810D01*
X85852762Y-61851667D02*
X85900381Y-61708810D01*
X85900381Y-61470714D01*
X85852762Y-61375476D01*
X85805143Y-61327857D01*
X85709905Y-61280238D01*
X85614667Y-61280238D01*
X85519429Y-61327857D01*
X85471810Y-61375476D01*
X85424190Y-61470714D01*
X85376571Y-61661191D01*
X85328952Y-61756429D01*
X85281333Y-61804048D01*
X85186095Y-61851667D01*
X85090857Y-61851667D01*
X84995619Y-61804048D01*
X84948000Y-61756429D01*
X84900381Y-61661191D01*
X84900381Y-61423095D01*
X84948000Y-61280238D01*
X85852762Y-60470714D02*
X85900381Y-60565952D01*
X85900381Y-60756429D01*
X85852762Y-60851667D01*
X85757524Y-60899286D01*
X85376571Y-60899286D01*
X85281333Y-60851667D01*
X85233714Y-60756429D01*
X85233714Y-60565952D01*
X85281333Y-60470714D01*
X85376571Y-60423095D01*
X85471810Y-60423095D01*
X85567048Y-60899286D01*
X85900381Y-59994524D02*
X85233714Y-59994524D01*
X85424190Y-59994524D02*
X85328952Y-59946905D01*
X85281333Y-59899286D01*
X85233714Y-59804048D01*
X85233714Y-59708809D01*
X85233714Y-59470714D02*
X85900381Y-59232619D01*
X85233714Y-58994523D01*
X85900381Y-58470714D02*
X85852762Y-58565952D01*
X85805143Y-58613571D01*
X85709905Y-58661190D01*
X85424190Y-58661190D01*
X85328952Y-58613571D01*
X85281333Y-58565952D01*
X85233714Y-58470714D01*
X85233714Y-58327856D01*
X85281333Y-58232618D01*
X85328952Y-58184999D01*
X85424190Y-58137380D01*
X85709905Y-58137380D01*
X85805143Y-58184999D01*
X85852762Y-58232618D01*
X85900381Y-58327856D01*
X85900381Y-58470714D01*
X85900381Y-56470713D02*
X85900381Y-56946904D01*
X84900381Y-56946904D01*
X84852762Y-55423094D02*
X86138476Y-56280237D01*
X85900381Y-54518332D02*
X85424190Y-54851666D01*
X85900381Y-55089761D02*
X84900381Y-55089761D01*
X84900381Y-54708808D01*
X84948000Y-54613570D01*
X84995619Y-54565951D01*
X85090857Y-54518332D01*
X85233714Y-54518332D01*
X85328952Y-54565951D01*
X85376571Y-54613570D01*
X85424190Y-54708808D01*
X85424190Y-55089761D01*
X66064667Y-62507381D02*
X66064667Y-63221667D01*
X66017047Y-63364524D01*
X65921809Y-63459762D01*
X65778952Y-63507381D01*
X65683714Y-63507381D01*
X66445619Y-62507381D02*
X67112286Y-62507381D01*
X66683714Y-63507381D01*
X63000858Y-62955714D02*
X63000858Y-63622381D01*
X62572286Y-62955714D02*
X62572286Y-63479524D01*
X62619905Y-63574762D01*
X62715143Y-63622381D01*
X62858001Y-63622381D01*
X62953239Y-63574762D01*
X63000858Y-63527143D01*
X63477048Y-62955714D02*
X63477048Y-63622381D01*
X63477048Y-63050952D02*
X63524667Y-63003333D01*
X63619905Y-62955714D01*
X63762763Y-62955714D01*
X63858001Y-63003333D01*
X63905620Y-63098571D01*
X63905620Y-63622381D01*
X64381810Y-63622381D02*
X64381810Y-62955714D01*
X64381810Y-62622381D02*
X64334191Y-62670000D01*
X64381810Y-62717619D01*
X64429429Y-62670000D01*
X64381810Y-62622381D01*
X64381810Y-62717619D01*
X64762762Y-62955714D02*
X65000857Y-63622381D01*
X65238953Y-62955714D01*
X58976571Y-61717381D02*
X58976571Y-60717381D01*
X58976571Y-61098333D02*
X59071809Y-61050714D01*
X59262286Y-61050714D01*
X59357524Y-61098333D01*
X59405143Y-61145952D01*
X59452762Y-61241190D01*
X59452762Y-61526905D01*
X59405143Y-61622143D01*
X59357524Y-61669762D01*
X59262286Y-61717381D01*
X59071809Y-61717381D01*
X58976571Y-61669762D01*
X60309905Y-61717381D02*
X60309905Y-61193571D01*
X60262286Y-61098333D01*
X60167048Y-61050714D01*
X59976571Y-61050714D01*
X59881333Y-61098333D01*
X60309905Y-61669762D02*
X60214667Y-61717381D01*
X59976571Y-61717381D01*
X59881333Y-61669762D01*
X59833714Y-61574524D01*
X59833714Y-61479286D01*
X59881333Y-61384048D01*
X59976571Y-61336429D01*
X60214667Y-61336429D01*
X60309905Y-61288810D01*
X60786095Y-61717381D02*
X60786095Y-60717381D01*
X60881333Y-61336429D02*
X61167048Y-61717381D01*
X61167048Y-61050714D02*
X60786095Y-61431667D01*
X147490857Y-79350000D02*
X148348000Y-79350000D01*
X148519429Y-79407142D01*
X148633714Y-79521428D01*
X148690857Y-79692857D01*
X148690857Y-79807142D01*
X147890857Y-78264285D02*
X148690857Y-78264285D01*
X147433714Y-78549999D02*
X148290857Y-78835714D01*
X148290857Y-78092856D01*
X144823714Y-85727858D02*
X144880857Y-85556429D01*
X144880857Y-85270715D01*
X144823714Y-85156429D01*
X144766571Y-85099286D01*
X144652286Y-85042143D01*
X144538000Y-85042143D01*
X144423714Y-85099286D01*
X144366571Y-85156429D01*
X144309429Y-85270715D01*
X144252286Y-85499286D01*
X144195143Y-85613572D01*
X144138000Y-85670715D01*
X144023714Y-85727858D01*
X143909429Y-85727858D01*
X143795143Y-85670715D01*
X143738000Y-85613572D01*
X143680857Y-85499286D01*
X143680857Y-85213572D01*
X143738000Y-85042143D01*
X144080857Y-84699286D02*
X144080857Y-84242143D01*
X143680857Y-84527858D02*
X144709429Y-84527858D01*
X144823714Y-84470715D01*
X144880857Y-84356429D01*
X144880857Y-84242143D01*
X144880857Y-83842144D02*
X144080857Y-83842144D01*
X143680857Y-83842144D02*
X143738000Y-83899287D01*
X143795143Y-83842144D01*
X143738000Y-83785001D01*
X143680857Y-83842144D01*
X143795143Y-83842144D01*
X144823714Y-82756429D02*
X144880857Y-82870715D01*
X144880857Y-83099286D01*
X144823714Y-83213572D01*
X144766571Y-83270715D01*
X144652286Y-83327858D01*
X144309429Y-83327858D01*
X144195143Y-83270715D01*
X144138000Y-83213572D01*
X144080857Y-83099286D01*
X144080857Y-82870715D01*
X144138000Y-82756429D01*
X144880857Y-82242144D02*
X143680857Y-82242144D01*
X144423714Y-82127858D02*
X144880857Y-81785001D01*
X144080857Y-81785001D02*
X144538000Y-82242144D01*
X144880857Y-79785000D02*
X144880857Y-80356429D01*
X143680857Y-80356429D01*
X143623714Y-78527857D02*
X145166571Y-79556428D01*
X144880857Y-77442142D02*
X144309429Y-77842142D01*
X144880857Y-78127857D02*
X143680857Y-78127857D01*
X143680857Y-77670714D01*
X143738000Y-77556428D01*
X143795143Y-77499285D01*
X143909429Y-77442142D01*
X144080857Y-77442142D01*
X144195143Y-77499285D01*
X144252286Y-77556428D01*
X144309429Y-77670714D01*
X144309429Y-78127857D01*
D11*
X111853714Y-78754999D02*
X111925143Y-78826428D01*
X111996571Y-79040714D01*
X111996571Y-79183571D01*
X111925143Y-79397856D01*
X111782286Y-79540714D01*
X111639429Y-79612142D01*
X111353714Y-79683571D01*
X111139429Y-79683571D01*
X110853714Y-79612142D01*
X110710857Y-79540714D01*
X110568000Y-79397856D01*
X110496571Y-79183571D01*
X110496571Y-79040714D01*
X110568000Y-78826428D01*
X110639429Y-78754999D01*
X111996571Y-77326428D02*
X111996571Y-78183571D01*
X111996571Y-77754999D02*
X110496571Y-77754999D01*
X110710857Y-77897856D01*
X110853714Y-78040714D01*
X110925143Y-78183571D01*
X125601571Y-82540713D02*
X125601571Y-81469284D01*
X124958714Y-82112141D02*
X126887286Y-82540713D01*
X126244429Y-81612141D02*
X126244429Y-82683570D01*
X126887286Y-82040713D02*
X124958714Y-81612141D01*
X125244429Y-81040713D02*
X125173000Y-80969284D01*
X125101571Y-80826427D01*
X125101571Y-80469284D01*
X125173000Y-80326427D01*
X125244429Y-80254998D01*
X125387286Y-80183570D01*
X125530143Y-80183570D01*
X125744429Y-80254998D01*
X126601571Y-81112141D01*
X126601571Y-80183570D01*
X125101571Y-79683570D02*
X125101571Y-78683570D01*
X126601571Y-79326427D01*
X125744429Y-77897856D02*
X125673000Y-78040714D01*
X125601571Y-78112142D01*
X125458714Y-78183571D01*
X125387286Y-78183571D01*
X125244429Y-78112142D01*
X125173000Y-78040714D01*
X125101571Y-77897856D01*
X125101571Y-77612142D01*
X125173000Y-77469285D01*
X125244429Y-77397856D01*
X125387286Y-77326428D01*
X125458714Y-77326428D01*
X125601571Y-77397856D01*
X125673000Y-77469285D01*
X125744429Y-77612142D01*
X125744429Y-77897856D01*
X125815857Y-78040714D01*
X125887286Y-78112142D01*
X126030143Y-78183571D01*
X126315857Y-78183571D01*
X126458714Y-78112142D01*
X126530143Y-78040714D01*
X126601571Y-77897856D01*
X126601571Y-77612142D01*
X126530143Y-77469285D01*
X126458714Y-77397856D01*
X126315857Y-77326428D01*
X126030143Y-77326428D01*
X125887286Y-77397856D01*
X125815857Y-77469285D01*
X125744429Y-77612142D01*
X125101571Y-76397857D02*
X125101571Y-76255000D01*
X125173000Y-76112143D01*
X125244429Y-76040714D01*
X125387286Y-75969285D01*
X125673000Y-75897857D01*
X126030143Y-75897857D01*
X126315857Y-75969285D01*
X126458714Y-76040714D01*
X126530143Y-76112143D01*
X126601571Y-76255000D01*
X126601571Y-76397857D01*
X126530143Y-76540714D01*
X126458714Y-76612143D01*
X126315857Y-76683571D01*
X126030143Y-76755000D01*
X125673000Y-76755000D01*
X125387286Y-76683571D01*
X125244429Y-76612143D01*
X125173000Y-76540714D01*
X125101571Y-76397857D01*
X125101571Y-74969286D02*
X125101571Y-74826429D01*
X125173000Y-74683572D01*
X125244429Y-74612143D01*
X125387286Y-74540714D01*
X125673000Y-74469286D01*
X126030143Y-74469286D01*
X126315857Y-74540714D01*
X126458714Y-74612143D01*
X126530143Y-74683572D01*
X126601571Y-74826429D01*
X126601571Y-74969286D01*
X126530143Y-75112143D01*
X126458714Y-75183572D01*
X126315857Y-75255000D01*
X126030143Y-75326429D01*
X125673000Y-75326429D01*
X125387286Y-75255000D01*
X125244429Y-75183572D01*
X125173000Y-75112143D01*
X125101571Y-74969286D01*
D12*
X117564905Y-96102381D02*
X117564905Y-95102381D01*
X117945858Y-95102381D01*
X118041096Y-95150000D01*
X118088715Y-95197619D01*
X118136334Y-95292857D01*
X118136334Y-95435714D01*
X118088715Y-95530952D01*
X118041096Y-95578571D01*
X117945858Y-95626190D01*
X117564905Y-95626190D01*
X119088715Y-96102381D02*
X118517286Y-96102381D01*
X118803000Y-96102381D02*
X118803000Y-95102381D01*
X118707762Y-95245238D01*
X118612524Y-95340476D01*
X118517286Y-95388095D01*
X140424905Y-96102381D02*
X140424905Y-95102381D01*
X140805858Y-95102381D01*
X140901096Y-95150000D01*
X140948715Y-95197619D01*
X140996334Y-95292857D01*
X140996334Y-95435714D01*
X140948715Y-95530952D01*
X140901096Y-95578571D01*
X140805858Y-95626190D01*
X140424905Y-95626190D01*
X141377286Y-95197619D02*
X141424905Y-95150000D01*
X141520143Y-95102381D01*
X141758239Y-95102381D01*
X141853477Y-95150000D01*
X141901096Y-95197619D01*
X141948715Y-95292857D01*
X141948715Y-95388095D01*
X141901096Y-95530952D01*
X141329667Y-96102381D01*
X141948715Y-96102381D01*
X108674905Y-54192381D02*
X108674905Y-53192381D01*
X109055858Y-53192381D01*
X109151096Y-53240000D01*
X109198715Y-53287619D01*
X109246334Y-53382857D01*
X109246334Y-53525714D01*
X109198715Y-53620952D01*
X109151096Y-53668571D01*
X109055858Y-53716190D01*
X108674905Y-53716190D01*
X109579667Y-53192381D02*
X110198715Y-53192381D01*
X109865381Y-53573333D01*
X110008239Y-53573333D01*
X110103477Y-53620952D01*
X110151096Y-53668571D01*
X110198715Y-53763810D01*
X110198715Y-54001905D01*
X110151096Y-54097143D01*
X110103477Y-54144762D01*
X110008239Y-54192381D01*
X109722524Y-54192381D01*
X109627286Y-54144762D01*
X109579667Y-54097143D01*
X135979905Y-54192381D02*
X135979905Y-53192381D01*
X136360858Y-53192381D01*
X136456096Y-53240000D01*
X136503715Y-53287619D01*
X136551334Y-53382857D01*
X136551334Y-53525714D01*
X136503715Y-53620952D01*
X136456096Y-53668571D01*
X136360858Y-53716190D01*
X135979905Y-53716190D01*
X137408477Y-53525714D02*
X137408477Y-54192381D01*
X137170381Y-53144762D02*
X136932286Y-53859048D01*
X137551334Y-53859048D01*
X155220381Y-56518333D02*
X155934667Y-56518333D01*
X156077524Y-56565953D01*
X156172762Y-56661191D01*
X156220381Y-56804048D01*
X156220381Y-56899286D01*
X156220381Y-55518333D02*
X156220381Y-56089762D01*
X156220381Y-55804048D02*
X155220381Y-55804048D01*
X155363238Y-55899286D01*
X155458476Y-55994524D01*
X155506095Y-56089762D01*
X145060381Y-57494524D02*
X145869905Y-57494524D01*
X145965143Y-57446905D01*
X146012762Y-57399286D01*
X146060381Y-57304048D01*
X146060381Y-57113571D01*
X146012762Y-57018333D01*
X145965143Y-56970714D01*
X145869905Y-56923095D01*
X145060381Y-56923095D01*
X145012762Y-55732619D02*
X146298476Y-56589762D01*
X146060381Y-55399286D02*
X145060381Y-55399286D01*
X145060381Y-55161191D01*
X145108000Y-55018333D01*
X145203238Y-54923095D01*
X145298476Y-54875476D01*
X145488952Y-54827857D01*
X145631810Y-54827857D01*
X145822286Y-54875476D01*
X145917524Y-54923095D01*
X146012762Y-55018333D01*
X146060381Y-55161191D01*
X146060381Y-55399286D01*
X155220381Y-92078333D02*
X155934667Y-92078333D01*
X156077524Y-92125953D01*
X156172762Y-92221191D01*
X156220381Y-92364048D01*
X156220381Y-92459286D01*
X155315619Y-91649762D02*
X155268000Y-91602143D01*
X155220381Y-91506905D01*
X155220381Y-91268809D01*
X155268000Y-91173571D01*
X155315619Y-91125952D01*
X155410857Y-91078333D01*
X155506095Y-91078333D01*
X155648952Y-91125952D01*
X156220381Y-91697381D01*
X156220381Y-91078333D01*
X146060381Y-92459285D02*
X146060381Y-92935476D01*
X145060381Y-92935476D01*
X145012762Y-91411666D02*
X146298476Y-92268809D01*
X146060381Y-90506904D02*
X145584190Y-90840238D01*
X146060381Y-91078333D02*
X145060381Y-91078333D01*
X145060381Y-90697380D01*
X145108000Y-90602142D01*
X145155619Y-90554523D01*
X145250857Y-90506904D01*
X145393714Y-90506904D01*
X145488952Y-90554523D01*
X145536571Y-90602142D01*
X145584190Y-90697380D01*
X145584190Y-91078333D01*
X147490857Y-64110000D02*
X148348000Y-64110000D01*
X148519429Y-64167142D01*
X148633714Y-64281428D01*
X148690857Y-64452857D01*
X148690857Y-64567142D01*
X147490857Y-63652856D02*
X147490857Y-62909999D01*
X147948000Y-63309999D01*
X147948000Y-63138571D01*
X148005143Y-63024285D01*
X148062286Y-62967142D01*
X148176571Y-62909999D01*
X148462286Y-62909999D01*
X148576571Y-62967142D01*
X148633714Y-63024285D01*
X148690857Y-63138571D01*
X148690857Y-63481428D01*
X148633714Y-63595714D01*
X148576571Y-63652856D01*
X144823714Y-70630715D02*
X144880857Y-70459286D01*
X144880857Y-70173572D01*
X144823714Y-70059286D01*
X144766571Y-70002143D01*
X144652286Y-69945000D01*
X144538000Y-69945000D01*
X144423714Y-70002143D01*
X144366571Y-70059286D01*
X144309429Y-70173572D01*
X144252286Y-70402143D01*
X144195143Y-70516429D01*
X144138000Y-70573572D01*
X144023714Y-70630715D01*
X143909429Y-70630715D01*
X143795143Y-70573572D01*
X143738000Y-70516429D01*
X143680857Y-70402143D01*
X143680857Y-70116429D01*
X143738000Y-69945000D01*
X144080857Y-69602143D02*
X144080857Y-69145000D01*
X143680857Y-69430715D02*
X144709429Y-69430715D01*
X144823714Y-69373572D01*
X144880857Y-69259286D01*
X144880857Y-69145000D01*
X144880857Y-68745001D02*
X144080857Y-68745001D01*
X143680857Y-68745001D02*
X143738000Y-68802144D01*
X143795143Y-68745001D01*
X143738000Y-68687858D01*
X143680857Y-68745001D01*
X143795143Y-68745001D01*
X144823714Y-67659286D02*
X144880857Y-67773572D01*
X144880857Y-68002143D01*
X144823714Y-68116429D01*
X144766571Y-68173572D01*
X144652286Y-68230715D01*
X144309429Y-68230715D01*
X144195143Y-68173572D01*
X144138000Y-68116429D01*
X144080857Y-68002143D01*
X144080857Y-67773572D01*
X144138000Y-67659286D01*
X144880857Y-67145001D02*
X143680857Y-67145001D01*
X144423714Y-67030715D02*
X144880857Y-66687858D01*
X144080857Y-66687858D02*
X144538000Y-67145001D01*
X143680857Y-65259286D02*
X144652286Y-65259286D01*
X144766571Y-65202143D01*
X144823714Y-65145000D01*
X144880857Y-65030714D01*
X144880857Y-64802143D01*
X144823714Y-64687857D01*
X144766571Y-64630714D01*
X144652286Y-64573571D01*
X143680857Y-64573571D01*
X143623714Y-63145000D02*
X145166571Y-64173571D01*
X144880857Y-62745000D02*
X143680857Y-62745000D01*
X143680857Y-62459285D01*
X143738000Y-62287857D01*
X143852286Y-62173571D01*
X143966571Y-62116428D01*
X144195143Y-62059285D01*
X144366571Y-62059285D01*
X144595143Y-62116428D01*
X144709429Y-62173571D01*
X144823714Y-62287857D01*
X144880857Y-62459285D01*
X144880857Y-62745000D01*
X127494667Y-62507381D02*
X127494667Y-63221667D01*
X127447047Y-63364524D01*
X127351809Y-63459762D01*
X127208952Y-63507381D01*
X127113714Y-63507381D01*
X128447048Y-62507381D02*
X127970857Y-62507381D01*
X127923238Y-62983571D01*
X127970857Y-62935952D01*
X128066095Y-62888333D01*
X128304191Y-62888333D01*
X128399429Y-62935952D01*
X128447048Y-62983571D01*
X128494667Y-63078810D01*
X128494667Y-63316905D01*
X128447048Y-63412143D01*
X128399429Y-63459762D01*
X128304191Y-63507381D01*
X128066095Y-63507381D01*
X127970857Y-63459762D01*
X127923238Y-63412143D01*
X130772762Y-61970715D02*
X130820381Y-61827858D01*
X130820381Y-61589762D01*
X130772762Y-61494524D01*
X130725143Y-61446905D01*
X130629905Y-61399286D01*
X130534667Y-61399286D01*
X130439429Y-61446905D01*
X130391810Y-61494524D01*
X130344190Y-61589762D01*
X130296571Y-61780239D01*
X130248952Y-61875477D01*
X130201333Y-61923096D01*
X130106095Y-61970715D01*
X130010857Y-61970715D01*
X129915619Y-61923096D01*
X129868000Y-61875477D01*
X129820381Y-61780239D01*
X129820381Y-61542143D01*
X129868000Y-61399286D01*
X130772762Y-60589762D02*
X130820381Y-60685000D01*
X130820381Y-60875477D01*
X130772762Y-60970715D01*
X130677524Y-61018334D01*
X130296571Y-61018334D01*
X130201333Y-60970715D01*
X130153714Y-60875477D01*
X130153714Y-60685000D01*
X130201333Y-60589762D01*
X130296571Y-60542143D01*
X130391810Y-60542143D01*
X130487048Y-61018334D01*
X130820381Y-60113572D02*
X130153714Y-60113572D01*
X130344190Y-60113572D02*
X130248952Y-60065953D01*
X130201333Y-60018334D01*
X130153714Y-59923096D01*
X130153714Y-59827857D01*
X130153714Y-59589762D02*
X130820381Y-59351667D01*
X130153714Y-59113571D01*
X130820381Y-58589762D02*
X130772762Y-58685000D01*
X130725143Y-58732619D01*
X130629905Y-58780238D01*
X130344190Y-58780238D01*
X130248952Y-58732619D01*
X130201333Y-58685000D01*
X130153714Y-58589762D01*
X130153714Y-58446904D01*
X130201333Y-58351666D01*
X130248952Y-58304047D01*
X130344190Y-58256428D01*
X130629905Y-58256428D01*
X130725143Y-58304047D01*
X130772762Y-58351666D01*
X130820381Y-58446904D01*
X130820381Y-58589762D01*
X129820381Y-57065952D02*
X130629905Y-57065952D01*
X130725143Y-57018333D01*
X130772762Y-56970714D01*
X130820381Y-56875476D01*
X130820381Y-56684999D01*
X130772762Y-56589761D01*
X130725143Y-56542142D01*
X130629905Y-56494523D01*
X129820381Y-56494523D01*
X129772762Y-55304047D02*
X131058476Y-56161190D01*
X130820381Y-54970714D02*
X129820381Y-54970714D01*
X129820381Y-54732619D01*
X129868000Y-54589761D01*
X129963238Y-54494523D01*
X130058476Y-54446904D01*
X130248952Y-54399285D01*
X130391810Y-54399285D01*
X130582286Y-54446904D01*
X130677524Y-54494523D01*
X130772762Y-54589761D01*
X130820381Y-54732619D01*
X130820381Y-54970714D01*
X132574667Y-62507381D02*
X132574667Y-63221667D01*
X132527047Y-63364524D01*
X132431809Y-63459762D01*
X132288952Y-63507381D01*
X132193714Y-63507381D01*
X133479429Y-62507381D02*
X133288952Y-62507381D01*
X133193714Y-62555000D01*
X133146095Y-62602619D01*
X133050857Y-62745476D01*
X133003238Y-62935952D01*
X133003238Y-63316905D01*
X133050857Y-63412143D01*
X133098476Y-63459762D01*
X133193714Y-63507381D01*
X133384191Y-63507381D01*
X133479429Y-63459762D01*
X133527048Y-63412143D01*
X133574667Y-63316905D01*
X133574667Y-63078810D01*
X133527048Y-62983571D01*
X133479429Y-62935952D01*
X133384191Y-62888333D01*
X133193714Y-62888333D01*
X133098476Y-62935952D01*
X133050857Y-62983571D01*
X133003238Y-63078810D01*
X135852762Y-61851667D02*
X135900381Y-61708810D01*
X135900381Y-61470714D01*
X135852762Y-61375476D01*
X135805143Y-61327857D01*
X135709905Y-61280238D01*
X135614667Y-61280238D01*
X135519429Y-61327857D01*
X135471810Y-61375476D01*
X135424190Y-61470714D01*
X135376571Y-61661191D01*
X135328952Y-61756429D01*
X135281333Y-61804048D01*
X135186095Y-61851667D01*
X135090857Y-61851667D01*
X134995619Y-61804048D01*
X134948000Y-61756429D01*
X134900381Y-61661191D01*
X134900381Y-61423095D01*
X134948000Y-61280238D01*
X135852762Y-60470714D02*
X135900381Y-60565952D01*
X135900381Y-60756429D01*
X135852762Y-60851667D01*
X135757524Y-60899286D01*
X135376571Y-60899286D01*
X135281333Y-60851667D01*
X135233714Y-60756429D01*
X135233714Y-60565952D01*
X135281333Y-60470714D01*
X135376571Y-60423095D01*
X135471810Y-60423095D01*
X135567048Y-60899286D01*
X135900381Y-59994524D02*
X135233714Y-59994524D01*
X135424190Y-59994524D02*
X135328952Y-59946905D01*
X135281333Y-59899286D01*
X135233714Y-59804048D01*
X135233714Y-59708809D01*
X135233714Y-59470714D02*
X135900381Y-59232619D01*
X135233714Y-58994523D01*
X135900381Y-58470714D02*
X135852762Y-58565952D01*
X135805143Y-58613571D01*
X135709905Y-58661190D01*
X135424190Y-58661190D01*
X135328952Y-58613571D01*
X135281333Y-58565952D01*
X135233714Y-58470714D01*
X135233714Y-58327856D01*
X135281333Y-58232618D01*
X135328952Y-58184999D01*
X135424190Y-58137380D01*
X135709905Y-58137380D01*
X135805143Y-58184999D01*
X135852762Y-58232618D01*
X135900381Y-58327856D01*
X135900381Y-58470714D01*
X135900381Y-56470713D02*
X135900381Y-56946904D01*
X134900381Y-56946904D01*
X134852762Y-55423094D02*
X136138476Y-56280237D01*
X135900381Y-54518332D02*
X135424190Y-54851666D01*
X135900381Y-55089761D02*
X134900381Y-55089761D01*
X134900381Y-54708808D01*
X134948000Y-54613570D01*
X134995619Y-54565951D01*
X135090857Y-54518332D01*
X135233714Y-54518332D01*
X135328952Y-54565951D01*
X135376571Y-54613570D01*
X135424190Y-54708808D01*
X135424190Y-55089761D01*
X116064667Y-62507381D02*
X116064667Y-63221667D01*
X116017047Y-63364524D01*
X115921809Y-63459762D01*
X115778952Y-63507381D01*
X115683714Y-63507381D01*
X116445619Y-62507381D02*
X117112286Y-62507381D01*
X116683714Y-63507381D01*
X113000858Y-62955714D02*
X113000858Y-63622381D01*
X112572286Y-62955714D02*
X112572286Y-63479524D01*
X112619905Y-63574762D01*
X112715143Y-63622381D01*
X112858001Y-63622381D01*
X112953239Y-63574762D01*
X113000858Y-63527143D01*
X113477048Y-62955714D02*
X113477048Y-63622381D01*
X113477048Y-63050952D02*
X113524667Y-63003333D01*
X113619905Y-62955714D01*
X113762763Y-62955714D01*
X113858001Y-63003333D01*
X113905620Y-63098571D01*
X113905620Y-63622381D01*
X114381810Y-63622381D02*
X114381810Y-62955714D01*
X114381810Y-62622381D02*
X114334191Y-62670000D01*
X114381810Y-62717619D01*
X114429429Y-62670000D01*
X114381810Y-62622381D01*
X114381810Y-62717619D01*
X114762762Y-62955714D02*
X115000857Y-63622381D01*
X115238953Y-62955714D01*
X108976571Y-61717381D02*
X108976571Y-60717381D01*
X108976571Y-61098333D02*
X109071809Y-61050714D01*
X109262286Y-61050714D01*
X109357524Y-61098333D01*
X109405143Y-61145952D01*
X109452762Y-61241190D01*
X109452762Y-61526905D01*
X109405143Y-61622143D01*
X109357524Y-61669762D01*
X109262286Y-61717381D01*
X109071809Y-61717381D01*
X108976571Y-61669762D01*
X110309905Y-61717381D02*
X110309905Y-61193571D01*
X110262286Y-61098333D01*
X110167048Y-61050714D01*
X109976571Y-61050714D01*
X109881333Y-61098333D01*
X110309905Y-61669762D02*
X110214667Y-61717381D01*
X109976571Y-61717381D01*
X109881333Y-61669762D01*
X109833714Y-61574524D01*
X109833714Y-61479286D01*
X109881333Y-61384048D01*
X109976571Y-61336429D01*
X110214667Y-61336429D01*
X110309905Y-61288810D01*
X110786095Y-61717381D02*
X110786095Y-60717381D01*
X110881333Y-61336429D02*
X111167048Y-61717381D01*
X111167048Y-61050714D02*
X110786095Y-61431667D01*
M02*
