M48
;DRILL file {KiCad 4.0.6} date 02/06/18 16:35:37
;FORMAT={-:-/ absolute / metric / decimal}
FMAT,2
METRIC,TZ
T1C0.600
T2C1.000
T3C1.016
T4C3.000
%
G90
G05
M71
T1
X147.828Y-120.015
X165.608Y-109.855
T2
X133.858Y-92.075
X133.858Y-114.935
X135.128Y-80.645
X135.128Y-83.185
X135.128Y-85.725
X136.398Y-92.075
X136.398Y-114.935
X137.668Y-80.645
X137.668Y-83.185
X137.668Y-85.725
X147.828Y-80.645
X147.828Y-83.185
X147.828Y-85.725
X152.908Y-80.645
X152.908Y-83.185
X152.908Y-85.725
X156.718Y-92.075
X156.718Y-114.935
X159.258Y-92.075
X159.258Y-114.935
X166.878Y-79.375
X166.878Y-117.475
X169.418Y-79.375
X169.418Y-84.455
X169.418Y-89.535
X169.418Y-94.615
X169.418Y-99.695
X169.418Y-104.775
X169.418Y-109.855
X169.418Y-117.475
X171.958Y-79.375
X171.958Y-117.475
T3
X129.794Y-75.565
X132.334Y-75.565
X134.874Y-75.565
X137.414Y-75.565
X138.938Y-123.825
X139.954Y-75.565
X141.478Y-123.825
X142.494Y-75.565
X144.018Y-123.825
X145.034Y-75.565
X146.558Y-123.825
X147.574Y-75.565
X149.098Y-123.825
X150.114Y-75.565
X151.638Y-123.825
X152.654Y-75.565
X154.178Y-123.825
X156.718Y-75.565
X156.718Y-123.825
X159.258Y-75.565
X161.798Y-75.565
X161.798Y-123.825
X164.338Y-75.565
X164.338Y-123.825
X166.878Y-75.565
X166.878Y-123.825
X169.418Y-75.565
X169.418Y-123.825
X171.958Y-75.565
X171.958Y-123.825
X174.498Y-75.565
X174.498Y-123.825
T4
X131.318Y-95.885
X131.318Y-111.125
X161.798Y-95.885
X161.798Y-111.125
T0
M30
